{
DisplayStrings = (
"HHHMHHH\012VVVWVVV",
"aef\012nnnfnn\012ooofooo",
"/oo-gurmukhi/ha-gurmukhi  ! Oh!\012/ka-gurmukhi/iimatra-gurmukhi  /ha-gurmukhi/iimatra-gurmukhi \012HHH!HHH\012OOO!OOO\012d! f! l! fue! i!",
"/oo-gurmukhi/sa-gurmukhi/ha-gurmukhi  /iimatra-gurmukhi",

glyphs = (
{
color = 1;
glyphname = A;
lastChange = "2015-11-25 09:45:57 +0000";
layers = (
{
layerId = "D34FCF88-AF1D-4520-8FB0-498E26D42FBC";
name = Regular;
paths = (
{
closed = 1;
nodes = (
"59 -29 OFFCURVE",
"108 28 OFFCURVE",
"140 63 CURVE SMOOTH",
"284 225 OFFCURVE",
"353 377 OFFCURVE",
"370 499 CURVE",
"306 499 LINE",
"268 341 OFFCURVE",
"161 204 OFFCURVE",
"81 115 CURVE SMOOTH",
"29 57 OFFCURVE",
"-24 49 OFFCURVE",
"-24 11 CURVE SMOOTH",
"-24 -13 OFFCURVE",
"-3 -29 OFFCURVE",
"15 -29 CURVE SMOOTH"
);
},
{
closed = 1;
nodes = (
"377 72 OFFCURVE",
"403 81 OFFCURVE",
"452 102 CURVE",
"452 102 OFFCURVE",
"412 166 OFFCURVE",
"412 166 CURVE",
"380 152 OFFCURVE",
"357 149 OFFCURVE",
"335 149 CURVE SMOOTH",
"297 149 OFFCURVE",
"264 153 OFFCURVE",
"193 172 CURVE",
"193 172 OFFCURVE",
"147 105 OFFCURVE",
"147 105 CURVE",
"249 78 OFFCURVE",
"297 72 OFFCURVE",
"335 72 CURVE SMOOTH"
);
},
{
closed = 1;
nodes = (
"513 -28 OFFCURVE",
"536 -13 OFFCURVE",
"536 10 CURVE SMOOTH",
"536 39 OFFCURVE",
"509 62 OFFCURVE",
"477 134 CURVE SMOOTH",
"446 203 OFFCURVE",
"418 301 OFFCURVE",
"392 413 CURVE SMOOTH",
"377 475 OFFCURVE",
"404 592 OFFCURVE",
"339 592 CURVE SMOOTH",
"277 592 OFFCURVE",
"294 499 OFFCURVE",
"312 421 CURVE SMOOTH",
"333 332 OFFCURVE",
"365 211 OFFCURVE",
"403 110 CURVE SMOOTH",
"428 43 OFFCURVE",
"453 -28 OFFCURVE",
"495 -28 CURVE SMOOTH"
);
}
);
width = 570;
}
);
unicode = 0041;
},
{
color = 0;
glyphname = B;
lastChange = "2016-01-11 14:16:51 +0000";
layers = (
{
background = {
paths = (
{
closed = 1;
nodes = (
"232 495 OFFCURVE",
"151 477 OFFCURVE",
"114 453 CURVE",
"102 377 OFFCURVE",
"99 291 OFFCURVE",
"99 187 CURVE SMOOTH",
"99 109 OFFCURVE",
"110 28 OFFCURVE",
"121 -38 CURVE",
"204 -61 LINE",
"189 15 OFFCURVE",
"178 84 OFFCURVE",
"178 167 CURVE SMOOTH",
"178 245 OFFCURVE",
"179 323 OFFCURVE",
"184 401 CURVE",
"204 408 OFFCURVE",
"242 416 OFFCURVE",
"286 416 CURVE SMOOTH",
"349 416 OFFCURVE",
"410 386 OFFCURVE",
"410 312 CURVE SMOOTH",
"410 247 OFFCURVE",
"352 230 OFFCURVE",
"289 227 CURVE SMOOTH",
"239 227 OFFCURVE",
"189 230 OFFCURVE",
"139 242 CURVE",
"150 155 LINE",
"203 150 OFFCURVE",
"260 150 OFFCURVE",
"315 150 CURVE",
"388 150 OFFCURVE",
"491 210 OFFCURVE",
"491 312 CURVE SMOOTH",
"491 418 OFFCURVE",
"410 495 OFFCURVE",
"286 495 CURVE"
);
}
);
};
layerId = "D34FCF88-AF1D-4520-8FB0-498E26D42FBC";
name = Regular;
paths = (
{
closed = 1;
nodes = (
"409 -31 OFFCURVE",
"490 46 OFFCURVE",
"490 152 CURVE SMOOTH",
"490 254 OFFCURVE",
"387 314 OFFCURVE",
"314 314 CURVE",
"259 314 OFFCURVE",
"202 314 OFFCURVE",
"149 309 CURVE",
"138 222 LINE",
"188 234 OFFCURVE",
"238 237 OFFCURVE",
"288 237 CURVE SMOOTH",
"351 234 OFFCURVE",
"409 217 OFFCURVE",
"409 152 CURVE SMOOTH",
"409 78 OFFCURVE",
"348 48 OFFCURVE",
"285 48 CURVE SMOOTH",
"241 48 OFFCURVE",
"205 56 OFFCURVE",
"185 63 CURVE",
"178 108 OFFCURVE",
"177 219 OFFCURVE",
"177 297 CURVE SMOOTH",
"177 380 OFFCURVE",
"188 449 OFFCURVE",
"203 525 CURVE",
"120 502 LINE",
"109 436 OFFCURVE",
"98 355 OFFCURVE",
"98 277 CURVE SMOOTH",
"98 173 OFFCURVE",
"101 87 OFFCURVE",
"113 11 CURVE",
"150 -13 OFFCURVE",
"231 -31 OFFCURVE",
"285 -31 CURVE"
);
},
{
closed = 1;
nodes = (
"374 312 OFFCURVE",
"422 360 OFFCURVE",
"422 445 CURVE SMOOTH",
"422 537 OFFCURVE",
"343 592 OFFCURVE",
"257 592 CURVE SMOOTH",
"222 592 OFFCURVE",
"184 589 OFFCURVE",
"150 577 CURVE SMOOTH",
"113 564 OFFCURVE",
"58 540 OFFCURVE",
"58 514 CURVE SMOOTH",
"58 486 OFFCURVE",
"94 460 OFFCURVE",
"128 449 CURVE",
"153 497 LINE",
"188 507 OFFCURVE",
"222 513 OFFCURVE",
"257 513 CURVE SMOOTH",
"314 513 OFFCURVE",
"341 487 OFFCURVE",
"341 445 CURVE SMOOTH",
"341 383 OFFCURVE",
"289 323 OFFCURVE",
"220 297 CURVE",
"276 255 LINE"
);
}
);
width = 560;
}
);
unicode = 0042;
},
{
color = 0;
glyphname = C;
lastChange = "2016-01-11 18:30:50 +0000";
layers = (
{
background = {
paths = (
{
closed = 1;
nodes = (
"455 -28 OFFCURVE",
"581 46 OFFCURVE",
"581 131 CURVE SMOOTH",
"581 141 OFFCURVE",
"578 162 OFFCURVE",
"565 162 CURVE SMOOTH",
"553 162 OFFCURVE",
"520 131 OFFCURVE",
"481 105 CURVE SMOOTH",
"437 76 OFFCURVE",
"387 51 OFFCURVE",
"324 51 CURVE SMOOTH",
"225 51 OFFCURVE",
"145 119 OFFCURVE",
"145 231 CURVE SMOOTH",
"145 370 OFFCURVE",
"248 513 OFFCURVE",
"353 513 CURVE SMOOTH",
"467 513 OFFCURVE",
"472 423 OFFCURVE",
"520 423 CURVE SMOOTH",
"539 423 OFFCURVE",
"561 434 OFFCURVE",
"561 467 CURVE SMOOTH",
"561 523 OFFCURVE",
"484 592 OFFCURVE",
"355 592 CURVE SMOOTH",
"178 592 OFFCURVE",
"64 379 OFFCURVE",
"64 231 CURVE SMOOTH",
"64 85 OFFCURVE",
"162 -28 OFFCURVE",
"326 -28 CURVE SMOOTH"
);
}
);
};
layerId = "D34FCF88-AF1D-4520-8FB0-498E26D42FBC";
name = Regular;
paths = (
{
closed = 1;
nodes = (
"450 -28 OFFCURVE",
"571 46 OFFCURVE",
"571 131 CURVE SMOOTH",
"571 141 OFFCURVE",
"568 162 OFFCURVE",
"555 162 CURVE SMOOTH",
"543 162 OFFCURVE",
"512 131 OFFCURVE",
"474 105 CURVE SMOOTH",
"432 76 OFFCURVE",
"384 51 OFFCURVE",
"324 51 CURVE SMOOTH",
"225 51 OFFCURVE",
"145 119 OFFCURVE",
"145 231 CURVE SMOOTH",
"145 370 OFFCURVE",
"248 513 OFFCURVE",
"353 513 CURVE SMOOTH",
"460 513 OFFCURVE",
"462 423 OFFCURVE",
"510 423 CURVE SMOOTH",
"529 423 OFFCURVE",
"551 434 OFFCURVE",
"551 467 CURVE SMOOTH",
"551 523 OFFCURVE",
"478 592 OFFCURVE",
"355 592 CURVE SMOOTH",
"178 592 OFFCURVE",
"64 379 OFFCURVE",
"64 231 CURVE SMOOTH",
"64 85 OFFCURVE",
"162 -28 OFFCURVE",
"326 -28 CURVE SMOOTH"
);
}
);
width = 627;
}
);
unicode = 0043;
},
{
color = 0;
glyphname = D;
lastChange = "2016-01-11 12:32:24 +0000";
layers = (
{
background = {
paths = (
{
closed = 1;
nodes = (
"478 -26 OFFCURVE",
"590 85 OFFCURVE",
"590 232 CURVE SMOOTH",
"590 432 OFFCURVE",
"479 583 OFFCURVE",
"312 591 CURVE SMOOTH",
"246 594 LINE SMOOTH",
"137 599 OFFCURVE",
"64 562 OFFCURVE",
"64 540 CURVE SMOOTH",
"64 529 OFFCURVE",
"70 519 OFFCURVE",
"76 512 CURVE SMOOTH",
"91 498 OFFCURVE",
"114 486 OFFCURVE",
"112 455 CURVE SMOOTH",
"91 46 LINE",
"148 -9 OFFCURVE",
"214 -26 OFFCURVE",
"303 -26 CURVE"
);
},
{
closed = 1;
nodes = (
"191 294 LINE SMOOTH",
"194 388 OFFCURVE",
"206 463 OFFCURVE",
"219 547 CURVE",
"136 515 LINE",
"312 512 LINE SMOOTH",
"446 510 OFFCURVE",
"509 370 OFFCURVE",
"509 232 CURVE SMOOTH",
"509 119 OFFCURVE",
"425 77 OFFCURVE",
"344 57 CURVE SMOOTH",
"330 54 OFFCURVE",
"317 53 OFFCURVE",
"303 53 CURVE SMOOTH",
"241 53 OFFCURVE",
"185 67 OFFCURVE",
"110 109 CURVE",
"182 18 LINE"
);
}
);
};
layerId = "D34FCF88-AF1D-4520-8FB0-498E26D42FBC";
name = Regular;
paths = (
{
closed = 1;
nodes = (
"478 -26 OFFCURVE",
"590 85 OFFCURVE",
"590 232 CURVE SMOOTH",
"590 442 OFFCURVE",
"479 583 OFFCURVE",
"312 591 CURVE SMOOTH",
"246 594 LINE SMOOTH",
"137 599 OFFCURVE",
"64 562 OFFCURVE",
"64 540 CURVE SMOOTH",
"64 529 OFFCURVE",
"70 519 OFFCURVE",
"76 512 CURVE SMOOTH",
"91 498 OFFCURVE",
"114 486 OFFCURVE",
"112 455 CURVE SMOOTH",
"90 26 LINE",
"144 -7 OFFCURVE",
"214 -26 OFFCURVE",
"303 -26 CURVE"
);
},
{
closed = 1;
nodes = (
"191 294 LINE SMOOTH",
"194 388 OFFCURVE",
"206 463 OFFCURVE",
"219 547 CURVE",
"136 515 LINE",
"292 512 LINE SMOOTH",
"447 509 OFFCURVE",
"509 370 OFFCURVE",
"509 232 CURVE SMOOTH",
"509 115 OFFCURVE",
"414 53 OFFCURVE",
"303 53 CURVE SMOOTH",
"241 53 OFFCURVE",
"185 67 OFFCURVE",
"110 109 CURVE",
"182 18 LINE"
);
}
);
width = 660;
}
);
unicode = 0044;
},
{
color = 1;
glyphname = E;
lastChange = "2016-01-11 18:33:22 +0000";
layers = (
{
background = {
paths = (
{
closed = 1;
nodes = (
"299 -28 OFFCURVE",
"364 -13 OFFCURVE",
"390 1 CURVE SMOOTH",
"407 10 OFFCURVE",
"416 22 OFFCURVE",
"416 40 CURVE SMOOTH",
"416 63 OFFCURVE",
"401 74 OFFCURVE",
"383 74 CURVE SMOOTH",
"349 74 OFFCURVE",
"308 51 OFFCURVE",
"253 51 CURVE SMOOTH",
"210 51 OFFCURVE",
"157 73 OFFCURVE",
"157 128 CURVE SMOOTH",
"157 151 OFFCURVE",
"160 185 OFFCURVE",
"165 210 CURVE SMOOTH",
"172 245 OFFCURVE",
"185 249 OFFCURVE",
"300 259 CURVE SMOOTH",
"333 262 OFFCURVE",
"349 276 OFFCURVE",
"349 299 CURVE SMOOTH",
"349 326 OFFCURVE",
"333 341 OFFCURVE",
"300 341 CURVE SMOOTH",
"265 341 OFFCURVE",
"221 334 OFFCURVE",
"177 324 CURVE",
"177 485 LINE SMOOTH",
"177 500 OFFCURVE",
"182 503 OFFCURVE",
"194 503 CURVE SMOOTH",
"359 498 LINE SMOOTH",
"385 497 OFFCURVE",
"399 517 OFFCURVE",
"399 536 CURVE SMOOTH",
"399 554 OFFCURVE",
"392 574 OFFCURVE",
"359 575 CURVE SMOOTH",
"163 580 LINE SMOOTH",
"125 580 OFFCURVE",
"88 578 OFFCURVE",
"88 529 CURVE",
"88 499 OFFCURVE",
"98 485 OFFCURVE",
"98 453 CURVE",
"98 286 LINE SMOOTH",
"98 245 OFFCURVE",
"76 197 OFFCURVE",
"76 108 CURVE SMOOTH",
"76 35 OFFCURVE",
"148 -28 OFFCURVE",
"253 -28 CURVE SMOOTH"
);
}
);
};
layerId = "D34FCF88-AF1D-4520-8FB0-498E26D42FBC";
name = Regular;
paths = (
{
closed = 1;
nodes = (
"299 -28 OFFCURVE",
"364 -13 OFFCURVE",
"390 1 CURVE SMOOTH",
"407 10 OFFCURVE",
"416 22 OFFCURVE",
"416 40 CURVE SMOOTH",
"416 63 OFFCURVE",
"401 74 OFFCURVE",
"383 74 CURVE SMOOTH",
"349 74 OFFCURVE",
"308 51 OFFCURVE",
"253 51 CURVE SMOOTH",
"210 51 OFFCURVE",
"157 73 OFFCURVE",
"157 128 CURVE SMOOTH",
"157 151 OFFCURVE",
"160 185 OFFCURVE",
"165 210 CURVE SMOOTH",
"172 246 OFFCURVE",
"185 251 OFFCURVE",
"300 261 CURVE SMOOTH",
"333 264 OFFCURVE",
"349 277 OFFCURVE",
"349 299 CURVE SMOOTH",
"349 325 OFFCURVE",
"333 340 OFFCURVE",
"300 340 CURVE SMOOTH",
"265 340 OFFCURVE",
"221 333 OFFCURVE",
"177 323 CURVE",
"177 485 LINE SMOOTH",
"177 500 OFFCURVE",
"182 503 OFFCURVE",
"194 503 CURVE SMOOTH",
"359 498 LINE SMOOTH",
"385 497 OFFCURVE",
"399 517 OFFCURVE",
"399 536 CURVE SMOOTH",
"399 554 OFFCURVE",
"392 574 OFFCURVE",
"359 575 CURVE SMOOTH",
"163 580 LINE SMOOTH",
"125 580 OFFCURVE",
"88 578 OFFCURVE",
"88 529 CURVE",
"88 499 OFFCURVE",
"98 485 OFFCURVE",
"98 453 CURVE",
"98 286 LINE SMOOTH",
"98 245 OFFCURVE",
"76 197 OFFCURVE",
"76 108 CURVE SMOOTH",
"76 35 OFFCURVE",
"148 -28 OFFCURVE",
"253 -28 CURVE SMOOTH"
);
}
);
width = 471;
}
);
unicode = 0045;
},
{
color = 0;
glyphname = F;
lastChange = "2016-01-11 18:34:47 +0000";
layers = (
{
background = {
paths = (
{
closed = 1;
nodes = (
"299 -28 OFFCURVE",
"364 -13 OFFCURVE",
"390 1 CURVE SMOOTH",
"407 10 OFFCURVE",
"416 22 OFFCURVE",
"416 40 CURVE SMOOTH",
"416 63 OFFCURVE",
"401 74 OFFCURVE",
"383 74 CURVE SMOOTH",
"349 74 OFFCURVE",
"308 51 OFFCURVE",
"253 51 CURVE SMOOTH",
"210 51 OFFCURVE",
"157 73 OFFCURVE",
"157 128 CURVE SMOOTH",
"157 151 OFFCURVE",
"160 185 OFFCURVE",
"165 210 CURVE SMOOTH",
"172 245 OFFCURVE",
"185 249 OFFCURVE",
"300 259 CURVE SMOOTH",
"333 262 OFFCURVE",
"349 276 OFFCURVE",
"349 299 CURVE SMOOTH",
"349 326 OFFCURVE",
"333 341 OFFCURVE",
"300 341 CURVE SMOOTH",
"265 341 OFFCURVE",
"221 334 OFFCURVE",
"177 324 CURVE",
"177 485 LINE SMOOTH",
"177 500 OFFCURVE",
"182 503 OFFCURVE",
"194 503 CURVE SMOOTH",
"359 498 LINE SMOOTH",
"385 497 OFFCURVE",
"399 517 OFFCURVE",
"399 536 CURVE SMOOTH",
"399 554 OFFCURVE",
"392 574 OFFCURVE",
"359 575 CURVE SMOOTH",
"163 580 LINE SMOOTH",
"125 580 OFFCURVE",
"88 578 OFFCURVE",
"88 529 CURVE",
"88 499 OFFCURVE",
"98 485 OFFCURVE",
"98 453 CURVE",
"98 286 LINE SMOOTH",
"98 245 OFFCURVE",
"76 197 OFFCURVE",
"76 108 CURVE SMOOTH",
"76 35 OFFCURVE",
"148 -28 OFFCURVE",
"253 -28 CURVE SMOOTH"
);
}
);
};
layerId = "D34FCF88-AF1D-4520-8FB0-498E26D42FBC";
name = Regular;
paths = (
{
closed = 1;
nodes = (
"161 -19 OFFCURVE",
"163 1 OFFCURVE",
"166 42 CURVE SMOOTH",
"176 276 LINE",
"183 520 LINE",
"134 495 LINE",
"389 495 LINE SMOOTH",
"402 495 OFFCURVE",
"409 504 OFFCURVE",
"409 513 CURVE SMOOTH",
"409 541 OFFCURVE",
"381 575 OFFCURVE",
"249 575 CURVE SMOOTH",
"196 575 LINE",
"158 575 OFFCURVE",
"103 567 OFFCURVE",
"77 560 CURVE SMOOTH",
"70 558 OFFCURVE",
"63 553 OFFCURVE",
"63 538 CURVE SMOOTH",
"63 511 OFFCURVE",
"97 504 OFFCURVE",
"97 442 CURVE SMOOTH",
"97 286 LINE SMOOTH",
"97 178 OFFCURVE",
"74 73 OFFCURVE",
"74 40 CURVE SMOOTH",
"74 11 OFFCURVE",
"101 -19 OFFCURVE",
"136 -19 CURVE SMOOTH"
);
},
{
closed = 1;
nodes = (
"288 231 LINE SMOOTH",
"348 238 OFFCURVE",
"364 244 OFFCURVE",
"364 264 CURVE SMOOTH",
"364 284 OFFCURVE",
"348 313 OFFCURVE",
"324 311 CURVE SMOOTH",
"237 303 LINE SMOOTH",
"199 300 OFFCURVE",
"171 304 OFFCURVE",
"145 311 CURVE",
"131 212 LINE"
);
}
);
width = 444;
}
);
unicode = 0046;
},
{
color = 1;
glyphname = G;
lastChange = "2015-11-23 12:14:14 +0000";
layers = (
{
background = {
paths = (
{
closed = 1;
nodes = (
"622 -22 OFFCURVE",
"652 -3 OFFCURVE",
"652 21 CURVE SMOOTH",
"653 68 OFFCURVE",
"640 116 OFFCURVE",
"639 168 CURVE SMOOTH",
"639 271 LINE SMOOTH",
"640 387 OFFCURVE",
"678 503 OFFCURVE",
"677 538 CURVE SMOOTH",
"677 562 OFFCURVE",
"660 587 OFFCURVE",
"631 587 CURVE SMOOTH",
"599 587 OFFCURVE",
"589 567 OFFCURVE",
"585 526 CURVE SMOOTH",
"560 276 LINE",
"555 43 LINE SMOOTH",
"554 7 OFFCURVE",
"569 -22 OFFCURVE",
"601 -22 CURVE SMOOTH"
);
},
{
closed = 1;
nodes = (
"251 -22 OFFCURVE",
"268 -1 OFFCURVE",
"268 43 CURVE SMOOTH",
"268 69 OFFCURVE",
"263 125 OFFCURVE",
"263 153 CURVE SMOOTH",
"263 273 LINE",
"273 513 LINE SMOOTH",
"275 560 OFFCURVE",
"259 572 OFFCURVE",
"227 572 CURVE SMOOTH",
"203 572 OFFCURVE",
"178 557 OFFCURVE",
"178 528 CURVE SMOOTH",
"183 337 LINE SMOOTH",
"183 318 OFFCURVE",
"169 306 OFFCURVE",
"169 284 CURVE SMOOTH",
"169 265 OFFCURVE",
"185 254 OFFCURVE",
"184 237 CURVE",
"168 21 LINE SMOOTH",
"166 -6 OFFCURVE",
"197 -22 OFFCURVE",
"221 -22 CURVE SMOOTH"
);
},
{
closed = 1;
nodes = (
"504 228 OFFCURVE",
"548 236 OFFCURVE",
"581 250 CURVE",
"581 250 OFFCURVE",
"591 331 OFFCURVE",
"591 331 CURVE",
"552 313 OFFCURVE",
"502 305 OFFCURVE",
"437 305 CURVE SMOOTH",
"410 305 OFFCURVE",
"297 314 OFFCURVE",
"243 323 CURVE",
"243 323 OFFCURVE",
"232 245 OFFCURVE",
"232 245 CURVE",
"298 235 OFFCURVE",
"417 228 OFFCURVE",
"460 228 CURVE SMOOTH"
);
}
);
};
layerId = "D34FCF88-AF1D-4520-8FB0-498E26D42FBC";
name = Regular;
paths = (
{
closed = 1;
nodes = (
"407 -28 OFFCURVE",
"473 -11 OFFCURVE",
"510 5 CURVE SMOOTH",
"548 21 OFFCURVE",
"567 37 OFFCURVE",
"559 90 CURVE SMOOTH",
"529 292 LINE",
"494 239 LINE",
"541 248 OFFCURVE",
"575 263 OFFCURVE",
"575 291 CURVE SMOOTH",
"575 321 OFFCURVE",
"554 331 OFFCURVE",
"536 331 CURVE SMOOTH",
"511 331 OFFCURVE",
"476 309 OFFCURVE",
"437 309 CURVE SMOOTH",
"410 309 OFFCURVE",
"400 313 OFFCURVE",
"378 313 CURVE SMOOTH",
"340 313 OFFCURVE",
"327 294 OFFCURVE",
"327 275 CURVE SMOOTH",
"327 247 OFFCURVE",
"363 233 OFFCURVE",
"420 233 CURVE SMOOTH",
"446 233 OFFCURVE",
"477 235 OFFCURVE",
"510 240 CURVE",
"451 275 LINE",
"478 104 LINE SMOOTH",
"482 79 OFFCURVE",
"459 72 OFFCURVE",
"430 64 CURVE SMOOTH",
"404 57 OFFCURVE",
"374 51 OFFCURVE",
"354 51 CURVE SMOOTH",
"237 51 OFFCURVE",
"141 133 OFFCURVE",
"141 269 CURVE SMOOTH",
"141 381 OFFCURVE",
"246 513 OFFCURVE",
"333 513 CURVE SMOOTH",
"408 513 OFFCURVE",
"426 490 OFFCURVE",
"455 490 CURVE SMOOTH",
"473 490 OFFCURVE",
"494 501 OFFCURVE",
"494 533 CURVE SMOOTH",
"494 580 OFFCURVE",
"404 592 OFFCURVE",
"335 592 CURVE SMOOTH",
"192 592 OFFCURVE",
"60 410 OFFCURVE",
"60 269 CURVE SMOOTH",
"60 102 OFFCURVE",
"193 -28 OFFCURVE",
"356 -28 CURVE SMOOTH"
);
}
);
width = 626;
}
);
unicode = 0047;
},
{
color = 1;
glyphname = H;
lastChange = "2015-11-23 10:31:25 +0000";
layers = (
{
background = {
paths = (
{
closed = 1;
nodes = (
"515 579 CURVE SMOOTH",
"490 579 OFFCURVE",
"488 559 OFFCURVE",
"485 518 CURVE SMOOTH",
"475 279 LINE",
"468 40 LINE SMOOTH",
"467 4 OFFCURVE",
"490 -19 OFFCURVE",
"524 -19 CURVE SMOOTH",
"541 -19 OFFCURVE",
"565 -3 OFFCURVE",
"565 18 CURVE SMOOTH",
"565 65 OFFCURVE",
"554 119 OFFCURVE",
"554 171 CURVE SMOOTH",
"554 274 LINE SMOOTH",
"554 382 OFFCURVE",
"577 487 OFFCURVE",
"577 520 CURVE SMOOTH",
"577 549 OFFCURVE",
"550 579 OFFCURVE"
);
},
{
closed = 1;
nodes = (
"139 -19 CURVE SMOOTH",
"164 -19 OFFCURVE",
"166 1 OFFCURVE",
"169 42 CURVE SMOOTH",
"179 281 LINE",
"186 520 LINE SMOOTH",
"187 556 OFFCURVE",
"164 579 OFFCURVE",
"130 579 CURVE SMOOTH",
"113 579 OFFCURVE",
"89 563 OFFCURVE",
"89 542 CURVE SMOOTH",
"89 495 OFFCURVE",
"100 441 OFFCURVE",
"100 389 CURVE SMOOTH",
"100 286 LINE SMOOTH",
"100 178 OFFCURVE",
"77 73 OFFCURVE",
"77 40 CURVE SMOOTH",
"77 11 OFFCURVE",
"104 -19 OFFCURVE"
);
}
);
};
layerId = "D34FCF88-AF1D-4520-8FB0-498E26D42FBC";
name = Regular;
paths = (
{
closed = 1;
nodes = (
"537 -19 OFFCURVE",
"567 0 OFFCURVE",
"567 24 CURVE SMOOTH",
"568 71 OFFCURVE",
"555 119 OFFCURVE",
"554 171 CURVE SMOOTH",
"554 274 LINE SMOOTH",
"555 390 OFFCURVE",
"593 506 OFFCURVE",
"592 541 CURVE SMOOTH",
"592 565 OFFCURVE",
"575 590 OFFCURVE",
"546 590 CURVE SMOOTH",
"514 590 OFFCURVE",
"504 570 OFFCURVE",
"500 529 CURVE SMOOTH",
"475 279 LINE",
"470 46 LINE SMOOTH",
"469 10 OFFCURVE",
"484 -19 OFFCURVE",
"516 -19 CURVE SMOOTH"
);
},
{
closed = 1;
nodes = (
"166 -19 OFFCURVE",
"183 2 OFFCURVE",
"183 46 CURVE SMOOTH",
"183 72 OFFCURVE",
"178 128 OFFCURVE",
"178 156 CURVE SMOOTH",
"178 276 LINE",
"188 516 LINE SMOOTH",
"190 563 OFFCURVE",
"174 575 OFFCURVE",
"142 575 CURVE SMOOTH",
"118 575 OFFCURVE",
"93 560 OFFCURVE",
"93 531 CURVE SMOOTH",
"98 340 LINE SMOOTH",
"98 321 OFFCURVE",
"84 309 OFFCURVE",
"84 287 CURVE SMOOTH",
"84 268 OFFCURVE",
"100 257 OFFCURVE",
"99 240 CURVE",
"83 24 LINE SMOOTH",
"81 -3 OFFCURVE",
"112 -19 OFFCURVE",
"136 -19 CURVE SMOOTH"
);
},
{
closed = 1;
nodes = (
"419 231 OFFCURVE",
"463 239 OFFCURVE",
"496 253 CURVE",
"496 253 OFFCURVE",
"506 334 OFFCURVE",
"506 334 CURVE",
"467 316 OFFCURVE",
"417 308 OFFCURVE",
"352 308 CURVE SMOOTH",
"325 308 OFFCURVE",
"212 317 OFFCURVE",
"158 326 CURVE",
"158 326 OFFCURVE",
"147 248 OFFCURVE",
"147 248 CURVE",
"213 238 OFFCURVE",
"332 231 OFFCURVE",
"375 231 CURVE SMOOTH"
);
}
);
width = 664;
}
);
unicode = 0048;
},
{
color = 1;
glyphname = I;
lastChange = "2016-01-04 16:42:02 +0000";
layers = (
{
layerId = "D34FCF88-AF1D-4520-8FB0-498E26D42FBC";
name = Regular;
paths = (
{
closed = 1;
nodes = (
"157 -19 OFFCURVE",
"181 -3 OFFCURVE",
"181 18 CURVE SMOOTH",
"181 65 OFFCURVE",
"170 119 OFFCURVE",
"170 171 CURVE SMOOTH",
"170 274 LINE SMOOTH",
"170 382 OFFCURVE",
"193 487 OFFCURVE",
"193 520 CURVE SMOOTH",
"193 549 OFFCURVE",
"166 579 OFFCURVE",
"131 579 CURVE SMOOTH",
"106 579 OFFCURVE",
"104 559 OFFCURVE",
"101 518 CURVE SMOOTH",
"91 279 LINE",
"84 40 LINE SMOOTH",
"83 4 OFFCURVE",
"106 -19 OFFCURVE",
"140 -19 CURVE SMOOTH"
);
}
);
width = 265;
}
);
unicode = 0049;
},
{
color = 0;
glyphname = J;
lastChange = "2016-01-11 13:24:26 +0000";
layers = (
{
background = {
paths = (
{
closed = 1;
nodes = (
"49 130 CURVE",
"49 110 OFFCURVE",
"53 85 OFFCURVE",
"64 70 CURVE",
"78 53 OFFCURVE",
"140 -9 OFFCURVE",
"153 -18 CURVE",
"159 -23 OFFCURVE",
"201 -33 OFFCURVE",
"212 -33 CURVE",
"265 -33 OFFCURVE",
"353 2 OFFCURVE",
"373 55 CURVE",
"377 66 OFFCURVE",
"388 117 OFFCURVE",
"388 129 CURVE",
"389 151 OFFCURVE",
"387 327 OFFCURVE",
"388 349 CURVE",
"389 361 OFFCURVE",
"402 455 OFFCURVE",
"403 467 CURVE",
"403 469 OFFCURVE",
"404 505 OFFCURVE",
"404 518 CURVE",
"404 526 OFFCURVE",
"403 562 OFFCURVE",
"403 569 CURVE",
"392 586 OFFCURVE",
"369 600 OFFCURVE",
"350 600 CURVE",
"320 600 OFFCURVE",
"330 537 OFFCURVE",
"329 526 CURVE",
"328 514 OFFCURVE",
"315 420 OFFCURVE",
"314 408 CURVE",
"311 366 OFFCURVE",
"301 171 OFFCURVE",
"300 129 CURVE",
"291 98 OFFCURVE",
"256 55 OFFCURVE",
"220 55 CURVE",
"106 55 OFFCURVE",
"122 159 OFFCURVE",
"72 159 CURVE",
"55 159 OFFCURVE",
"49 144 OFFCURVE"
);
}
);
};
layerId = "D34FCF88-AF1D-4520-8FB0-498E26D42FBC";
name = Regular;
paths = (
{
closed = 1;
nodes = (
"389 274 LINE SMOOTH",
"389 381 OFFCURVE",
"400 487 OFFCURVE",
"400 520 CURVE SMOOTH",
"400 549 OFFCURVE",
"373 579 OFFCURVE",
"338 579 CURVE SMOOTH",
"313 579 OFFCURVE",
"311 559 OFFCURVE",
"308 518 CURVE SMOOTH",
"308 171 LINE SMOOTH",
"308 101 OFFCURVE",
"283 51 OFFCURVE",
"218 51 CURVE SMOOTH",
"122 51 OFFCURVE",
"138 159 OFFCURVE",
"78 159 CURVE SMOOTH",
"61 159 OFFCURVE",
"42 148 OFFCURVE",
"42 115 CURVE SMOOTH",
"42 51 OFFCURVE",
"107 -28 OFFCURVE",
"216 -28 CURVE SMOOTH",
"341 -28 OFFCURVE",
"389 50 OFFCURVE",
"389 172 CURVE"
);
}
);
width = 484;
}
);
unicode = 004A;
},
{
color = 0;
glyphname = K;
lastChange = "2016-01-07 09:16:20 +0000";
layers = (
{
background = {
paths = (
{
closed = 1;
nodes = (
"389 23 LINE SMOOTH",
"415 -7 OFFCURVE",
"433 -19 OFFCURVE",
"463 -19 CURVE SMOOTH",
"486 -19 OFFCURVE",
"502 -7 OFFCURVE",
"502 1 CURVE SMOOTH",
"502 11 OFFCURVE",
"494 27 OFFCURVE",
"475 49 CURVE SMOOTH",
"378 159 LINE SMOOTH",
"356 184 OFFCURVE",
"332 218 OFFCURVE",
"319 241 CURVE",
"303 210 LINE",
"400 267 OFFCURVE",
"451 317 OFFCURVE",
"451 405 CURVE SMOOTH",
"451 522 OFFCURVE",
"349 592 OFFCURVE",
"237 592 CURVE SMOOTH",
"184 592 OFFCURVE",
"143 585 OFFCURVE",
"97 564 CURVE",
"97 279 LINE",
"94 40 LINE SMOOTH",
"94 4 OFFCURVE",
"115 -19 OFFCURVE",
"148 -19 CURVE SMOOTH",
"164 -19 OFFCURVE",
"187 -3 OFFCURVE",
"187 18 CURVE SMOOTH",
"187 65 OFFCURVE",
"176 119 OFFCURVE",
"176 171 CURVE SMOOTH",
"176 274 LINE",
"179 520 LINE",
"153 497 LINE",
"181 507 OFFCURVE",
"209 513 OFFCURVE",
"237 513 CURVE SMOOTH",
"327 513 OFFCURVE",
"370 472 OFFCURVE",
"370 405 CURVE SMOOTH",
"370 295 OFFCURVE",
"231 287 OFFCURVE",
"231 236 CURVE SMOOTH",
"231 216 OFFCURVE",
"274 160 OFFCURVE",
"311 116 CURVE SMOOTH"
);
},
{
closed = 1;
nodes = (
"606 -39 OFFCURVE",
"625 -25 OFFCURVE",
"625 -10 CURVE SMOOTH",
"625 4 OFFCURVE",
"609 26 OFFCURVE",
"558 74 CURVE SMOOTH",
"388 244 LINE SMOOTH",
"365 267 OFFCURVE",
"333 279 OFFCURVE",
"305 290 CURVE",
"306 254 LINE",
"418 377 LINE SMOOTH",
"457 419 OFFCURVE",
"488 473 OFFCURVE",
"488 521 CURVE SMOOTH",
"488 545 OFFCURVE",
"478 559 OFFCURVE",
"461 559 CURVE SMOOTH",
"440 559 OFFCURVE",
"431 546 OFFCURVE",
"415 523 CURVE SMOOTH",
"387 481 OFFCURVE",
"381 450 OFFCURVE",
"330 396 CURVE SMOOTH",
"238 298 LINE SMOOTH",
"226 285 OFFCURVE",
"213 273 OFFCURVE",
"213 258 CURVE SMOOTH",
"213 244 OFFCURVE",
"224 236 OFFCURVE",
"242 230 CURVE SMOOTH",
"286 215 LINE SMOOTH",
"314 205 OFFCURVE",
"341 176 OFFCURVE",
"374 142 CURVE SMOOTH",
"481 35 LINE SMOOTH",
"512 3 OFFCURVE",
"528 -39 OFFCURVE",
"579 -39 CURVE SMOOTH"
);
}
);
};
layerId = "D34FCF88-AF1D-4520-8FB0-498E26D42FBC";
name = Regular;
paths = (
{
closed = 1;
nodes = (
"586 -19 OFFCURVE",
"605 -5 OFFCURVE",
"605 10 CURVE SMOOTH",
"605 24 OFFCURVE",
"588 44 OFFCURVE",
"538 94 CURVE SMOOTH",
"388 244 LINE SMOOTH",
"365 267 OFFCURVE",
"333 279 OFFCURVE",
"305 290 CURVE",
"306 254 LINE",
"436 397 LINE SMOOTH",
"474 439 OFFCURVE",
"506 493 OFFCURVE",
"506 541 CURVE SMOOTH",
"506 565 OFFCURVE",
"496 579 OFFCURVE",
"479 579 CURVE SMOOTH",
"458 579 OFFCURVE",
"449 566 OFFCURVE",
"433 543 CURVE SMOOTH",
"405 501 OFFCURVE",
"400 471 OFFCURVE",
"348 416 CURVE SMOOTH",
"238 298 LINE SMOOTH",
"227 286 OFFCURVE",
"213 273 OFFCURVE",
"213 258 CURVE SMOOTH",
"213 244 OFFCURVE",
"224 236 OFFCURVE",
"242 230 CURVE SMOOTH",
"286 215 LINE SMOOTH",
"314 205 OFFCURVE",
"340 176 OFFCURVE",
"374 142 CURVE SMOOTH",
"461 55 LINE SMOOTH",
"493 23 OFFCURVE",
"508 -19 OFFCURVE",
"559 -19 CURVE SMOOTH"
);
},
{
closed = 1;
nodes = (
"110 579 OFFCURVE",
"86 563 OFFCURVE",
"86 542 CURVE SMOOTH",
"86 495 OFFCURVE",
"97 441 OFFCURVE",
"97 389 CURVE SMOOTH",
"97 286 LINE SMOOTH",
"97 178 OFFCURVE",
"89 73 OFFCURVE",
"89 40 CURVE SMOOTH",
"89 11 OFFCURVE",
"116 -19 OFFCURVE",
"151 -19 CURVE SMOOTH",
"176 -19 OFFCURVE",
"182 2 OFFCURVE",
"181 42 CURVE SMOOTH",
"176 281 LINE",
"183 520 LINE SMOOTH",
"184 555 OFFCURVE",
"161 579 OFFCURVE",
"127 579 CURVE SMOOTH"
);
}
);
width = 617;
}
);
unicode = 004B;
},
{
color = 0;
glyphname = L;
lastChange = "2016-01-11 18:35:35 +0000";
layers = (
{
background = {
paths = (
{
closed = 1;
nodes = (
"299 -28 OFFCURVE",
"364 -13 OFFCURVE",
"390 1 CURVE SMOOTH",
"407 10 OFFCURVE",
"416 22 OFFCURVE",
"416 40 CURVE SMOOTH",
"416 63 OFFCURVE",
"401 74 OFFCURVE",
"383 74 CURVE SMOOTH",
"349 74 OFFCURVE",
"308 51 OFFCURVE",
"253 51 CURVE SMOOTH",
"210 51 OFFCURVE",
"157 73 OFFCURVE",
"157 128 CURVE SMOOTH",
"157 151 OFFCURVE",
"160 185 OFFCURVE",
"165 210 CURVE SMOOTH",
"172 245 OFFCURVE",
"185 249 OFFCURVE",
"300 259 CURVE SMOOTH",
"333 262 OFFCURVE",
"349 276 OFFCURVE",
"349 299 CURVE SMOOTH",
"349 326 OFFCURVE",
"333 341 OFFCURVE",
"300 341 CURVE SMOOTH",
"265 341 OFFCURVE",
"221 334 OFFCURVE",
"177 324 CURVE",
"177 485 LINE SMOOTH",
"177 500 OFFCURVE",
"182 503 OFFCURVE",
"194 503 CURVE SMOOTH",
"359 498 LINE SMOOTH",
"385 497 OFFCURVE",
"399 517 OFFCURVE",
"399 536 CURVE SMOOTH",
"399 554 OFFCURVE",
"392 574 OFFCURVE",
"359 575 CURVE SMOOTH",
"163 580 LINE SMOOTH",
"125 580 OFFCURVE",
"88 578 OFFCURVE",
"88 529 CURVE",
"88 499 OFFCURVE",
"98 485 OFFCURVE",
"98 453 CURVE",
"98 286 LINE SMOOTH",
"98 245 OFFCURVE",
"76 197 OFFCURVE",
"76 108 CURVE SMOOTH",
"76 35 OFFCURVE",
"148 -28 OFFCURVE",
"253 -28 CURVE SMOOTH"
);
}
);
};
layerId = "D34FCF88-AF1D-4520-8FB0-498E26D42FBC";
name = Regular;
paths = (
{
closed = 1;
nodes = (
"89 166 OFFCURVE",
"77 108 OFFCURVE",
"77 61 CURVE SMOOTH",
"77 12 OFFCURVE",
"145 -11 OFFCURVE",
"168 -11 CURVE SMOOTH",
"195 -11 OFFCURVE",
"238 0 OFFCURVE",
"268 0 CURVE SMOOTH",
"350 0 LINE SMOOTH",
"371 0 OFFCURVE",
"388 16 OFFCURVE",
"388 27 CURVE SMOOTH",
"388 42 OFFCURVE",
"373 77 OFFCURVE",
"345 77 CURVE SMOOTH",
"255 77 LINE",
"143 67 LINE",
"170 18 LINE",
"170 274 LINE SMOOTH",
"170 382 OFFCURVE",
"183 487 OFFCURVE",
"183 520 CURVE SMOOTH",
"183 549 OFFCURVE",
"162 579 OFFCURVE",
"141 579 CURVE SMOOTH",
"99 579 OFFCURVE",
"91 520 OFFCURVE",
"91 488 CURVE SMOOTH",
"91 279 LINE"
);
}
);
width = 425;
}
);
unicode = 004C;
},
{
color = 0;
glyphname = M;
lastChange = "2016-01-11 14:28:00 +0000";
layers = (
{
background = {
paths = (
{
closed = 1;
nodes = (
"92 12 OFFCURVE",
"103 -19 OFFCURVE",
"139 -19 CURVE SMOOTH",
"166 -19 OFFCURVE",
"176 5 OFFCURVE",
"179 23 CURVE SMOOTH",
"212 197 LINE",
"239 463 LINE",
"192 469 LINE",
"359 196 LINE SMOOTH",
"385 154 OFFCURVE",
"410 128 OFFCURVE",
"442 128 CURVE SMOOTH",
"470 128 OFFCURVE",
"498 164 OFFCURVE",
"522 205 CURVE SMOOTH",
"621 376 LINE",
"602 487 LINE",
"605 403 OFFCURVE",
"617 297 OFFCURVE",
"642 207 CURVE SMOOTH",
"669 114 OFFCURVE",
"694 53 OFFCURVE",
"715 16 CURVE SMOOTH",
"733 -16 OFFCURVE",
"758 -23 OFFCURVE",
"782 -23 CURVE SMOOTH",
"799 -23 OFFCURVE",
"820 -16 OFFCURVE",
"820 7 CURVE SMOOTH",
"820 27 OFFCURVE",
"779 90 OFFCURVE",
"748 153 CURVE SMOOTH",
"724 205 OFFCURVE",
"705 253 OFFCURVE",
"700 288 CURVE SMOOTH",
"664 554 LINE SMOOTH",
"661 579 OFFCURVE",
"646 593 OFFCURVE",
"626 593 CURVE SMOOTH",
"602 593 OFFCURVE",
"596 579 OFFCURVE",
"589 540 CURVE SMOOTH",
"582 501 OFFCURVE",
"570 443 OFFCURVE",
"544 391 CURVE SMOOTH",
"515 321 OFFCURVE",
"474 257 OFFCURVE",
"420 197 CURVE",
"466 203 LINE",
"428 246 OFFCURVE",
"398 293 OFFCURVE",
"364 350 CURVE",
"249 529 LINE SMOOTH",
"228 563 OFFCURVE",
"210 576 OFFCURVE",
"190 576 CURVE SMOOTH",
"175 576 OFFCURVE",
"161 569 OFFCURVE",
"154 561 CURVE",
"144 268 LINE",
"98 44 LINE"
);
}
);
};
guideLines = (
{
position = "{741, 325}";
}
);
layerId = "D34FCF88-AF1D-4520-8FB0-498E26D42FBC";
name = Regular;
paths = (
{
closed = 1;
nodes = (
"92 12 OFFCURVE",
"103 -19 OFFCURVE",
"139 -19 CURVE SMOOTH",
"166 -19 OFFCURVE",
"176 5 OFFCURVE",
"179 23 CURVE SMOOTH",
"212 197 LINE",
"239 463 LINE",
"192 469 LINE",
"359 196 LINE SMOOTH",
"385 154 OFFCURVE",
"410 128 OFFCURVE",
"442 128 CURVE SMOOTH",
"470 128 OFFCURVE",
"498 164 OFFCURVE",
"522 205 CURVE SMOOTH",
"621 376 LINE",
"602 487 LINE",
"605 403 OFFCURVE",
"617 297 OFFCURVE",
"642 207 CURVE SMOOTH",
"669 114 OFFCURVE",
"694 53 OFFCURVE",
"715 16 CURVE SMOOTH",
"732 -16 OFFCURVE",
"750 -23 OFFCURVE",
"777 -23 CURVE SMOOTH",
"796 -23 OFFCURVE",
"820 -16 OFFCURVE",
"820 7 CURVE SMOOTH",
"820 27 OFFCURVE",
"779 90 OFFCURVE",
"748 153 CURVE SMOOTH",
"724 205 OFFCURVE",
"705 253 OFFCURVE",
"700 288 CURVE SMOOTH",
"664 554 LINE SMOOTH",
"661 579 OFFCURVE",
"646 593 OFFCURVE",
"626 593 CURVE SMOOTH",
"602 593 OFFCURVE",
"596 579 OFFCURVE",
"589 540 CURVE SMOOTH",
"582 501 OFFCURVE",
"570 443 OFFCURVE",
"544 391 CURVE SMOOTH",
"515 321 OFFCURVE",
"474 257 OFFCURVE",
"420 197 CURVE",
"466 203 LINE",
"428 246 OFFCURVE",
"398 293 OFFCURVE",
"364 350 CURVE",
"249 529 LINE SMOOTH",
"228 563 OFFCURVE",
"210 576 OFFCURVE",
"190 576 CURVE SMOOTH",
"175 576 OFFCURVE",
"161 569 OFFCURVE",
"154 561 CURVE",
"144 268 LINE",
"98 44 LINE"
);
}
);
width = 865;
}
);
unicode = 004D;
},
{
color = 0;
glyphname = N;
lastChange = "2016-01-11 11:57:29 +0000";
layers = (
{
background = {
paths = (
{
closed = 1;
nodes = (
"113 575 OFFCURVE",
"92 556 OFFCURVE",
"92 536 CURVE",
"103 443 OFFCURVE",
"104 357 OFFCURVE",
"104 282 CURVE SMOOTH",
"104 174 OFFCURVE",
"81 69 OFFCURVE",
"81 36 CURVE SMOOTH",
"81 7 OFFCURVE",
"108 -23 OFFCURVE",
"143 -23 CURVE SMOOTH",
"167 -23 OFFCURVE",
"171 -3 OFFCURVE",
"173 38 CURVE SMOOTH",
"183 277 LINE",
"188 468 LINE",
"143 457 LINE",
"220 363 OFFCURVE",
"442 92 OFFCURVE",
"515 6 CURVE SMOOTH",
"526 -7 OFFCURVE",
"540 -19 OFFCURVE",
"564 -19 CURVE SMOOTH",
"584 -19 OFFCURVE",
"612 -6 OFFCURVE",
"611 25 CURVE SMOOTH",
"603 272 LINE",
"620 535 LINE SMOOTH",
"621 558 OFFCURVE",
"591 575 OFFCURVE",
"571 575 CURVE SMOOTH",
"539 575 OFFCURVE",
"520 560 OFFCURVE",
"520 507 CURVE SMOOTH",
"520 473 OFFCURVE",
"525 403 OFFCURVE",
"525 325 CURVE SMOOTH",
"524 237 OFFCURVE",
"520 141 OFFCURVE",
"517 70 CURVE",
"545 100 LINE",
"409 251 OFFCURVE",
"251 457 OFFCURVE",
"186 548 CURVE SMOOTH",
"173 566 OFFCURVE",
"159 575 OFFCURVE",
"136 575 CURVE"
);
}
);
};
layerId = "D34FCF88-AF1D-4520-8FB0-498E26D42FBC";
name = Regular;
paths = (
{
closed = 1;
nodes = (
"591 -19 OFFCURVE",
"611 -4 OFFCURVE",
"611 20 CURVE SMOOTH",
"611 47 OFFCURVE",
"599 199 OFFCURVE",
"599 274 CURVE SMOOTH",
"599 382 OFFCURVE",
"622 487 OFFCURVE",
"622 520 CURVE SMOOTH",
"622 549 OFFCURVE",
"595 579 OFFCURVE",
"560 579 CURVE SMOOTH",
"536 579 OFFCURVE",
"532 559 OFFCURVE",
"530 518 CURVE SMOOTH",
"520 279 LINE",
"515 79 LINE",
"560 90 LINE",
"483 185 OFFCURVE",
"261 461 OFFCURVE",
"188 550 CURVE SMOOTH",
"177 563 OFFCURVE",
"163 575 OFFCURVE",
"139 575 CURVE SMOOTH",
"119 575 OFFCURVE",
"91 562 OFFCURVE",
"92 531 CURVE SMOOTH",
"100 284 LINE",
"83 21 LINE SMOOTH",
"82 -2 OFFCURVE",
"112 -19 OFFCURVE",
"132 -19 CURVE SMOOTH",
"164 -19 OFFCURVE",
"183 -4 OFFCURVE",
"183 49 CURVE SMOOTH",
"183 83 OFFCURVE",
"178 153 OFFCURVE",
"178 231 CURVE SMOOTH",
"179 319 OFFCURVE",
"183 415 OFFCURVE",
"186 486 CURVE",
"158 456 LINE",
"294 302 OFFCURVE",
"452 95 OFFCURVE",
"517 5 CURVE SMOOTH",
"530 -13 OFFCURVE",
"545 -19 OFFCURVE",
"567 -19 CURVE"
);
}
);
width = 707;
}
);
unicode = 004E;
},
{
color = 1;
glyphname = O;
lastChange = "2016-01-04 09:11:48 +0000";
layers = (
{
background = {
paths = (
{
closed = 1;
nodes = (
"160 592 OFFCURVE",
"65 400 OFFCURVE",
"65 269 CURVE SMOOTH",
"65 82 OFFCURVE",
"180 -28 OFFCURVE",
"363 -28 CURVE SMOOTH",
"506 -28 OFFCURVE",
"640 154 OFFCURVE",
"640 295 CURVE SMOOTH",
"640 482 OFFCURVE",
"520 592 OFFCURVE",
"342 592 CURVE"
);
},
{
closed = 1;
nodes = (
"469 514 OFFCURVE",
"559 442 OFFCURVE",
"559 295 CURVE SMOOTH",
"559 183 OFFCURVE",
"450 50 OFFCURVE",
"363 50 CURVE SMOOTH",
"226 50 OFFCURVE",
"146 112 OFFCURVE",
"146 269 CURVE SMOOTH",
"146 361 OFFCURVE",
"215 514 OFFCURVE",
"342 514 CURVE SMOOTH"
);
}
);
};
layerId = "D34FCF88-AF1D-4520-8FB0-498E26D42FBC";
name = Regular;
paths = (
{
closed = 1;
nodes = (
"545 -28 OFFCURVE",
"640 164 OFFCURVE",
"640 295 CURVE SMOOTH",
"640 482 OFFCURVE",
"525 592 OFFCURVE",
"342 592 CURVE SMOOTH",
"199 592 OFFCURVE",
"65 410 OFFCURVE",
"65 269 CURVE SMOOTH",
"65 82 OFFCURVE",
"185 -28 OFFCURVE",
"363 -28 CURVE"
);
},
{
closed = 1;
nodes = (
"236 51 OFFCURVE",
"146 123 OFFCURVE",
"146 269 CURVE SMOOTH",
"146 381 OFFCURVE",
"255 513 OFFCURVE",
"342 513 CURVE SMOOTH",
"479 513 OFFCURVE",
"559 431 OFFCURVE",
"559 295 CURVE SMOOTH",
"559 203 OFFCURVE",
"490 51 OFFCURVE",
"363 51 CURVE SMOOTH"
);
}
);
width = 715;
}
);
unicode = 004F;
},
{
color = 0;
glyphname = P;
lastChange = "2016-01-11 18:28:53 +0000";
layers = (
{
background = {
paths = (
{
closed = 1;
nodes = (
"389 23 LINE SMOOTH",
"415 -7 OFFCURVE",
"433 -19 OFFCURVE",
"463 -19 CURVE SMOOTH",
"486 -19 OFFCURVE",
"502 -7 OFFCURVE",
"502 1 CURVE SMOOTH",
"502 11 OFFCURVE",
"494 27 OFFCURVE",
"475 49 CURVE SMOOTH",
"378 159 LINE SMOOTH",
"356 184 OFFCURVE",
"332 218 OFFCURVE",
"319 241 CURVE",
"303 210 LINE",
"400 267 OFFCURVE",
"451 317 OFFCURVE",
"451 405 CURVE SMOOTH",
"451 522 OFFCURVE",
"349 592 OFFCURVE",
"237 592 CURVE SMOOTH",
"184 592 OFFCURVE",
"143 585 OFFCURVE",
"97 564 CURVE",
"97 279 LINE",
"94 40 LINE SMOOTH",
"94 4 OFFCURVE",
"115 -19 OFFCURVE",
"148 -19 CURVE SMOOTH",
"164 -19 OFFCURVE",
"187 -3 OFFCURVE",
"187 18 CURVE SMOOTH",
"187 65 OFFCURVE",
"176 119 OFFCURVE",
"176 171 CURVE SMOOTH",
"176 274 LINE",
"179 520 LINE",
"153 497 LINE",
"181 507 OFFCURVE",
"209 513 OFFCURVE",
"237 513 CURVE SMOOTH",
"327 513 OFFCURVE",
"370 472 OFFCURVE",
"370 405 CURVE SMOOTH",
"370 295 OFFCURVE",
"231 287 OFFCURVE",
"231 236 CURVE SMOOTH",
"231 216 OFFCURVE",
"274 160 OFFCURVE",
"311 116 CURVE SMOOTH"
);
}
);
};
layerId = "D34FCF88-AF1D-4520-8FB0-498E26D42FBC";
name = Regular;
paths = (
{
closed = 1;
nodes = (
"231 198 OFFCURVE",
"272 175 OFFCURVE",
"293 175 CURVE SMOOTH",
"341 175 OFFCURVE",
"467 249 OFFCURVE",
"467 385 CURVE SMOOTH",
"467 515 OFFCURVE",
"371 592 OFFCURVE",
"242 592 CURVE SMOOTH",
"174 592 OFFCURVE",
"72 571 OFFCURVE",
"72 535 CURVE SMOOTH",
"72 503 OFFCURVE",
"97 495 OFFCURVE",
"97 435 CURVE",
"97 279 LINE",
"97 180 OFFCURVE",
"86 80 OFFCURVE",
"86 40 CURVE SMOOTH",
"86 11 OFFCURVE",
"116 -19 OFFCURVE",
"153 -19 CURVE SMOOTH",
"171 -19 OFFCURVE",
"184 -3 OFFCURVE",
"184 18 CURVE SMOOTH",
"184 65 OFFCURVE",
"176 119 OFFCURVE",
"176 171 CURVE SMOOTH",
"176 274 LINE",
"179 520 LINE",
"153 497 LINE",
"183 507 OFFCURVE",
"212 513 OFFCURVE",
"242 513 CURVE SMOOTH",
"334 513 OFFCURVE",
"386 465 OFFCURVE",
"386 385 CURVE SMOOTH",
"386 261 OFFCURVE",
"231 223 OFFCURVE",
"231 211 CURVE"
);
}
);
width = 517;
}
);
unicode = 0050;
},
{
glyphname = Q;
layers = (
{
layerId = "D34FCF88-AF1D-4520-8FB0-498E26D42FBC";
name = Regular;
paths = (
{
closed = 1;
nodes = (
"47 16 CURVE SMOOTH",
"47 13 OFFCURVE",
"49 2 OFFCURVE",
"49 2 CURVE SMOOTH",
"95 -74 OFFCURVE",
"186 -54 OFFCURVE",
"255 -86 CURVE SMOOTH",
"270 -93 OFFCURVE",
"388 -154 OFFCURVE",
"402 -161 CURVE SMOOTH",
"420 -168 OFFCURVE",
"482 -189 OFFCURVE",
"490 -190 CURVE SMOOTH",
"516 -192 OFFCURVE",
"566 -175 OFFCURVE",
"579 -145 CURVE",
"579 -144 OFFCURVE",
"580 -130 OFFCURVE",
"580 -125 CURVE SMOOTH",
"580 -109 OFFCURVE",
"579 -86 OFFCURVE",
"557 -86 CURVE SMOOTH",
"533 -86 OFFCURVE",
"514 -102 OFFCURVE",
"490 -102 CURVE SMOOTH",
"451 -102 OFFCURVE",
"404 -76 OFFCURVE",
"373 -57 CURVE",
"387 -34 OFFCURVE",
"433 -24 OFFCURVE",
"446 -13 CURVE SMOOTH",
"548 66 OFFCURVE",
"594 177 OFFCURVE",
"594 303 CURVE SMOOTH",
"594 351 OFFCURVE",
"599 372 OFFCURVE",
"579 413 CURVE SMOOTH",
"571 428 OFFCURVE",
"540 479 OFFCURVE",
"534 487 CURVE SMOOTH",
"469 569 OFFCURVE",
"391 619 OFFCURVE",
"284 619 CURVE SMOOTH",
"169 619 OFFCURVE",
"64 567 OFFCURVE",
"20 457 CURVE",
"20 457 OFFCURVE",
"19 452 OFFCURVE",
"19 451 CURVE SMOOTH",
"19 389 OFFCURVE",
"32 326 OFFCURVE",
"49 266 CURVE",
"53 255 OFFCURVE",
"63 223 OFFCURVE",
"64 222 CURVE SMOOTH",
"83 193 OFFCURVE",
"141 152 OFFCURVE",
"167 134 CURVE SMOOTH",
"179 125 OFFCURVE",
"209 105 OFFCURVE",
"211 105 CURVE SMOOTH",
"212 104 OFFCURVE",
"237 103 OFFCURVE",
"246 103 CURVE SMOOTH",
"263 103 OFFCURVE",
"300 98 OFFCURVE",
"300 126 CURVE SMOOTH",
"300 175 OFFCURVE",
"262 166 OFFCURVE",
"225 178 CURVE SMOOTH",
"190 190 OFFCURVE",
"157 223 OFFCURVE",
"138 251 CURVE SMOOTH",
"135 255 OFFCURVE",
"125 285 OFFCURVE",
"123 296 CURVE SMOOTH",
"121 303 OFFCURVE",
"111 365 OFFCURVE",
"108 384 CURVE",
"108 384 OFFCURVE",
"108 390 OFFCURVE",
"108 391 CURVE SMOOTH",
"108 394 OFFCURVE",
"108 398 OFFCURVE",
"108 398 CURVE",
"137 512 OFFCURVE",
"212 532 OFFCURVE",
"323 532 CURVE SMOOTH",
"355 532 OFFCURVE",
"377 537 OFFCURVE",
"402 516 CURVE SMOOTH",
"413 507 OFFCURVE",
"455 465 OFFCURVE",
"461 457 CURVE SMOOTH",
"472 443 OFFCURVE",
"504 391 OFFCURVE",
"505 384 CURVE SMOOTH",
"505 382 OFFCURVE",
"507 345 OFFCURVE",
"507 331 CURVE SMOOTH",
"507 284 OFFCURVE",
"508 252 OFFCURVE",
"490 207 CURVE SMOOTH",
"472 162 OFFCURVE",
"447 104 OFFCURVE",
"402 75 CURVE SMOOTH",
"384 63 OFFCURVE",
"302 23 OFFCURVE",
"284 16 CURVE",
"284 16 OFFCURVE",
"269 15 OFFCURVE",
"264 15 CURVE SMOOTH",
"210 15 OFFCURVE",
"163 47 OFFCURVE",
"109 47 CURVE SMOOTH",
"86 47 OFFCURVE",
"47 48 OFFCURVE"
);
}
);
width = 627;
}
);
unicode = 0051;
},
{
color = 0;
glyphname = R;
lastChange = "2016-01-11 12:00:07 +0000";
layers = (
{
background = {
paths = (
{
closed = 1;
nodes = (
"570 -77 OFFCURVE",
"576 -50 OFFCURVE",
"563 -34 CURVE SMOOTH",
"532 0 OFFCURVE",
"489 34 OFFCURVE",
"453 73 CURVE SMOOTH",
"386 149 LINE SMOOTH",
"313 231 OFFCURVE",
"261 324 OFFCURVE",
"239 349 CURVE SMOOTH",
"220 371 OFFCURVE",
"180 376 OFFCURVE",
"153 353 CURVE SMOOTH",
"134 335 OFFCURVE",
"147 319 OFFCURVE",
"172 288 CURVE SMOOTH",
"322 102 LINE",
"477 -82 LINE SMOOTH",
"499 -110 OFFCURVE",
"532 -113 OFFCURVE",
"558 -89 CURVE SMOOTH"
);
}
);
};
layerId = "D34FCF88-AF1D-4520-8FB0-498E26D42FBC";
name = Regular;
paths = (
{
closed = 1;
nodes = (
"389 23 LINE SMOOTH",
"415 -7 OFFCURVE",
"433 -19 OFFCURVE",
"463 -19 CURVE SMOOTH",
"486 -19 OFFCURVE",
"502 -7 OFFCURVE",
"502 1 CURVE SMOOTH",
"502 11 OFFCURVE",
"494 27 OFFCURVE",
"475 49 CURVE SMOOTH",
"378 159 LINE SMOOTH",
"356 184 OFFCURVE",
"332 218 OFFCURVE",
"319 241 CURVE",
"303 210 LINE",
"400 267 OFFCURVE",
"451 317 OFFCURVE",
"451 405 CURVE SMOOTH",
"451 522 OFFCURVE",
"349 592 OFFCURVE",
"237 592 CURVE SMOOTH",
"184 592 OFFCURVE",
"143 585 OFFCURVE",
"97 564 CURVE",
"97 279 LINE",
"94 40 LINE SMOOTH",
"94 4 OFFCURVE",
"115 -19 OFFCURVE",
"148 -19 CURVE SMOOTH",
"164 -19 OFFCURVE",
"187 -3 OFFCURVE",
"187 18 CURVE SMOOTH",
"187 65 OFFCURVE",
"176 119 OFFCURVE",
"176 171 CURVE SMOOTH",
"176 274 LINE",
"179 520 LINE",
"153 497 LINE",
"181 507 OFFCURVE",
"209 513 OFFCURVE",
"237 513 CURVE SMOOTH",
"327 513 OFFCURVE",
"370 472 OFFCURVE",
"370 405 CURVE SMOOTH",
"370 295 OFFCURVE",
"231 287 OFFCURVE",
"231 236 CURVE SMOOTH",
"231 216 OFFCURVE",
"274 160 OFFCURVE",
"311 116 CURVE SMOOTH"
);
}
);
width = 546;
}
);
unicode = 0052;
},
{
color = 1;
glyphname = S;
lastChange = "2016-01-11 12:02:43 +0000";
layers = (
{
background = {
paths = (
{
closed = 1;
nodes = (
"444 -28 OFFCURVE",
"539 164 OFFCURVE",
"539 295 CURVE SMOOTH",
"539 482 OFFCURVE",
"424 592 OFFCURVE",
"241 592 CURVE SMOOTH",
"98 592 OFFCURVE",
"-36 410 OFFCURVE",
"-36 269 CURVE SMOOTH",
"-36 82 OFFCURVE",
"84 -28 OFFCURVE",
"262 -28 CURVE"
);
},
{
closed = 1;
nodes = (
"135 51 OFFCURVE",
"45 123 OFFCURVE",
"45 269 CURVE SMOOTH",
"45 381 OFFCURVE",
"154 513 OFFCURVE",
"241 513 CURVE SMOOTH",
"378 513 OFFCURVE",
"458 431 OFFCURVE",
"458 295 CURVE SMOOTH",
"458 203 OFFCURVE",
"389 51 OFFCURVE",
"262 51 CURVE SMOOTH"
);
}
);
};
guideLines = (
{
angle = 90;
position = "{54, 279}";
},
{
angle = 90;
position = "{462, 279}";
}
);
layerId = "D34FCF88-AF1D-4520-8FB0-498E26D42FBC";
name = Regular;
paths = (
{
closed = 1;
nodes = (
"380 578 OFFCURVE",
"330 589 OFFCURVE",
"274 589 CURVE SMOOTH",
"172 589 OFFCURVE",
"80 534 OFFCURVE",
"80 428 CURVE SMOOTH",
"80 235 OFFCURVE",
"374 267 OFFCURVE",
"374 135 CURVE SMOOTH",
"374 62 OFFCURVE",
"301 46 OFFCURVE",
"253 46 CURVE SMOOTH",
"200 46 OFFCURVE",
"143 59 OFFCURVE",
"98 108 CURVE",
"98 108 OFFCURVE",
"132 14 OFFCURVE",
"132 14 CURVE",
"132 188 LINE SMOOTH",
"132 204 OFFCURVE",
"117 214 OFFCURVE",
"101 214 CURVE SMOOTH",
"77 214 OFFCURVE",
"47 183 OFFCURVE",
"47 128 CURVE SMOOTH",
"47 87 OFFCURVE",
"55 42 OFFCURVE",
"90 12 CURVE SMOOTH",
"124 -15 OFFCURVE",
"190 -33 OFFCURVE",
"253 -33 CURVE SMOOTH",
"376 -33 OFFCURVE",
"455 31 OFFCURVE",
"455 135 CURVE SMOOTH",
"455 335 OFFCURVE",
"161 310 OFFCURVE",
"161 428 CURVE SMOOTH",
"161 487 OFFCURVE",
"214 510 OFFCURVE",
"274 510 CURVE SMOOTH",
"332 510 OFFCURVE",
"370 497 OFFCURVE",
"396 477 CURVE",
"396 477 OFFCURVE",
"354 552 OFFCURVE",
"349 552 CURVE",
"367 408 LINE SMOOTH",
"371 375 OFFCURVE",
"382 366 OFFCURVE",
"402 366 CURVE SMOOTH",
"418 366 OFFCURVE",
"424 375 OFFCURVE",
"426 389 CURVE SMOOTH",
"447 553 LINE SMOOTH",
"451 588 OFFCURVE",
"432 605 OFFCURVE",
"405 605 CURVE SMOOTH",
"385 605 OFFCURVE",
"370 592 OFFCURVE",
"358 564 CURVE",
"358 564 OFFCURVE",
"419 565 OFFCURVE",
"419 565 CURVE"
);
}
);
width = 532;
}
);
unicode = 0053;
},
{
color = 1;
glyphname = T;
lastChange = "2015-11-23 12:18:43 +0000";
layers = (
{
background = {
paths = (
{
closed = 1;
nodes = (
"296 579 CURVE SMOOTH",
"271 579 OFFCURVE",
"269 559 OFFCURVE",
"266 518 CURVE SMOOTH",
"256 279 LINE",
"249 40 LINE SMOOTH",
"248 4 OFFCURVE",
"271 -19 OFFCURVE",
"305 -19 CURVE SMOOTH",
"322 -19 OFFCURVE",
"346 -3 OFFCURVE",
"346 18 CURVE SMOOTH",
"346 65 OFFCURVE",
"335 119 OFFCURVE",
"335 171 CURVE SMOOTH",
"335 274 LINE SMOOTH",
"335 382 OFFCURVE",
"358 487 OFFCURVE",
"358 520 CURVE SMOOTH",
"358 549 OFFCURVE",
"331 579 OFFCURVE"
);
}
);
};
layerId = "D34FCF88-AF1D-4520-8FB0-498E26D42FBC";
name = Regular;
paths = (
{
closed = 1;
nodes = (
"256 518 LINE",
"256 279 LINE",
"249 40 LINE SMOOTH",
"248 4 OFFCURVE",
"271 -19 OFFCURVE",
"304 -19 CURVE SMOOTH",
"321 -19 OFFCURVE",
"346 -3 OFFCURVE",
"346 18 CURVE SMOOTH",
"346 65 OFFCURVE",
"335 119 OFFCURVE",
"335 171 CURVE SMOOTH",
"335 274 LINE SMOOTH",
"335 382 OFFCURVE",
"342 487 OFFCURVE",
"342 520 CURVE"
);
},
{
closed = 1;
nodes = (
"54 564 LINE SMOOTH",
"21 564 OFFCURVE",
"14 553 OFFCURVE",
"14 535 CURVE SMOOTH",
"14 516 OFFCURVE",
"47 487 OFFCURVE",
"73 487 CURVE SMOOTH",
"325 487 LINE",
"490 498 LINE SMOOTH",
"516 500 OFFCURVE",
"530 506 OFFCURVE",
"530 526 CURVE SMOOTH",
"530 544 OFFCURVE",
"514 577 OFFCURVE",
"480 575 CURVE SMOOTH",
"294 564 LINE"
);
}
);
width = 553;
}
);
unicode = 0054;
},
{
color = 0;
glyphname = U;
lastChange = "2016-01-11 14:23:24 +0000";
layers = (
{
background = {
paths = (
{
closed = 1;
nodes = (
"486 40 LINE SMOOTH",
"489 13 OFFCURVE",
"512 -19 OFFCURVE",
"552 -19 CURVE SMOOTH",
"570 -19 OFFCURVE",
"583 -5 OFFCURVE",
"583 13 CURVE SMOOTH",
"583 53 OFFCURVE",
"553 187 OFFCURVE",
"542 254 CURVE",
"551 401 OFFCURVE",
"582 487 OFFCURVE",
"582 520 CURVE SMOOTH",
"582 549 OFFCURVE",
"555 579 OFFCURVE",
"530 579 CURVE SMOOTH",
"505 579 OFFCURVE",
"500 558 OFFCURVE",
"490 518 CURVE SMOOTH",
"409 183 OFFCURVE",
"303 51 OFFCURVE",
"224 51 CURVE SMOOTH",
"193 51 OFFCURVE",
"163 76 OFFCURVE",
"163 247 CURVE SMOOTH",
"163 376 OFFCURVE",
"190 493 OFFCURVE",
"190 534 CURVE SMOOTH",
"190 552 OFFCURVE",
"163 579 OFFCURVE",
"137 579 CURVE SMOOTH",
"95 579 OFFCURVE",
"82 428 OFFCURVE",
"82 250 CURVE SMOOTH",
"82 15 OFFCURVE",
"147 -28 OFFCURVE",
"224 -28 CURVE SMOOTH",
"350 -28 OFFCURVE",
"472 199 OFFCURVE",
"496 323 CURVE",
"458 274 LINE"
);
}
);
};
layerId = "D34FCF88-AF1D-4520-8FB0-498E26D42FBC";
name = Regular;
paths = (
{
closed = 1;
nodes = (
"486 40 LINE SMOOTH",
"489 13 OFFCURVE",
"512 -19 OFFCURVE",
"552 -19 CURVE SMOOTH",
"570 -19 OFFCURVE",
"583 -5 OFFCURVE",
"583 13 CURVE SMOOTH",
"583 53 OFFCURVE",
"553 187 OFFCURVE",
"542 254 CURVE",
"551 401 OFFCURVE",
"582 487 OFFCURVE",
"582 520 CURVE SMOOTH",
"582 549 OFFCURVE",
"555 579 OFFCURVE",
"530 579 CURVE SMOOTH",
"505 579 OFFCURVE",
"500 558 OFFCURVE",
"490 518 CURVE SMOOTH",
"412 183 OFFCURVE",
"325 51 OFFCURVE",
"234 51 CURVE SMOOTH",
"198 51 OFFCURVE",
"163 76 OFFCURVE",
"163 247 CURVE SMOOTH",
"163 372 OFFCURVE",
"194 486 OFFCURVE",
"194 526 CURVE SMOOTH",
"194 547 OFFCURVE",
"165 579 OFFCURVE",
"137 579 CURVE SMOOTH",
"93 579 OFFCURVE",
"80 428 OFFCURVE",
"80 250 CURVE SMOOTH",
"80 15 OFFCURVE",
"155 -28 OFFCURVE",
"234 -28 CURVE SMOOTH",
"380 -28 OFFCURVE",
"473 199 OFFCURVE",
"496 323 CURVE",
"458 274 LINE"
);
}
);
width = 660;
}
);
unicode = 0055;
},
{
color = 1;
glyphname = V;
lastChange = "2015-12-01 20:41:40 +0000";
layers = (
{
layerId = "D34FCF88-AF1D-4520-8FB0-498E26D42FBC";
name = Regular;
paths = (
{
closed = 1;
nodes = (
"275 -28 OFFCURVE",
"304 -7 OFFCURVE",
"329 31 CURVE SMOOTH",
"415 163 LINE SMOOTH",
"494 283 OFFCURVE",
"550 401 OFFCURVE",
"559 522 CURVE SMOOTH",
"561 548 OFFCURVE",
"552 575 OFFCURVE",
"518 575 CURVE SMOOTH",
"496 575 OFFCURVE",
"482 559 OFFCURVE",
"478 531 CURVE SMOOTH",
"459 388 OFFCURVE",
"390 270 OFFCURVE",
"353 208 CURVE SMOOTH",
"290 111 LINE SMOOTH",
"284 102 OFFCURVE",
"276 94 OFFCURVE",
"270 94 CURVE SMOOTH",
"264 94 OFFCURVE",
"258 97 OFFCURVE",
"255 106 CURVE SMOOTH",
"233 163 LINE SMOOTH",
"219 199 OFFCURVE",
"201 241 OFFCURVE",
"188 278 CURVE SMOOTH",
"137 422 LINE SMOOTH",
"121 468 OFFCURVE",
"116 517 OFFCURVE",
"108 541 CURVE SMOOTH",
"96 573 OFFCURVE",
"64 575 OFFCURVE",
"49 575 CURVE SMOOTH",
"29 575 OFFCURVE",
"8 566 OFFCURVE",
"8 529 CURVE SMOOTH",
"8 513 OFFCURVE",
"26 471 OFFCURVE",
"44 420 CURVE SMOOTH",
"70 349 OFFCURVE",
"101 263 OFFCURVE",
"123 209 CURVE SMOOTH",
"197 25 LINE SMOOTH",
"206 2 OFFCURVE",
"232 -28 OFFCURVE",
"258 -28 CURVE SMOOTH"
);
}
);
width = 578;
}
);
unicode = 0056;
},
{
color = 0;
glyphname = W;
lastChange = "2016-01-11 13:14:55 +0000";
layers = (
{
background = {
paths = (
{
closed = 1;
nodes = (
"376 -28 OFFCURVE",
"391 -18 OFFCURVE",
"407 12 CURVE SMOOTH",
"523 287 LINE SMOOTH",
"543 335 OFFCURVE",
"569 368 OFFCURVE",
"592 409 CURVE",
"550 407 LINE",
"621 282 OFFCURVE",
"692 109 OFFCURVE",
"742 -17 CURVE",
"752 -23 OFFCURVE",
"764 -28 OFFCURVE",
"783 -28 CURVE SMOOTH",
"809 -28 OFFCURVE",
"830 -8 OFFCURVE",
"851 27 CURVE SMOOTH",
"948 191 OFFCURVE",
"997 401 OFFCURVE",
"997 504 CURVE SMOOTH",
"997 550 OFFCURVE",
"975 575 OFFCURVE",
"946 575 CURVE SMOOTH",
"930 575 OFFCURVE",
"917 572 OFFCURVE",
"903 563 CURVE",
"914 367 OFFCURVE",
"856 193 OFFCURVE",
"791 80 CURVE",
"813 50 LINE",
"687 319 LINE SMOOTH",
"664 368 OFFCURVE",
"626 462 OFFCURVE",
"618 533 CURVE SMOOTH",
"616 547 OFFCURVE",
"613 575 OFFCURVE",
"582 575 CURVE SMOOTH",
"563 575 OFFCURVE",
"541 565 OFFCURVE",
"527 544 CURVE",
"524 523 OFFCURVE",
"525 496 OFFCURVE",
"527 474 CURVE",
"469 342 OFFCURVE",
"410 218 OFFCURVE",
"352 105 CURVE",
"394 118 LINE",
"346 225 OFFCURVE",
"299 328 OFFCURVE",
"246 433 CURVE SMOOTH",
"215 495 OFFCURVE",
"166 575 OFFCURVE",
"143 575 CURVE SMOOTH",
"124 575 OFFCURVE",
"85 546 OFFCURVE",
"85 518 CURVE SMOOTH",
"85 500 OFFCURVE",
"135 455 OFFCURVE",
"156 422 CURVE SMOOTH",
"202 351 OFFCURVE",
"235 277 OFFCURVE",
"266 205 CURVE SMOOTH",
"296 134 OFFCURVE",
"315 54 OFFCURVE",
"325 -21 CURVE",
"334 -26 OFFCURVE",
"342 -28 OFFCURVE",
"352 -28 CURVE"
);
}
);
};
guideLines = (
{
position = "{435, 88}";
}
);
layerId = "D34FCF88-AF1D-4520-8FB0-498E26D42FBC";
name = Regular;
paths = (
{
closed = 1;
nodes = (
"292 -28 OFFCURVE",
"307 -18 OFFCURVE",
"320 12 CURVE SMOOTH",
"436 287 LINE SMOOTH",
"456 335 OFFCURVE",
"476 369 OFFCURVE",
"505 409 CURVE",
"463 407 LINE",
"534 282 OFFCURVE",
"605 109 OFFCURVE",
"655 -17 CURVE",
"665 -23 OFFCURVE",
"677 -28 OFFCURVE",
"696 -28 CURVE SMOOTH",
"722 -28 OFFCURVE",
"743 -8 OFFCURVE",
"764 27 CURVE SMOOTH",
"861 191 OFFCURVE",
"910 401 OFFCURVE",
"910 504 CURVE SMOOTH",
"910 550 OFFCURVE",
"888 575 OFFCURVE",
"859 575 CURVE SMOOTH",
"843 575 OFFCURVE",
"830 572 OFFCURVE",
"816 563 CURVE",
"827 367 OFFCURVE",
"769 193 OFFCURVE",
"704 80 CURVE",
"726 50 LINE",
"600 319 LINE SMOOTH",
"577 368 OFFCURVE",
"539 462 OFFCURVE",
"531 533 CURVE SMOOTH",
"529 547 OFFCURVE",
"526 575 OFFCURVE",
"495 575 CURVE SMOOTH",
"476 575 OFFCURVE",
"454 565 OFFCURVE",
"440 544 CURVE",
"437 523 OFFCURVE",
"438 496 OFFCURVE",
"440 474 CURVE",
"382 342 OFFCURVE",
"318 198 OFFCURVE",
"269 85 CURVE",
"304 91 LINE",
"270 209 OFFCURVE",
"212 330 OFFCURVE",
"159 433 CURVE SMOOTH",
"127 495 OFFCURVE",
"79 575 OFFCURVE",
"56 575 CURVE SMOOTH",
"37 575 OFFCURVE",
"-2 546 OFFCURVE",
"-2 518 CURVE SMOOTH",
"-2 500 OFFCURVE",
"48 455 OFFCURVE",
"69 422 CURVE SMOOTH",
"115 351 OFFCURVE",
"148 277 OFFCURVE",
"179 205 CURVE SMOOTH",
"212 134 OFFCURVE",
"232 54 OFFCURVE",
"243 -21 CURVE",
"251 -26 OFFCURVE",
"260 -28 OFFCURVE",
"270 -28 CURVE"
);
}
);
width = 952;
}
);
unicode = 0057;
},
{
glyphname = X;
layers = (
{
layerId = "D34FCF88-AF1D-4520-8FB0-498E26D42FBC";
name = Regular;
paths = (
{
closed = 1;
nodes = (
"105 13 CURVE",
"105 7 OFFCURVE",
"107 -8 OFFCURVE",
"108 -10 CURVE",
"112 -17 OFFCURVE",
"144 -37 OFFCURVE",
"152 -39 CURVE",
"167 -27 OFFCURVE",
"228 35 OFFCURVE",
"240 49 CURVE",
"247 57 OFFCURVE",
"293 128 OFFCURVE",
"299 138 CURVE",
"312 155 OFFCURVE",
"342 196 OFFCURVE",
"343 196 CURVE",
"373 181 LINE",
"505 34 LINE",
"517 21 OFFCURVE",
"547 16 OFFCURVE",
"564 16 CURVE",
"564 79 LINE",
"564 79 OFFCURVE",
"482 172 OFFCURVE",
"446 211 CURVE",
"442 216 OFFCURVE",
"405 250 OFFCURVE",
"402 255 CURVE",
"401 256 OFFCURVE",
"400 266 OFFCURVE",
"400 270 CURVE",
"400 272 OFFCURVE",
"401 283 OFFCURVE",
"402 284 CURVE",
"419 316 OFFCURVE",
"501 460 OFFCURVE",
"520 490 CURVE",
"521 494 OFFCURVE",
"547 516 OFFCURVE",
"549 520 CURVE",
"550 520 OFFCURVE",
"550 534 OFFCURVE",
"550 540 CURVE",
"550 569 OFFCURVE",
"546 595 OFFCURVE",
"512 595 CURVE",
"433 595 OFFCURVE",
"385 400 OFFCURVE",
"314 343 CURVE",
"288 371 OFFCURVE",
"165 494 OFFCURVE",
"138 520 CURVE",
"124 532 OFFCURVE",
"73 573 OFFCURVE",
"64 579 CURVE",
"63 579 OFFCURVE",
"54 580 OFFCURVE",
"50 580 CURVE",
"35 580 OFFCURVE",
"19 575 OFFCURVE",
"19 556 CURVE",
"19 537 OFFCURVE",
"38 517 OFFCURVE",
"49 505 CURVE",
"63 490 OFFCURVE",
"182 373 OFFCURVE",
"196 358 CURVE",
"219 333 OFFCURVE",
"271 271 OFFCURVE",
"270 270 CURVE",
"108 34 LINE",
"107 33 OFFCURVE",
"105 18 OFFCURVE"
);
}
);
width = 602;
}
);
unicode = 0058;
},
{
color = 0;
glyphname = Y;
lastChange = "2016-01-11 14:27:19 +0000";
layers = (
{
background = {
paths = (
{
closed = 0;
nodes = (
"528 498 LINE SMOOTH",
"542 523 OFFCURVE",
"534 563 OFFCURVE",
"512 575 CURVE SMOOTH",
"490 587 OFFCURVE",
"476 572 OFFCURVE",
"447 542 CURVE SMOOTH"
);
}
);
};
layerId = "D34FCF88-AF1D-4520-8FB0-498E26D42FBC";
name = Regular;
paths = (
{
closed = 1;
nodes = (
"321 -19 OFFCURVE",
"345 -3 OFFCURVE",
"345 18 CURVE SMOOTH",
"345 86 OFFCURVE",
"331 190 OFFCURVE",
"335 257 CURVE",
"324 223 LINE",
"342 247 OFFCURVE",
"370 285 OFFCURVE",
"420 366 CURVE SMOOTH",
"469 444 OFFCURVE",
"530 497 OFFCURVE",
"530 525 CURVE SMOOTH",
"530 555 OFFCURVE",
"509 579 OFFCURVE",
"490 579 CURVE SMOOTH",
"471 579 OFFCURVE",
"452 556 OFFCURVE",
"426 512 CURVE SMOOTH",
"378 430 OFFCURVE",
"309 315 OFFCURVE",
"293 315 CURVE SMOOTH",
"277 315 OFFCURVE",
"159 496 OFFCURVE",
"138 525 CURVE SMOOTH",
"116 555 OFFCURVE",
"99 579 OFFCURVE",
"69 579 CURVE SMOOTH",
"48 579 OFFCURVE",
"25 565 OFFCURVE",
"25 549 CURVE SMOOTH",
"25 532 OFFCURVE",
"60 486 OFFCURVE",
"96 436 CURVE SMOOTH",
"152 359 OFFCURVE",
"221 259 OFFCURVE",
"244 230 CURVE",
"249 176 OFFCURVE",
"249 148 OFFCURVE",
"248 40 CURVE SMOOTH",
"247 4 OFFCURVE",
"270 -19 OFFCURVE",
"304 -19 CURVE SMOOTH"
);
}
);
width = 578;
}
);
unicode = 0059;
},
{
glyphname = Z;
layers = (
{
layerId = "D34FCF88-AF1D-4520-8FB0-498E26D42FBC";
name = Regular;
paths = (
{
closed = 1;
nodes = (
"225 15 CURVE",
"239 15 OFFCURVE",
"352 5 OFFCURVE",
"388 0 CURVE",
"394 -1 OFFCURVE",
"453 -14 OFFCURVE",
"461 -15 CURVE",
"462 -15 OFFCURVE",
"466 -15 OFFCURVE",
"469 -15 CURVE",
"469 -15 OFFCURVE",
"475 -15 OFFCURVE",
"475 -15 CURVE",
"495 -12 OFFCURVE",
"556 -2 OFFCURVE",
"564 0 CURVE",
"580 4 OFFCURVE",
"653 24 OFFCURVE",
"653 51 CURVE",
"653 68 OFFCURVE",
"636 103 OFFCURVE",
"616 103 CURVE",
"556 103 OFFCURVE",
"500 73 OFFCURVE",
"439 73 CURVE",
"371 73 OFFCURVE",
"293 97 OFFCURVE",
"225 103 CURVE",
"564 544 LINE",
"564 545 OFFCURVE",
"566 555 OFFCURVE",
"566 558 CURVE",
"566 592 OFFCURVE",
"538 604 OFFCURVE",
"509 604 CURVE",
"502 604 OFFCURVE",
"478 603 OFFCURVE",
"475 603 CURVE",
"461 602 OFFCURVE",
"343 589 OFFCURVE",
"329 588 CURVE",
"284 587 OFFCURVE",
"79 587 OFFCURVE",
"34 588 CURVE",
"30 588 OFFCURVE",
"20 578 OFFCURVE",
"20 573 CURVE",
"20 558 OFFCURVE",
"54 518 OFFCURVE",
"64 514 CURVE",
"90 504 OFFCURVE",
"132 499 OFFCURVE",
"165 499 CURVE",
"170 499 OFFCURVE",
"180 500 OFFCURVE",
"182 500 CURVE",
"217 502 OFFCURVE",
"381 512 OFFCURVE",
"417 514 CURVE",
"417 500 LINE",
"287 354 OFFCURVE",
"195 176 OFFCURVE",
"34 59 CURVE",
"34 57 OFFCURVE",
"34 47 OFFCURVE",
"34 44 CURVE",
"34 20 OFFCURVE",
"61 0 OFFCURVE",
"85 0 CURVE",
"87 0 OFFCURVE",
"93 0 OFFCURVE",
"93 0 CURVE",
"106 2 OFFCURVE",
"212 15 OFFCURVE"
);
}
);
width = 676;
}
);
unicode = 005A;
},
{
glyphname = A.alt01;
layers = (
{
layerId = "D34FCF88-AF1D-4520-8FB0-498E26D42FBC";
name = Regular;
paths = (
{
closed = 1;
nodes = (
"14 13 CURVE",
"14 11 OFFCURVE",
"14 6 OFFCURVE",
"15 5 CURVE",
"20 -2 OFFCURVE",
"41 -23 OFFCURVE",
"44 -24 CURVE",
"100 -35 OFFCURVE",
"184 153 OFFCURVE",
"206 153 CURVE",
"470 153 LINE",
"471 139 OFFCURVE",
"482 78 OFFCURVE",
"485 64 CURVE",
"497 18 OFFCURVE",
"524 15 OFFCURVE",
"569 15 CURVE",
"569 34 OFFCURVE",
"562 133 OFFCURVE",
"559 153 CURVE",
"553 186 OFFCURVE",
"512 341 OFFCURVE",
"500 373 CURVE",
"493 392 OFFCURVE",
"431 515 OFFCURVE",
"411 550 CURVE",
"407 556 OFFCURVE",
"387 577 OFFCURVE",
"382 579 CURVE",
"381 579 OFFCURVE",
"367 580 OFFCURVE",
"361 580 CURVE",
"349 580 OFFCURVE",
"328 583 OFFCURVE",
"323 564 CURVE",
"309 526 OFFCURVE",
"226 351 OFFCURVE",
"206 314 CURVE",
"180 268 OFFCURVE",
"46 63 OFFCURVE",
"15 21 CURVE",
"14 19 OFFCURVE",
"14 14 OFFCURVE"
);
},
{
closed = 1;
nodes = (
"264 241 CURVE",
"352 446 LINE",
"368 462 LINE",
"409 391 OFFCURVE",
"442 307 OFFCURVE",
"456 226 CURVE",
"448 225 OFFCURVE",
"412 225 OFFCURVE",
"404 225 CURVE",
"349 225 OFFCURVE",
"323 225 OFFCURVE"
);
}
);
width = 588;
}
);
},
{
glyphname = B.alt01;
layers = (
{
layerId = "D34FCF88-AF1D-4520-8FB0-498E26D42FBC";
name = Regular;
paths = (
{
closed = 1;
nodes = (
"39 40 CURVE",
"83 -15 OFFCURVE",
"160 -48 OFFCURVE",
"230 -48 CURVE",
"277 -48 OFFCURVE",
"352 -38 OFFCURVE",
"392 -4 CURVE",
"394 -2 OFFCURVE",
"414 28 OFFCURVE",
"421 40 CURVE",
"436 64 OFFCURVE",
"451 102 OFFCURVE",
"451 128 CURVE",
"451 210 OFFCURVE",
"412 271 OFFCURVE",
"348 319 CURVE",
"354 329 OFFCURVE",
"375 381 OFFCURVE",
"378 393 CURVE",
"378 394 OFFCURVE",
"378 413 OFFCURVE",
"378 420 CURVE",
"378 448 OFFCURVE",
"376 488 OFFCURVE",
"362 511 CURVE",
"357 520 OFFCURVE",
"316 561 OFFCURVE",
"303 569 CURVE",
"287 581 OFFCURVE",
"225 611 OFFCURVE",
"216 613 CURVE",
"209 614 OFFCURVE",
"137 619 OFFCURVE",
"113 619 CURVE",
"99 619 OFFCURVE",
"47 614 OFFCURVE",
"39 613 CURVE",
"24 598 LINE",
"24 597 OFFCURVE",
"24 549 OFFCURVE",
"24 529 CURVE",
"24 367 OFFCURVE",
"31 200 OFFCURVE"
);
},
{
closed = 1;
nodes = (
"128 70 CURVE",
"120 128 OFFCURVE",
"112 182 OFFCURVE",
"112 238 CURVE",
"112 242 OFFCURVE",
"112 257 OFFCURVE",
"112 261 CURVE",
"118 257 OFFCURVE",
"149 246 OFFCURVE",
"157 246 CURVE",
"170 245 OFFCURVE",
"276 247 OFFCURVE",
"289 246 CURVE",
"297 245 OFFCURVE",
"328 235 OFFCURVE",
"333 231 CURVE",
"355 215 OFFCURVE",
"349 168 OFFCURVE",
"349 151 CURVE",
"349 142 OFFCURVE",
"349 107 OFFCURVE",
"348 99 CURVE",
"320 63 OFFCURVE",
"268 40 OFFCURVE",
"223 40 CURVE",
"203 40 OFFCURVE",
"136 43 OFFCURVE"
);
},
{
closed = 1;
nodes = (
"112 511 LINE",
"128 525 LINE",
"130 526 OFFCURVE",
"164 527 OFFCURVE",
"175 527 CURVE",
"233 527 OFFCURVE",
"290 530 OFFCURVE",
"290 459 CURVE",
"290 417 OFFCURVE",
"263 390 OFFCURVE",
"230 363 CURVE",
"199 338 OFFCURVE",
"148 343 OFFCURVE",
"112 343 CURVE"
);
}
);
width = 470;
}
);
},
{
glyphname = C.alt01;
lastChange = "2016-01-05 11:26:32 +0000";
layers = (
{
layerId = "D34FCF88-AF1D-4520-8FB0-498E26D42FBC";
name = Regular;
paths = (
{
closed = 1;
nodes = (
"19 245 CURVE",
"19 238 OFFCURVE",
"19 218 OFFCURVE",
"20 216 CURVE",
"21 212 OFFCURVE",
"31 171 OFFCURVE",
"34 157 CURVE",
"38 146 OFFCURVE",
"48 115 OFFCURVE",
"49 113 CURVE",
"61 98 OFFCURVE",
"123 36 OFFCURVE",
"138 25 CURVE",
"153 14 OFFCURVE",
"214 -17 OFFCURVE",
"225 -19 CURVE",
"229 -20 OFFCURVE",
"291 -22 OFFCURVE",
"314 -22 CURVE",
"327 -22 OFFCURVE",
"389 -20 OFFCURVE",
"402 -19 CURVE",
"459 7 OFFCURVE",
"550 64 OFFCURVE",
"550 136 CURVE",
"550 144 OFFCURVE",
"553 172 OFFCURVE",
"534 172 CURVE",
"533 172 OFFCURVE",
"512 162 OFFCURVE",
"505 157 CURVE",
"491 149 OFFCURVE",
"386 78 OFFCURVE",
"373 70 CURVE",
"342 49 OFFCURVE",
"340 54 OFFCURVE",
"300 54 CURVE",
"271 54 OFFCURVE",
"221 53 OFFCURVE",
"196 70 CURVE",
"186 76 OFFCURVE",
"134 128 OFFCURVE",
"123 143 CURVE",
"105 167 OFFCURVE",
"106 206 OFFCURVE",
"106 233 CURVE",
"106 346 OFFCURVE",
"189 527 OFFCURVE",
"323 527 CURVE",
"332 527 OFFCURVE",
"356 525 OFFCURVE",
"358 525 CURVE",
"362 524 OFFCURVE",
"384 498 OFFCURVE",
"388 495 CURVE",
"390 494 OFFCURVE",
"414 483 OFFCURVE",
"417 481 CURVE",
"447 458 OFFCURVE",
"453 436 OFFCURVE",
"498 436 CURVE",
"522 436 OFFCURVE",
"535 476 OFFCURVE",
"535 495 CURVE",
"535 511 OFFCURVE",
"533 528 OFFCURVE",
"520 540 CURVE",
"450 599 OFFCURVE",
"393 614 OFFCURVE",
"305 614 CURVE",
"190 614 OFFCURVE",
"105 524 OFFCURVE",
"64 422 CURVE",
"43 369 OFFCURVE",
"19 304 OFFCURVE"
);
}
);
width = 588;
}
);
},
{
glyphname = D.alt01;
lastChange = "2015-11-26 21:40:01 +0000";
layers = (
{
layerId = "D34FCF88-AF1D-4520-8FB0-498E26D42FBC";
name = Regular;
paths = (
{
closed = 1;
nodes = (
"40 126 CURVE",
"40 107 OFFCURVE",
"40 59 OFFCURVE",
"40 57 CURVE",
"47 -22 OFFCURVE",
"174 -29 OFFCURVE",
"227 -29 CURVE",
"303 -29 OFFCURVE",
"444 -24 OFFCURVE",
"485 57 CURVE",
"487 62 OFFCURVE",
"482 105 OFFCURVE",
"485 109 CURVE",
"490 114 OFFCURVE",
"547 123 OFFCURVE",
"553 125 CURVE",
"556 127 OFFCURVE",
"568 139 OFFCURVE",
"570 143 CURVE",
"615 218 OFFCURVE",
"640 303 OFFCURVE",
"640 391 CURVE",
"640 501 OFFCURVE",
"604 600 OFFCURVE",
"502 657 CURVE",
"426 697 OFFCURVE",
"350 726 OFFCURVE",
"264 726 CURVE",
"218 726 OFFCURVE",
"22 728 OFFCURVE",
"22 665 CURVE",
"22 635 OFFCURVE",
"58 621 OFFCURVE",
"58 591 CURVE",
"58 436 OFFCURVE",
"40 281 OFFCURVE"
);
},
{
closed = 1;
nodes = (
"160 605 CURVE",
"216 622 OFFCURVE",
"244 623 OFFCURVE",
"297 623 CURVE",
"435 623 OFFCURVE",
"538 564 OFFCURVE",
"538 414 CURVE",
"538 349 OFFCURVE",
"520 284 OFFCURVE",
"485 229 CURVE",
"468 201 OFFCURVE",
"420 129 OFFCURVE",
"417 125 CURVE",
"410 120 OFFCURVE",
"363 96 OFFCURVE",
"348 92 CURVE",
"290 74 OFFCURVE",
"199 70 OFFCURVE",
"139 70 CURVE",
"139 248 OFFCURVE",
"147 427 OFFCURVE"
);
}
);
width = 673;
}
);
},
{
glyphname = E.alt01;
lastChange = "2016-01-11 12:35:31 +0000";
layers = (
{
background = {
paths = (
{
closed = 1;
nodes = (
"299 -28 OFFCURVE",
"364 -13 OFFCURVE",
"390 1 CURVE SMOOTH",
"407 10 OFFCURVE",
"416 22 OFFCURVE",
"416 40 CURVE SMOOTH",
"416 63 OFFCURVE",
"401 74 OFFCURVE",
"383 74 CURVE SMOOTH",
"349 74 OFFCURVE",
"308 51 OFFCURVE",
"253 51 CURVE SMOOTH",
"210 51 OFFCURVE",
"157 73 OFFCURVE",
"157 128 CURVE SMOOTH",
"157 151 OFFCURVE",
"160 185 OFFCURVE",
"165 210 CURVE SMOOTH",
"172 245 OFFCURVE",
"185 249 OFFCURVE",
"300 259 CURVE SMOOTH",
"333 262 OFFCURVE",
"349 276 OFFCURVE",
"349 299 CURVE SMOOTH",
"349 326 OFFCURVE",
"333 341 OFFCURVE",
"300 341 CURVE SMOOTH",
"265 341 OFFCURVE",
"221 334 OFFCURVE",
"177 324 CURVE",
"177 485 LINE SMOOTH",
"177 500 OFFCURVE",
"182 503 OFFCURVE",
"194 503 CURVE SMOOTH",
"359 498 LINE SMOOTH",
"385 497 OFFCURVE",
"399 517 OFFCURVE",
"399 536 CURVE SMOOTH",
"399 554 OFFCURVE",
"392 574 OFFCURVE",
"359 575 CURVE SMOOTH",
"163 580 LINE SMOOTH",
"125 580 OFFCURVE",
"88 578 OFFCURVE",
"88 529 CURVE",
"88 499 OFFCURVE",
"98 485 OFFCURVE",
"98 453 CURVE",
"98 286 LINE SMOOTH",
"98 245 OFFCURVE",
"76 197 OFFCURVE",
"76 108 CURVE SMOOTH",
"76 35 OFFCURVE",
"148 -28 OFFCURVE",
"253 -28 CURVE SMOOTH"
);
}
);
};
layerId = "D34FCF88-AF1D-4520-8FB0-498E26D42FBC";
name = Regular;
paths = (
{
closed = 1;
nodes = (
"100 94 CURVE",
"125 -2 OFFCURVE",
"273 -20 OFFCURVE",
"347 -20 CURVE",
"375 -20 OFFCURVE",
"411 -7 OFFCURVE",
"411 24 CURVE",
"411 28 OFFCURVE",
"410 37 OFFCURVE",
"410 38 CURVE",
"407 44 OFFCURVE",
"387 63 OFFCURVE",
"381 65 CURVE",
"362 64 OFFCURVE",
"273 64 OFFCURVE",
"255 65 CURVE",
"245 67 OFFCURVE",
"205 76 OFFCURVE",
"199 80 CURVE",
"190 84 OFFCURVE",
"170 104 OFFCURVE",
"170 108 CURVE",
"170 234 LINE",
"187 236 OFFCURVE",
"266 246 OFFCURVE",
"282 248 CURVE",
"294 250 OFFCURVE",
"333 260 OFFCURVE",
"339 262 CURVE",
"351 266 OFFCURVE",
"354 274 OFFCURVE",
"354 284 CURVE",
"354 285 OFFCURVE",
"354 290 OFFCURVE",
"353 291 CURVE",
"347 299 OFFCURVE",
"328 319 OFFCURVE",
"325 319 CURVE",
"170 319 LINE",
"170 495 LINE",
"367 495 LINE",
"380 495 OFFCURVE",
"383 522 OFFCURVE",
"383 531 CURVE",
"383 535 OFFCURVE",
"382 544 OFFCURVE",
"381 544 CURVE",
"377 553 OFFCURVE",
"357 572 OFFCURVE",
"353 572 CURVE",
"114 572 LINE",
"90 572 OFFCURVE",
"85 386 OFFCURVE",
"85 340 CURVE",
"85 257 OFFCURVE",
"92 180 OFFCURVE"
);
}
);
width = 466;
}
);
},
{
glyphname = F.alt01;
layers = (
{
layerId = "D34FCF88-AF1D-4520-8FB0-498E26D42FBC";
name = Regular;
paths = (
{
closed = 1;
nodes = (
"23 19 CURVE",
"37 -19 OFFCURVE",
"85 -25 OFFCURVE",
"117 -25 CURVE",
"117 215 LINE",
"144 215 OFFCURVE",
"270 205 OFFCURVE",
"297 207 CURVE",
"323 209 OFFCURVE",
"350 235 OFFCURVE",
"350 260 CURVE",
"350 264 OFFCURVE",
"349 275 OFFCURVE",
"348 276 CURVE",
"345 281 OFFCURVE",
"321 293 OFFCURVE",
"314 293 CURVE",
"125 293 LINE",
"125 533 LINE",
"125 533 OFFCURVE",
"222 546 OFFCURVE",
"262 550 CURVE",
"268 550 OFFCURVE",
"309 549 OFFCURVE",
"314 550 CURVE",
"329 551 OFFCURVE",
"401 563 OFFCURVE",
"417 567 CURVE",
"417 571 OFFCURVE",
"420 589 OFFCURVE",
"420 592 CURVE",
"420 599 OFFCURVE",
"417 617 OFFCURVE",
"417 618 CURVE",
"414 623 OFFCURVE",
"390 635 OFFCURVE",
"382 635 CURVE",
"92 635 LINE",
"87 640 OFFCURVE",
"63 653 OFFCURVE",
"57 653 CURVE",
"54 653 OFFCURVE",
"41 640 OFFCURVE",
"40 635 CURVE",
"39 627 OFFCURVE",
"41 558 OFFCURVE",
"40 550 CURVE",
"39 509 OFFCURVE",
"24 180 OFFCURVE",
"23 139 CURVE",
"23 135 OFFCURVE",
"22 93 OFFCURVE",
"22 79 CURVE",
"22 70 OFFCURVE",
"23 28 OFFCURVE"
);
}
);
width = 451;
}
);
},
{
glyphname = H.alt01;
layers = (
{
layerId = "D34FCF88-AF1D-4520-8FB0-498E26D42FBC";
name = Regular;
paths = (
{
closed = 1;
nodes = (
"480 5 CURVE",
"493 -3 OFFCURVE",
"503 -10 OFFCURVE",
"517 -10 CURVE",
"550 -10 OFFCURVE",
"554 45 OFFCURVE",
"554 68 CURVE",
"554 73 OFFCURVE",
"553 91 OFFCURVE",
"553 94 CURVE",
"552 162 OFFCURVE",
"541 482 OFFCURVE",
"539 550 CURVE",
"531 572 OFFCURVE",
"520 595 OFFCURVE",
"495 595 CURVE",
"491 595 OFFCURVE",
"481 594 OFFCURVE",
"480 593 CURVE",
"474 592 OFFCURVE",
"458 581 OFFCURVE",
"458 579 CURVE",
"458 344 LINE",
"458 341 OFFCURVE",
"339 331 OFFCURVE",
"289 329 CURVE",
"263 328 OFFCURVE",
"136 332 OFFCURVE",
"110 332 CURVE",
"110 348 OFFCURVE",
"114 416 OFFCURVE",
"112 432 CURVE",
"111 454 OFFCURVE",
"101 556 OFFCURVE",
"98 579 CURVE",
"95 585 OFFCURVE",
"74 605 OFFCURVE",
"69 608 CURVE",
"68 608 OFFCURVE",
"58 610 OFFCURVE",
"54 610 CURVE",
"51 610 OFFCURVE",
"41 608 OFFCURVE",
"39 608 CURVE",
"37 531 OFFCURVE",
"27 171 OFFCURVE",
"24 94 CURVE",
"24 92 OFFCURVE",
"24 87 OFFCURVE",
"24 85 CURVE",
"24 83 OFFCURVE",
"24 79 OFFCURVE",
"24 79 CURVE",
"30 66 OFFCURVE",
"50 24 OFFCURVE",
"54 20 CURVE",
"58 15 OFFCURVE",
"79 5 OFFCURVE",
"83 5 CURVE",
"92 8 OFFCURVE",
"112 28 OFFCURVE",
"112 35 CURVE",
"112 226 LINE",
"112 228 OFFCURVE",
"154 238 OFFCURVE",
"171 241 CURVE",
"245 253 OFFCURVE",
"323 256 OFFCURVE",
"397 256 CURVE",
"409 256 OFFCURVE",
"436 256 OFFCURVE",
"436 255 CURVE",
"443 254 OFFCURVE",
"463 233 OFFCURVE",
"465 226 CURVE",
"467 221 OFFCURVE",
"465 173 OFFCURVE",
"465 167 CURVE",
"467 143 OFFCURVE",
"477 30 OFFCURVE"
);
}
);
width = 578;
}
);
},
{
glyphname = K.alt01;
layers = (
{
layerId = "D34FCF88-AF1D-4520-8FB0-498E26D42FBC";
name = Regular;
paths = (
{
closed = 1;
nodes = (
"39 15 CURVE",
"47 4 OFFCURVE",
"72 -15 OFFCURVE",
"83 -15 CURVE",
"86 -15 OFFCURVE",
"96 -5 OFFCURVE",
"98 0 CURVE",
"102 10 OFFCURVE",
"112 51 OFFCURVE",
"112 59 CURVE",
"112 61 OFFCURVE",
"114 108 OFFCURVE",
"114 127 CURVE",
"114 251 OFFCURVE",
"108 378 OFFCURVE",
"98 500 CURVE",
"96 530 OFFCURVE",
"96 589 OFFCURVE",
"54 589 CURVE",
"40 589 OFFCURVE",
"24 585 OFFCURVE",
"24 568 CURVE",
"24 384 OFFCURVE",
"44 199 OFFCURVE"
);
},
{
closed = 1;
nodes = (
"147 294 CURVE SMOOTH",
"147 285 OFFCURVE",
"165 255 OFFCURVE",
"176 250 CURVE SMOOTH",
"180 248 OFFCURVE",
"216 238 OFFCURVE",
"220 235 CURVE SMOOTH",
"229 229 OFFCURVE",
"291 177 OFFCURVE",
"309 162 CURVE SMOOTH",
"326 146 OFFCURVE",
"398 73 OFFCURVE",
"411 59 CURVE SMOOTH",
"417 54 OFFCURVE",
"449 5 OFFCURVE",
"456 0 CURVE SMOOTH",
"462 -5 OFFCURVE",
"503 -15 OFFCURVE",
"514 -15 CURVE SMOOTH",
"530 -15 OFFCURVE",
"530 5 OFFCURVE",
"530 15 CURVE SMOOTH",
"530 33 OFFCURVE",
"527 42 OFFCURVE",
"514 59 CURVE",
"482 89 OFFCURVE",
"339 233 OFFCURVE",
"309 264 CURVE SMOOTH",
"303 271 OFFCURVE",
"283 301 OFFCURVE",
"279 309 CURVE",
"290 322 OFFCURVE",
"342 384 OFFCURVE",
"352 397 CURVE SMOOTH",
"384 436 OFFCURVE",
"427 503 OFFCURVE",
"427 551 CURVE SMOOTH",
"427 575 OFFCURVE",
"423 589 OFFCURVE",
"397 589 CURVE SMOOTH",
"380 589 OFFCURVE",
"378 589 OFFCURVE",
"367 573 CURVE SMOOTH",
"362 565 OFFCURVE",
"314 494 OFFCURVE",
"309 485 CURVE",
"299 472 OFFCURVE",
"268 431 OFFCURVE",
"264 426 CURVE SMOOTH",
"255 416 OFFCURVE",
"171 334 OFFCURVE",
"161 323 CURVE SMOOTH",
"157 319 OFFCURVE",
"147 298 OFFCURVE"
);
}
);
width = 553;
}
);
},
{
glyphname = L.alt01;
layers = (
{
layerId = "D34FCF88-AF1D-4520-8FB0-498E26D42FBC";
name = Regular;
paths = (
{
closed = 1;
nodes = (
"64 490 CURVE",
"93 49 LINE",
"94 45 OFFCURVE",
"115 25 OFFCURVE",
"123 19 CURVE",
"128 16 OFFCURVE",
"159 6 OFFCURVE",
"167 5 CURVE",
"180 3 OFFCURVE",
"283 -8 OFFCURVE",
"314 -10 CURVE",
"316 -10 OFFCURVE",
"332 -11 OFFCURVE",
"338 -11 CURVE",
"377 -11 OFFCURVE",
"418 -2 OFFCURVE",
"418 41 CURVE",
"418 50 OFFCURVE",
"420 78 OFFCURVE",
"402 78 CURVE",
"196 78 LINE",
"182 93 LINE",
"180 93 OFFCURVE",
"170 207 OFFCURVE",
"167 255 CURVE",
"167 258 OFFCURVE",
"167 281 OFFCURVE",
"167 284 CURVE",
"164 331 OFFCURVE",
"154 465 OFFCURVE",
"152 475 CURVE",
"144 538 OFFCURVE",
"96 603 OFFCURVE",
"28 603 CURVE",
"28 559 OFFCURVE",
"37 526 OFFCURVE"
);
}
);
width = 441;
}
);
},
{
glyphname = O.alt01;
layers = (
{
layerId = "D34FCF88-AF1D-4520-8FB0-498E26D42FBC";
name = Regular;
paths = (
{
closed = 1;
nodes = (
"19 258 CURVE",
"19 126 OFFCURVE",
"118 39 OFFCURVE",
"225 -21 CURVE",
"258 -39 OFFCURVE",
"280 -37 OFFCURVE",
"314 -37 CURVE",
"419 -37 OFFCURVE",
"476 47 OFFCURVE",
"549 111 CURVE",
"552 113 OFFCURVE",
"576 124 OFFCURVE",
"579 126 CURVE",
"591 136 OFFCURVE",
"632 177 OFFCURVE",
"637 184 CURVE",
"660 216 OFFCURVE",
"667 298 OFFCURVE",
"667 332 CURVE",
"667 355 OFFCURVE",
"665 365 OFFCURVE",
"652 391 CURVE",
"608 480 OFFCURVE",
"508 627 OFFCURVE",
"394 627 CURVE",
"390 627 OFFCURVE",
"374 625 OFFCURVE",
"373 625 CURVE",
"337 620 OFFCURVE",
"234 599 OFFCURVE",
"225 596 CURVE",
"222 595 OFFCURVE",
"170 553 OFFCURVE",
"152 537 CURVE",
"141 528 OFFCURVE",
"111 497 OFFCURVE",
"108 493 CURVE",
"104 488 OFFCURVE",
"73 426 OFFCURVE",
"64 405 CURVE",
"45 363 OFFCURVE",
"19 306 OFFCURVE"
);
},
{
closed = 1;
nodes = (
"107 221 CURVE",
"107 327 OFFCURVE",
"159 426 OFFCURVE",
"240 493 CURVE",
"245 497 OFFCURVE",
"265 507 OFFCURVE",
"270 508 CURVE",
"283 511 OFFCURVE",
"389 520 OFFCURVE",
"402 523 CURVE",
"405 523 OFFCURVE",
"428 537 OFFCURVE",
"431 537 CURVE",
"435 537 OFFCURVE",
"456 527 OFFCURVE",
"461 523 CURVE",
"526 469 OFFCURVE",
"566 420 OFFCURVE",
"566 334 CURVE",
"566 319 OFFCURVE",
"564 276 OFFCURVE",
"564 273 CURVE",
"563 267 OFFCURVE",
"542 215 OFFCURVE",
"534 199 CURVE",
"533 198 OFFCURVE",
"524 187 OFFCURVE",
"520 184 CURVE",
"452 130 OFFCURVE",
"380 51 OFFCURVE",
"284 51 CURVE",
"229 51 OFFCURVE",
"115 111 OFFCURVE",
"108 170 CURVE",
"108 172 OFFCURVE",
"107 207 OFFCURVE"
);
}
);
width = 691;
}
);
},
{
glyphname = Q.alt01;
layers = (
{
layerId = "D34FCF88-AF1D-4520-8FB0-498E26D42FBC";
name = Regular;
paths = (
{
closed = 1;
nodes = (
"165 40 CURVE",
"165 -36 OFFCURVE",
"271 -4 OFFCURVE",
"314 -13 CURVE",
"316 -14 OFFCURVE",
"347 -34 OFFCURVE",
"358 -42 CURVE",
"367 -49 OFFCURVE",
"418 -90 OFFCURVE",
"431 -101 CURVE",
"433 -102 OFFCURVE",
"444 -115 OFFCURVE",
"446 -116 CURVE",
"455 -120 OFFCURVE",
"517 -141 OFFCURVE",
"534 -145 CURVE",
"535 -145 OFFCURVE",
"540 -146 OFFCURVE",
"542 -146 CURVE",
"589 -146 OFFCURVE",
"640 -107 OFFCURVE",
"666 -72 CURVE",
"666 -71 OFFCURVE",
"667 -66 OFFCURVE",
"667 -65 CURVE",
"667 -45 OFFCURVE",
"660 -26 OFFCURVE",
"639 -26 CURVE",
"598 -26 OFFCURVE",
"568 -58 OFFCURVE",
"527 -58 CURVE",
"477 -58 OFFCURVE",
"436 -15 OFFCURVE",
"402 17 CURVE",
"401 18 OFFCURVE",
"400 29 OFFCURVE",
"400 31 CURVE",
"400 34 OFFCURVE",
"401 45 OFFCURVE",
"402 46 CURVE",
"405 52 OFFCURVE",
"443 99 OFFCURVE",
"446 105 CURVE",
"491 177 OFFCURVE",
"521 272 OFFCURVE",
"521 357 CURVE",
"521 476 OFFCURVE",
"450 571 OFFCURVE",
"329 590 CURVE",
"326 590 OFFCURVE",
"290 592 OFFCURVE",
"277 592 CURVE",
"269 592 OFFCURVE",
"233 590 OFFCURVE",
"225 590 CURVE",
"225 585 OFFCURVE",
"214 564 OFFCURVE",
"211 560 CURVE",
"201 550 OFFCURVE",
"118 469 OFFCURVE",
"108 457 CURVE",
"52 396 OFFCURVE",
"33 338 OFFCURVE",
"33 257 CURVE",
"33 209 OFFCURVE",
"23 118 OFFCURVE",
"79 90 CURVE",
"93 105 LINE",
"94 131 OFFCURVE",
"105 255 OFFCURVE",
"108 281 CURVE",
"109 289 OFFCURVE",
"119 319 OFFCURVE",
"123 325 CURVE",
"135 345 OFFCURVE",
"197 427 OFFCURVE",
"211 443 CURVE",
"245 481 OFFCURVE",
"290 488 OFFCURVE",
"336 488 CURVE",
"344 488 OFFCURVE",
"380 488 OFFCURVE",
"388 487 CURVE",
"431 461 OFFCURVE",
"433 411 OFFCURVE",
"433 366 CURVE",
"433 355 OFFCURVE",
"432 326 OFFCURVE",
"431 325 CURVE",
"430 314 OFFCURVE",
"399 221 OFFCURVE",
"388 193 CURVE",
"383 182 OFFCURVE",
"362 141 OFFCURVE",
"358 134 CURVE",
"349 123 OFFCURVE",
"319 92 OFFCURVE",
"314 90 CURVE",
"303 86 OFFCURVE",
"208 78 OFFCURVE",
"196 75 CURVE",
"189 74 OFFCURVE",
"168 63 OFFCURVE",
"167 60 CURVE",
"167 60 OFFCURVE",
"165 46 OFFCURVE"
);
}
);
width = 681;
}
);
},
{
glyphname = R.alt01;
layers = (
{
layerId = "D34FCF88-AF1D-4520-8FB0-498E26D42FBC";
name = Regular;
paths = (
{
closed = 1;
nodes = (
"39 -8 CURVE",
"47 -18 OFFCURVE",
"72 -37 OFFCURVE",
"83 -37 CURVE",
"92 -37 OFFCURVE",
"112 -27 OFFCURVE",
"112 -22 CURVE",
"112 183 LINE",
"112 185 OFFCURVE",
"154 196 OFFCURVE",
"171 199 CURVE",
"173 199 OFFCURVE",
"183 199 OFFCURVE",
"187 199 CURVE",
"190 199 OFFCURVE",
"200 199 OFFCURVE",
"201 199 CURVE",
"215 194 OFFCURVE",
"256 173 OFFCURVE",
"260 169 CURVE",
"268 161 OFFCURVE",
"313 76 OFFCURVE",
"319 66 CURVE",
"336 36 OFFCURVE",
"358 -8 OFFCURVE",
"398 -8 CURVE",
"414 -8 OFFCURVE",
"436 -8 OFFCURVE",
"436 15 CURVE",
"436 50 OFFCURVE",
"395 95 OFFCURVE",
"378 125 CURVE",
"373 132 OFFCURVE",
"336 190 OFFCURVE",
"333 199 CURVE",
"332 199 OFFCURVE",
"332 209 OFFCURVE",
"332 212 CURVE",
"332 216 OFFCURVE",
"332 227 OFFCURVE",
"333 228 CURVE",
"335 235 OFFCURVE",
"362 293 OFFCURVE",
"362 301 CURVE",
"363 303 OFFCURVE",
"364 342 OFFCURVE",
"364 357 CURVE",
"364 450 OFFCURVE",
"342 504 OFFCURVE",
"260 551 CURVE",
"245 559 OFFCURVE",
"204 580 OFFCURVE",
"201 581 CURVE",
"199 581 OFFCURVE",
"171 582 OFFCURVE",
"161 582 CURVE",
"115 582 OFFCURVE",
"48 585 OFFCURVE",
"24 537 CURVE",
"24 517 OFFCURVE",
"24 424 OFFCURVE",
"24 404 CURVE",
"24 371 OFFCURVE",
"24 278 OFFCURVE",
"24 272 CURVE",
"25 230 OFFCURVE",
"36 34 OFFCURVE"
);
},
{
closed = 1;
nodes = (
"171 494 CURVE",
"255 494 OFFCURVE",
"276 465 OFFCURVE",
"276 382 CURVE",
"276 375 OFFCURVE",
"275 339 OFFCURVE",
"274 331 CURVE",
"245 291 OFFCURVE",
"218 285 OFFCURVE",
"171 285 CURVE",
"159 285 OFFCURVE",
"129 286 OFFCURVE",
"128 287 CURVE",
"123 287 OFFCURVE",
"112 297 OFFCURVE",
"112 301 CURVE",
"112 478 LINE",
"112 482 OFFCURVE",
"123 492 OFFCURVE",
"128 492 CURVE",
"129 493 OFFCURVE",
"159 494 OFFCURVE"
);
}
);
width = 456;
}
);
},
{
glyphname = S.alt01;
layers = (
{
layerId = "D34FCF88-AF1D-4520-8FB0-498E26D42FBC";
name = Regular;
paths = (
{
closed = 1;
nodes = (
"16 176 CURVE",
"16 27 OFFCURVE",
"156 -55 OFFCURVE",
"290 -55 CURVE",
"306 -55 OFFCURVE",
"378 -43 OFFCURVE",
"394 -38 CURVE",
"415 -31 OFFCURVE",
"487 5 OFFCURVE",
"496 14 CURVE",
"506 22 OFFCURVE",
"542 83 OFFCURVE",
"547 99 CURVE",
"548 101 OFFCURVE",
"550 130 OFFCURVE",
"550 140 CURVE",
"550 284 OFFCURVE",
"407 338 OFFCURVE",
"308 407 CURVE",
"301 412 OFFCURVE",
"277 436 OFFCURVE",
"274 441 CURVE",
"253 475 OFFCURVE",
"255 507 OFFCURVE",
"255 544 CURVE",
"255 595 OFFCURVE",
"261 633 OFFCURVE",
"308 663 CURVE",
"321 672 OFFCURVE",
"368 696 OFFCURVE",
"376 698 CURVE",
"389 701 OFFCURVE",
"449 689 OFFCURVE",
"462 689 CURVE",
"462 544 LINE",
"462 542 OFFCURVE",
"474 530 OFFCURVE",
"478 527 CURVE",
"488 521 OFFCURVE",
"511 509 OFFCURVE",
"513 510 CURVE",
"521 512 OFFCURVE",
"545 536 OFFCURVE",
"547 544 CURVE",
"554 566 OFFCURVE",
"578 674 OFFCURVE",
"582 698 CURVE",
"582 700 OFFCURVE",
"583 731 OFFCURVE",
"583 741 CURVE",
"583 775 OFFCURVE",
"591 783 OFFCURVE",
"564 800 CURVE",
"556 806 OFFCURVE",
"532 819 OFFCURVE",
"530 818 CURVE",
"526 816 OFFCURVE",
"501 784 OFFCURVE",
"496 783 CURVE",
"489 783 OFFCURVE",
"434 800 OFFCURVE",
"427 800 CURVE",
"425 801 OFFCURVE",
"395 802 OFFCURVE",
"384 802 CURVE",
"273 802 OFFCURVE",
"153 715 OFFCURVE",
"153 595 CURVE",
"153 517 OFFCURVE",
"173 435 OFFCURVE",
"222 373 CURVE",
"273 310 OFFCURVE",
"445 258 OFFCURVE",
"445 176 CURVE",
"445 97 OFFCURVE",
"316 47 OFFCURVE",
"258 47 CURVE",
"225 47 OFFCURVE",
"176 55 OFFCURVE",
"154 65 CURVE",
"145 69 OFFCURVE",
"122 92 OFFCURVE",
"119 99 CURVE",
"86 253 LINE",
"86 254 OFFCURVE",
"80 254 OFFCURVE",
"79 254 CURVE",
"34 254 OFFCURVE",
"16 216 OFFCURVE"
);
}
);
width = 616;
}
);
},
{
glyphname = T.alt01;
layers = (
{
layerId = "D34FCF88-AF1D-4520-8FB0-498E26D42FBC";
name = Regular;
paths = (
{
closed = 1;
nodes = (
"264 478 LINE",
"264 -8 LINE",
"264 -9 OFFCURVE",
"285 -19 OFFCURVE",
"293 -22 CURVE",
"294 -22 OFFCURVE",
"300 -23 OFFCURVE",
"302 -23 CURVE",
"312 -23 OFFCURVE",
"317 -20 OFFCURVE",
"323 -8 CURVE",
"326 63 OFFCURVE",
"336 392 OFFCURVE",
"338 463 CURVE",
"338 465 OFFCURVE",
"336 490 OFFCURVE",
"338 492 CURVE",
"369 540 OFFCURVE",
"588 485 OFFCURVE",
"588 566 CURVE",
"588 572 OFFCURVE",
"578 592 OFFCURVE",
"573 595 CURVE",
"573 595 OFFCURVE",
"564 595 OFFCURVE",
"561 595 CURVE",
"557 595 OFFCURVE",
"545 595 OFFCURVE",
"543 595 CURVE",
"466 589 OFFCURVE",
"106 558 OFFCURVE",
"29 551 CURVE",
"14 546 OFFCURVE",
"14 534 OFFCURVE",
"14 522 CURVE",
"14 478 OFFCURVE",
"75 477 OFFCURVE",
"109 477 CURVE",
"157 477 OFFCURVE",
"199 485 OFFCURVE",
"250 492 CURVE"
);
}
);
width = 602;
}
);
},
{
glyphname = U.alt01;
layers = (
{
layerId = "D34FCF88-AF1D-4520-8FB0-498E26D42FBC";
name = Regular;
paths = (
{
closed = 1;
nodes = (
"24 203 CURVE",
"24 105 OFFCURVE",
"70 14 OFFCURVE",
"171 -9 CURVE",
"193 -14 OFFCURVE",
"255 -24 OFFCURVE",
"260 -24 CURVE",
"271 -23 OFFCURVE",
"332 -2 OFFCURVE",
"348 5 CURVE",
"358 11 OFFCURVE",
"399 41 OFFCURVE",
"407 50 CURVE",
"480 -9 LINE",
"484 -12 OFFCURVE",
"504 -2 OFFCURVE",
"510 5 CURVE",
"510 5 OFFCURVE",
"510 14 OFFCURVE",
"510 18 CURVE",
"510 21 OFFCURVE",
"510 34 OFFCURVE",
"510 35 CURVE",
"508 57 OFFCURVE",
"495 234 OFFCURVE",
"495 255 CURVE",
"493 302 OFFCURVE",
"493 518 OFFCURVE",
"495 564 CURVE",
"488 576 OFFCURVE",
"462 594 OFFCURVE",
"451 594 CURVE",
"448 594 OFFCURVE",
"437 583 OFFCURVE",
"436 579 CURVE",
"433 569 OFFCURVE",
"423 517 OFFCURVE",
"421 505 CURVE",
"418 462 OFFCURVE",
"407 255 OFFCURVE",
"407 212 CURVE",
"384 156 OFFCURVE",
"312 64 OFFCURVE",
"246 64 CURVE",
"206 64 OFFCURVE",
"160 70 OFFCURVE",
"128 94 CURVE",
"112 153 OFFCURVE",
"112 184 OFFCURVE",
"112 241 CURVE",
"112 321 OFFCURVE",
"128 396 OFFCURVE",
"128 476 CURVE",
"128 489 OFFCURVE",
"128 551 OFFCURVE",
"128 564 CURVE",
"118 579 OFFCURVE",
"109 595 OFFCURVE",
"91 595 CURVE",
"71 595 OFFCURVE",
"59 563 OFFCURVE",
"54 550 CURVE",
"50 499 OFFCURVE",
"29 262 OFFCURVE",
"24 212 CURVE",
"24 211 OFFCURVE",
"24 206 OFFCURVE"
);
}
);
width = 534;
}
);
},
{
glyphname = W.alt01;
layers = (
{
layerId = "D34FCF88-AF1D-4520-8FB0-498E26D42FBC";
name = Regular;
paths = (
{
closed = 1;
nodes = (
"182 24 CURVE",
"184 19 OFFCURVE",
"205 -2 OFFCURVE",
"211 -5 CURVE",
"212 -5 OFFCURVE",
"221 -6 OFFCURVE",
"225 -6 CURVE",
"240 -6 OFFCURVE",
"247 -5 OFFCURVE",
"255 10 CURVE",
"264 28 OFFCURVE",
"334 170 OFFCURVE",
"343 186 CURVE",
"360 218 OFFCURVE",
"443 362 OFFCURVE",
"461 392 CURVE",
"463 388 OFFCURVE",
"474 368 OFFCURVE",
"475 363 CURVE",
"498 313 OFFCURVE",
"601 76 OFFCURVE",
"622 24 CURVE",
"639 11 OFFCURVE",
"650 9 OFFCURVE",
"667 9 CURVE",
"672 9 OFFCURVE",
"681 10 OFFCURVE",
"681 10 CURVE",
"687 13 OFFCURVE",
"708 34 OFFCURVE",
"711 40 CURVE",
"738 99 OFFCURVE",
"861 377 OFFCURVE",
"887 436 CURVE",
"895 455 OFFCURVE",
"916 517 OFFCURVE",
"916 524 CURVE",
"919 549 OFFCURVE",
"901 583 OFFCURVE",
"872 583 CURVE",
"830 583 OFFCURVE",
"837 535 OFFCURVE",
"829 510 CURVE",
"825 500 OFFCURVE",
"804 448 OFFCURVE",
"799 436 CURVE",
"760 352 OFFCURVE",
"668 157 OFFCURVE",
"666 157 CURVE",
"652 157 LINE",
"650 157 OFFCURVE",
"599 260 OFFCURVE",
"579 304 CURVE",
"542 382 OFFCURVE",
"540 472 OFFCURVE",
"520 554 CURVE",
"516 567 OFFCURVE",
"501 599 OFFCURVE",
"483 599 CURVE",
"445 599 OFFCURVE",
"432 522 OFFCURVE",
"417 495 CURVE",
"405 475 OFFCURVE",
"310 310 OFFCURVE",
"299 290 CURVE",
"290 272 OFFCURVE",
"248 190 OFFCURVE",
"240 172 CURVE",
"225 172 LINE",
"216 208 OFFCURVE",
"164 372 OFFCURVE",
"152 407 CURVE",
"148 422 OFFCURVE",
"116 494 OFFCURVE",
"108 510 CURVE",
"97 532 OFFCURVE",
"78 570 OFFCURVE",
"48 570 CURVE",
"44 570 OFFCURVE",
"35 569 OFFCURVE",
"34 569 CURVE",
"29 566 OFFCURVE",
"19 545 OFFCURVE",
"20 540 CURVE",
"21 531 OFFCURVE",
"47 473 OFFCURVE",
"49 465 CURVE",
"70 400 OFFCURVE",
"163 92 OFFCURVE"
);
}
);
width = 941;
}
);
},
{
glyphname = B.alt02;
layers = (
{
layerId = "D34FCF88-AF1D-4520-8FB0-498E26D42FBC";
name = Regular;
paths = (
{
closed = 1;
nodes = (
"149 627 CURVE",
"148 627 OFFCURVE",
"142 627 OFFCURVE",
"142 627 CURVE",
"120 624 OFFCURVE",
"58 614 OFFCURVE",
"54 612 CURVE",
"43 609 OFFCURVE",
"24 574 OFFCURVE",
"24 569 CURVE",
"24 83 LINE",
"24 73 OFFCURVE",
"34 32 OFFCURVE",
"39 24 CURVE",
"42 20 OFFCURVE",
"73 -11 OFFCURVE",
"83 -20 CURVE",
"110 -41 OFFCURVE",
"131 -36 OFFCURVE",
"166 -36 CURVE",
"287 -36 OFFCURVE",
"408 26 OFFCURVE",
"408 159 CURVE",
"408 230 OFFCURVE",
"368 261 OFFCURVE",
"333 319 CURVE",
"333 319 OFFCURVE",
"332 323 OFFCURVE",
"332 325 CURVE",
"332 366 OFFCURVE",
"349 395 OFFCURVE",
"349 445 CURVE",
"349 458 OFFCURVE",
"349 493 OFFCURVE",
"348 495 CURVE",
"348 497 OFFCURVE",
"338 517 OFFCURVE",
"333 524 CURVE",
"294 590 OFFCURVE",
"228 627 OFFCURVE"
);
},
{
closed = 1;
nodes = (
"112 274 LINE",
"135 274 OFFCURVE",
"238 263 OFFCURVE",
"260 260 CURVE",
"298 254 OFFCURVE",
"320 212 OFFCURVE",
"320 177 CURVE",
"320 172 OFFCURVE",
"319 158 OFFCURVE",
"319 157 CURVE",
"290 72 OFFCURVE",
"190 45 OFFCURVE",
"112 45 CURVE"
);
},
{
closed = 1;
nodes = (
"179 540 CURVE",
"180 540 OFFCURVE",
"186 539 OFFCURVE",
"186 539 CURVE",
"203 536 OFFCURVE",
"244 525 OFFCURVE",
"245 524 CURVE",
"248 522 OFFCURVE",
"268 482 OFFCURVE",
"274 465 CURVE",
"274 465 OFFCURVE",
"275 460 OFFCURVE",
"275 458 CURVE",
"275 456 OFFCURVE",
"274 451 OFFCURVE",
"274 451 CURVE",
"260 416 OFFCURVE",
"245 372 OFFCURVE",
"201 362 CURVE",
"187 360 OFFCURVE",
"126 353 OFFCURVE",
"112 353 CURVE",
"112 524 LINE",
"112 525 OFFCURVE",
"154 536 OFFCURVE",
"171 539 CURVE",
"172 539 OFFCURVE",
"177 540 OFFCURVE"
);
}
);
width = 431;
}
);
},
{
glyphname = D.alt02;
layers = (
{
layerId = "D34FCF88-AF1D-4520-8FB0-498E26D42FBC";
name = Regular;
paths = (
{
closed = 1;
nodes = (
"153 90 CURVE",
"153 41 OFFCURVE",
"166 -10 OFFCURVE",
"222 -23 CURVE",
"265 -32 OFFCURVE",
"322 -41 OFFCURVE",
"371 -41 CURVE",
"377 -41 OFFCURVE",
"393 -40 OFFCURVE",
"394 -40 CURVE",
"404 -37 OFFCURVE",
"485 8 OFFCURVE",
"496 11 CURVE",
"504 15 OFFCURVE",
"574 24 OFFCURVE",
"582 29 CURVE",
"587 31 OFFCURVE",
"635 79 OFFCURVE",
"650 97 CURVE",
"708 165 OFFCURVE",
"719 242 OFFCURVE",
"719 329 CURVE",
"719 445 OFFCURVE",
"670 569 OFFCURVE",
"598 662 CURVE",
"565 705 OFFCURVE",
"430 748 OFFCURVE",
"380 748 CURVE",
"265 748 OFFCURVE",
"128 712 OFFCURVE",
"34 645 CURVE",
"28 640 OFFCURVE",
"16 616 OFFCURVE",
"17 611 CURVE",
"18 603 OFFCURVE",
"43 579 OFFCURVE",
"51 576 CURVE",
"52 576 OFFCURVE",
"74 575 OFFCURVE",
"83 575 CURVE",
"116 575 OFFCURVE",
"138 576 OFFCURVE",
"170 593 CURVE",
"168 527 OFFCURVE",
"156 216 OFFCURVE",
"154 148 CURVE",
"154 144 OFFCURVE",
"153 103 OFFCURVE"
);
},
{
closed = 1;
nodes = (
"376 645 CURVE",
"416 645 OFFCURVE",
"461 637 OFFCURVE",
"496 627 CURVE",
"550 614 OFFCURVE",
"580 536 OFFCURVE",
"598 491 CURVE",
"604 478 OFFCURVE",
"627 407 OFFCURVE",
"633 388 CURVE",
"633 388 OFFCURVE",
"634 382 OFFCURVE",
"634 380 CURVE",
"634 301 OFFCURVE",
"609 203 OFFCURVE",
"547 148 CURVE",
"533 135 OFFCURVE",
"461 87 OFFCURVE",
"445 80 CURVE",
"436 76 OFFCURVE",
"377 65 OFFCURVE",
"359 63 CURVE",
"341 61 OFFCURVE",
"256 58 OFFCURVE",
"238 58 CURVE",
"238 66 OFFCURVE",
"239 106 OFFCURVE",
"239 114 CURVE",
"243 225 OFFCURVE",
"255 524 OFFCURVE",
"256 542 CURVE",
"258 564 OFFCURVE",
"270 624 OFFCURVE",
"274 627 CURVE",
"275 629 OFFCURVE",
"335 641 OFFCURVE",
"359 645 CURVE",
"360 645 OFFCURVE",
"371 645 OFFCURVE"
);
}
);
width = 753;
}
);
},
{
glyphname = E.alt02;
lastChange = "2016-01-11 12:35:35 +0000";
layers = (
{
background = {
paths = (
{
closed = 1;
nodes = (
"299 -28 OFFCURVE",
"364 -13 OFFCURVE",
"390 1 CURVE SMOOTH",
"407 10 OFFCURVE",
"416 22 OFFCURVE",
"416 40 CURVE SMOOTH",
"416 63 OFFCURVE",
"401 74 OFFCURVE",
"383 74 CURVE SMOOTH",
"349 74 OFFCURVE",
"308 51 OFFCURVE",
"253 51 CURVE SMOOTH",
"210 51 OFFCURVE",
"157 73 OFFCURVE",
"157 128 CURVE SMOOTH",
"157 151 OFFCURVE",
"160 185 OFFCURVE",
"165 210 CURVE SMOOTH",
"172 245 OFFCURVE",
"185 249 OFFCURVE",
"300 259 CURVE SMOOTH",
"333 262 OFFCURVE",
"349 276 OFFCURVE",
"349 299 CURVE SMOOTH",
"349 326 OFFCURVE",
"333 341 OFFCURVE",
"300 341 CURVE SMOOTH",
"265 341 OFFCURVE",
"221 334 OFFCURVE",
"177 324 CURVE",
"177 485 LINE SMOOTH",
"177 500 OFFCURVE",
"182 503 OFFCURVE",
"194 503 CURVE SMOOTH",
"359 498 LINE SMOOTH",
"385 497 OFFCURVE",
"399 517 OFFCURVE",
"399 536 CURVE SMOOTH",
"399 554 OFFCURVE",
"392 574 OFFCURVE",
"359 575 CURVE SMOOTH",
"163 580 LINE SMOOTH",
"125 580 OFFCURVE",
"88 578 OFFCURVE",
"88 529 CURVE",
"88 499 OFFCURVE",
"98 485 OFFCURVE",
"98 453 CURVE",
"98 286 LINE SMOOTH",
"98 245 OFFCURVE",
"76 197 OFFCURVE",
"76 108 CURVE SMOOTH",
"76 35 OFFCURVE",
"148 -28 OFFCURVE",
"253 -28 CURVE SMOOTH"
);
}
);
};
layerId = "D34FCF88-AF1D-4520-8FB0-498E26D42FBC";
name = Regular;
paths = (
{
closed = 1;
nodes = (
"94 191 LINE",
"94 187 OFFCURVE",
"104 128 OFFCURVE",
"109 106 CURVE",
"118 59 OFFCURVE",
"129 22 OFFCURVE",
"179 8 CURVE",
"214 -2 OFFCURVE",
"233 -8 OFFCURVE",
"262 -8 CURVE",
"266 -8 OFFCURVE",
"277 -7 OFFCURVE",
"278 -7 CURVE",
"299 -5 OFFCURVE",
"397 5 OFFCURVE",
"418 8 CURVE",
"437 12 OFFCURVE",
"434 33 OFFCURVE",
"434 44 CURVE",
"434 50 OFFCURVE",
"434 63 OFFCURVE",
"434 63 CURVE",
"431 68 OFFCURVE",
"411 78 OFFCURVE",
"405 78 CURVE",
"194 78 LINE",
"190 78 OFFCURVE",
"181 107 OFFCURVE",
"179 120 CURVE",
"179 123 OFFCURVE",
"179 162 OFFCURVE",
"179 176 CURVE",
"179 185 OFFCURVE",
"179 224 OFFCURVE",
"179 233 CURVE",
"184 237 OFFCURVE",
"214 247 OFFCURVE",
"222 247 CURVE",
"231 247 OFFCURVE",
"311 245 OFFCURVE",
"321 247 CURVE",
"324 248 OFFCURVE",
"354 278 OFFCURVE",
"362 290 CURVE",
"363 290 OFFCURVE",
"364 294 OFFCURVE",
"364 296 CURVE",
"364 297 OFFCURVE",
"363 303 OFFCURVE",
"362 303 CURVE",
"357 313 OFFCURVE",
"337 332 OFFCURVE",
"334 332 CURVE",
"179 332 LINE",
"179 486 LINE",
"179 490 OFFCURVE",
"209 500 OFFCURVE",
"222 501 CURVE",
"245 503 OFFCURVE",
"353 503 OFFCURVE",
"377 501 CURVE",
"390 505 OFFCURVE",
"420 518 OFFCURVE",
"420 536 CURVE",
"420 552 OFFCURVE",
"406 562 OFFCURVE",
"391 571 CURVE",
"374 572 OFFCURVE",
"295 573 OFFCURVE",
"278 573 CURVE",
"249 573 OFFCURVE",
"169 572 OFFCURVE",
"165 571 CURVE",
"148 571 OFFCURVE",
"109 561 OFFCURVE",
"109 557 CURVE"
);
}
);
width = 489;
}
);
},
{
glyphname = F.alt02;
layers = (
{
layerId = "D34FCF88-AF1D-4520-8FB0-498E26D42FBC";
name = Regular;
paths = (
{
closed = 1;
nodes = (
"64 40 CURVE",
"70 3 OFFCURVE",
"106 -8 OFFCURVE",
"138 -8 CURVE",
"138 201 LINE",
"160 203 OFFCURVE",
"262 213 OFFCURVE",
"284 216 CURVE",
"295 217 OFFCURVE",
"336 228 OFFCURVE",
"343 231 CURVE",
"355 235 OFFCURVE",
"358 242 OFFCURVE",
"358 252 CURVE",
"358 271 OFFCURVE",
"344 293 OFFCURVE",
"329 304 CURVE",
"306 303 OFFCURVE",
"203 303 OFFCURVE",
"182 304 CURVE",
"168 305 OFFCURVE",
"138 316 OFFCURVE",
"138 319 CURVE",
"138 510 LINE",
"412 510 LINE",
"412 536 OFFCURVE",
"400 572 OFFCURVE",
"373 583 CURVE",
"301 592 OFFCURVE",
"246 598 OFFCURVE",
"180 598 CURVE",
"173 598 OFFCURVE",
"154 598 OFFCURVE",
"152 598 CURVE",
"135 597 OFFCURVE",
"52 586 OFFCURVE",
"34 583 CURVE",
"22 577 OFFCURVE",
"19 572 OFFCURVE",
"19 562 CURVE",
"19 533 OFFCURVE",
"47 511 OFFCURVE",
"49 481 CURVE",
"50 463 OFFCURVE",
"49 322 OFFCURVE",
"49 304 CURVE",
"50 264 OFFCURVE",
"61 79 OFFCURVE"
);
}
);
width = 431;
}
);
},
{
glyphname = H.alt02;
layers = (
{
layerId = "D34FCF88-AF1D-4520-8FB0-498E26D42FBC";
name = Regular;
paths = (
{
closed = 1;
nodes = (
"414 243 CURVE",
"414 9 LINE",
"414 8 OFFCURVE",
"440 -3 OFFCURVE",
"451 -5 CURVE",
"452 -5 OFFCURVE",
"462 -6 OFFCURVE",
"466 -6 CURVE",
"475 -6 OFFCURVE",
"495 -7 OFFCURVE",
"495 9 CURVE",
"495 539 LINE",
"451 582 LINE",
"446 579 OFFCURVE",
"425 559 OFFCURVE",
"421 553 CURVE",
"420 553 OFFCURVE",
"421 540 OFFCURVE",
"421 539 CURVE",
"420 512 OFFCURVE",
"409 389 OFFCURVE",
"407 362 CURVE",
"384 329 OFFCURVE",
"326 318 OFFCURVE",
"290 318 CURVE",
"287 318 OFFCURVE",
"275 318 OFFCURVE",
"274 318 CURVE",
"228 322 OFFCURVE",
"120 332 OFFCURVE",
"120 333 CURVE",
"120 524 LINE",
"120 540 OFFCURVE",
"86 569 OFFCURVE",
"69 569 CURVE",
"57 569 OFFCURVE",
"44 569 OFFCURVE",
"39 553 CURVE",
"44 404 OFFCURVE",
"24 271 OFFCURVE",
"24 118 CURVE",
"24 117 OFFCURVE",
"24 112 OFFCURVE",
"24 112 CURVE",
"27 99 OFFCURVE",
"37 37 OFFCURVE",
"39 24 CURVE",
"53 15 OFFCURVE",
"62 9 OFFCURVE",
"76 9 CURVE",
"86 9 OFFCURVE",
"105 13 OFFCURVE",
"105 24 CURVE",
"105 244 LINE",
"174 244 OFFCURVE",
"242 230 OFFCURVE",
"312 230 CURVE",
"346 230 OFFCURVE",
"379 243 OFFCURVE"
);
}
);
width = 529;
}
);
},
{
glyphname = L.alt02;
layers = (
{
layerId = "D34FCF88-AF1D-4520-8FB0-498E26D42FBC";
name = Regular;
paths = (
{
closed = 1;
nodes = (
"24 51 CURVE",
"24 5 OFFCURVE",
"73 -15 OFFCURVE",
"111 -15 CURVE",
"118 -15 OFFCURVE",
"140 -15 OFFCURVE",
"142 -15 CURVE",
"152 -14 OFFCURVE",
"235 0 OFFCURVE",
"245 0 CURVE",
"264 2 OFFCURVE",
"357 2 OFFCURVE",
"378 0 CURVE",
"388 6 OFFCURVE",
"393 12 OFFCURVE",
"393 23 CURVE",
"393 24 OFFCURVE",
"392 29 OFFCURVE",
"392 30 CURVE",
"382 43 OFFCURVE",
"352 73 OFFCURVE",
"348 73 CURVE",
"128 73 LINE",
"111 241 OFFCURVE",
"118 407 OFFCURVE",
"98 573 CURVE",
"93 592 OFFCURVE",
"74 589 OFFCURVE",
"61 589 CURVE",
"58 589 OFFCURVE",
"43 589 OFFCURVE",
"39 588 CURVE",
"34 553 OFFCURVE",
"24 388 OFFCURVE",
"24 353 CURVE",
"24 331 OFFCURVE",
"39 154 OFFCURVE",
"39 132 CURVE",
"39 125 OFFCURVE",
"25 66 OFFCURVE",
"24 59 CURVE",
"24 59 OFFCURVE",
"24 53 OFFCURVE"
);
}
);
width = 407;
}
);
},
{
glyphname = M.alt02;
layers = (
{
layerId = "D34FCF88-AF1D-4520-8FB0-498E26D42FBC";
name = Regular;
paths = (
{
closed = 1;
nodes = (
"510 353 CURVE",
"513 313 OFFCURVE",
"533 128 OFFCURVE",
"539 89 CURVE",
"543 52 OFFCURVE",
"555 -15 OFFCURVE",
"605 -15 CURVE",
"622 -15 OFFCURVE",
"627 -1 OFFCURVE",
"627 14 CURVE",
"627 17 OFFCURVE",
"627 28 OFFCURVE",
"627 30 CURVE",
"626 40 OFFCURVE",
"613 122 OFFCURVE",
"612 132 CURVE",
"611 190 OFFCURVE",
"611 457 OFFCURVE",
"612 514 CURVE",
"600 550 OFFCURVE",
"590 560 OFFCURVE",
"553 560 CURVE",
"550 560 OFFCURVE",
"529 559 OFFCURVE",
"524 559 CURVE",
"519 545 OFFCURVE",
"488 483 OFFCURVE",
"480 471 CURVE",
"462 441 OFFCURVE",
"369 307 OFFCURVE",
"348 280 CURVE",
"288 329 OFFCURVE",
"249 412 OFFCURVE",
"201 471 CURVE",
"167 511 OFFCURVE",
"131 559 OFFCURVE",
"76 559 CURVE",
"63 559 OFFCURVE",
"44 562 OFFCURVE",
"39 544 CURVE",
"41 491 OFFCURVE",
"41 244 OFFCURVE",
"39 191 CURVE",
"39 178 OFFCURVE",
"26 72 OFFCURVE",
"24 59 CURVE",
"24 59 OFFCURVE",
"24 53 OFFCURVE",
"24 50 CURVE",
"24 18 OFFCURVE",
"48 -2 OFFCURVE",
"77 -2 CURVE",
"83 -2 OFFCURVE",
"98 0 OFFCURVE",
"98 0 CURVE",
"103 3 OFFCURVE",
"114 24 OFFCURVE",
"112 30 CURVE",
"123 158 OFFCURVE",
"132 309 OFFCURVE",
"128 441 CURVE",
"130 439 OFFCURVE",
"140 429 OFFCURVE",
"142 426 CURVE",
"157 407 OFFCURVE",
"274 241 OFFCURVE",
"289 221 CURVE",
"306 198 OFFCURVE",
"333 176 OFFCURVE",
"362 176 CURVE",
"379 176 OFFCURVE",
"381 176 OFFCURVE",
"392 191 CURVE",
"400 204 OFFCURVE",
"471 311 OFFCURVE",
"480 323 CURVE",
"484 329 OFFCURVE",
"504 349 OFFCURVE"
);
}
);
width = 657;
}
);
},
{
glyphname = O.alt02;
layers = (
{
layerId = "D34FCF88-AF1D-4520-8FB0-498E26D42FBC";
name = Regular;
paths = (
{
closed = 1;
nodes = (
"18 256 CURVE",
"18 243 OFFCURVE",
"19 209 OFFCURVE",
"20 208 CURVE",
"23 190 OFFCURVE",
"44 128 OFFCURVE",
"49 119 CURVE",
"62 102 OFFCURVE",
"134 29 OFFCURVE",
"152 17 CURVE",
"157 13 OFFCURVE",
"219 -8 OFFCURVE",
"240 -13 CURVE",
"246 -15 OFFCURVE",
"308 -24 OFFCURVE",
"329 -28 CURVE",
"329 -28 OFFCURVE",
"335 -28 OFFCURVE",
"336 -28 CURVE",
"423 -28 OFFCURVE",
"510 93 OFFCURVE",
"534 164 CURVE",
"535 179 OFFCURVE",
"536 251 OFFCURVE",
"536 267 CURVE",
"536 450 OFFCURVE",
"495 591 OFFCURVE",
"284 591 CURVE",
"150 591 OFFCURVE",
"83 485 OFFCURVE",
"34 369 CURVE",
"18 328 OFFCURVE",
"18 299 OFFCURVE"
);
},
{
closed = 1;
nodes = (
"108 164 CURVE",
"108 174 OFFCURVE",
"106 225 OFFCURVE",
"106 237 CURVE",
"106 256 OFFCURVE",
"108 307 OFFCURVE",
"108 310 CURVE",
"109 326 OFFCURVE",
"128 368 OFFCURVE",
"138 384 CURVE",
"177 451 OFFCURVE",
"232 503 OFFCURVE",
"313 503 CURVE",
"450 503 OFFCURVE",
"448 420 OFFCURVE",
"448 303 CURVE",
"448 255 OFFCURVE",
"452 190 OFFCURVE",
"417 149 CURVE",
"409 139 OFFCURVE",
"368 98 OFFCURVE",
"358 90 CURVE",
"331 67 OFFCURVE",
"304 74 OFFCURVE",
"270 74 CURVE",
"203 74 OFFCURVE",
"137 94 OFFCURVE"
);
}
);
width = 569;
}
);
},
{
glyphname = Q.alt02;
layers = (
{
layerId = "D34FCF88-AF1D-4520-8FB0-498E26D42FBC";
name = Regular;
paths = (
{
closed = 1;
nodes = (
"342 16 CURVE",
"342 -28 OFFCURVE",
"407 -38 OFFCURVE",
"431 -57 CURVE",
"438 -62 OFFCURVE",
"484 -110 OFFCURVE",
"490 -115 CURVE",
"491 -117 OFFCURVE",
"512 -128 OFFCURVE",
"520 -131 CURVE",
"535 -137 OFFCURVE",
"587 -157 OFFCURVE",
"593 -160 CURVE",
"594 -160 OFFCURVE",
"598 -161 OFFCURVE",
"601 -161 CURVE",
"632 -161 OFFCURVE",
"712 -132 OFFCURVE",
"712 -96 CURVE",
"712 -89 OFFCURVE",
"715 -57 OFFCURVE",
"696 -57 CURVE",
"549 -57 LINE",
"505 -13 LINE",
"525 2 OFFCURVE",
"608 85 OFFCURVE",
"622 105 CURVE",
"634 121 OFFCURVE",
"676 203 OFFCURVE",
"681 222 CURVE",
"682 223 OFFCURVE",
"683 251 OFFCURVE",
"683 261 CURVE",
"683 474 OFFCURVE",
"498 635 OFFCURVE",
"291 635 CURVE",
"113 635 OFFCURVE",
"19 509 OFFCURVE",
"19 338 CURVE",
"19 232 OFFCURVE",
"132 28 OFFCURVE",
"252 28 CURVE",
"252 102 OFFCURVE",
"168 131 OFFCURVE",
"138 193 CURVE",
"131 206 OFFCURVE",
"110 268 OFFCURVE",
"108 281 CURVE",
"108 284 OFFCURVE",
"106 319 OFFCURVE",
"106 332 CURVE",
"106 404 OFFCURVE",
"120 473 OFFCURVE",
"182 517 CURVE",
"193 524 OFFCURVE",
"234 545 OFFCURVE",
"240 546 CURVE",
"242 546 OFFCURVE",
"290 547 OFFCURVE",
"309 547 CURVE",
"416 547 OFFCURVE",
"491 525 OFFCURVE",
"549 428 CURVE",
"560 409 OFFCURVE",
"591 347 OFFCURVE",
"593 340 CURVE",
"594 338 OFFCURVE",
"595 308 OFFCURVE",
"595 297 CURVE",
"595 211 OFFCURVE",
"526 111 OFFCURVE",
"446 76 CURVE",
"438 72 OFFCURVE",
"366 50 OFFCURVE",
"358 46 CURVE",
"342 39 OFFCURVE",
"342 30 OFFCURVE"
);
}
);
width = 730;
}
);
},
{
glyphname = R.alt02;
layers = (
{
layerId = "D34FCF88-AF1D-4520-8FB0-498E26D42FBC";
name = Regular;
paths = (
{
closed = 1;
nodes = (
"39 509 CURVE",
"39 9 LINE",
"39 -9 OFFCURVE",
"70 -7 OFFCURVE",
"77 -7 CURVE",
"83 -7 OFFCURVE",
"98 -5 OFFCURVE",
"98 -5 CURVE",
"102 -3 OFFCURVE",
"112 18 OFFCURVE",
"112 24 CURVE",
"112 230 LINE",
"161 216 OFFCURVE",
"228 193 OFFCURVE",
"274 171 CURVE",
"297 161 OFFCURVE",
"359 130 OFFCURVE",
"362 127 CURVE",
"421 79 OFFCURVE",
"443 -15 OFFCURVE",
"532 -15 CURVE",
"532 -9 OFFCURVE",
"527 32 OFFCURVE",
"524 39 CURVE",
"519 52 OFFCURVE",
"488 103 OFFCURVE",
"480 112 CURVE",
"464 130 OFFCURVE",
"381 202 OFFCURVE",
"362 216 CURVE",
"362 216 OFFCURVE",
"362 222 OFFCURVE",
"362 222 CURVE",
"362 242 OFFCURVE",
"378 238 OFFCURVE",
"392 259 CURVE",
"427 316 OFFCURVE",
"451 368 OFFCURVE",
"451 436 CURVE",
"451 514 OFFCURVE",
"391 569 OFFCURVE",
"319 582 CURVE",
"316 583 OFFCURVE",
"292 582 OFFCURVE",
"289 582 CURVE",
"284 584 OFFCURVE",
"249 597 OFFCURVE",
"245 598 CURVE",
"242 598 OFFCURVE",
"174 599 OFFCURVE",
"149 599 CURVE",
"135 599 OFFCURVE",
"68 598 OFFCURVE",
"54 598 CURVE",
"43 590 OFFCURVE",
"24 565 OFFCURVE",
"24 553 CURVE",
"24 546 OFFCURVE",
"34 515 OFFCURVE"
);
},
{
closed = 1;
nodes = (
"199 510 CURVE",
"203 510 OFFCURVE",
"215 509 OFFCURVE",
"216 509 CURVE",
"235 507 OFFCURVE",
"328 497 OFFCURVE",
"348 495 CURVE",
"364 489 OFFCURVE",
"364 478 OFFCURVE",
"364 466 CURVE",
"364 420 OFFCURVE",
"343 370 OFFCURVE",
"319 333 CURVE",
"292 293 OFFCURVE",
"251 288 OFFCURVE",
"208 288 CURVE",
"199 288 OFFCURVE",
"173 288 OFFCURVE",
"171 289 CURVE",
"158 290 OFFCURVE",
"128 300 OFFCURVE",
"128 303 CURVE",
"128 495 LINE",
"128 496 OFFCURVE",
"168 506 OFFCURVE",
"186 509 CURVE",
"186 509 OFFCURVE",
"196 510 OFFCURVE"
);
}
);
width = 553;
}
);
},
{
glyphname = S.alt02;
layers = (
{
layerId = "D34FCF88-AF1D-4520-8FB0-498E26D42FBC";
name = Regular;
paths = (
{
closed = 1;
nodes = (
"20 117 CURVE",
"20 114 OFFCURVE",
"30 93 OFFCURVE",
"34 88 CURVE",
"86 26 OFFCURVE",
"151 -16 OFFCURVE",
"232 -16 CURVE",
"295 -16 OFFCURVE",
"342 -2 OFFCURVE",
"388 44 CURVE",
"395 51 OFFCURVE",
"416 83 OFFCURVE",
"417 88 CURVE",
"418 91 OFFCURVE",
"420 135 OFFCURVE",
"420 151 CURVE",
"420 166 OFFCURVE",
"418 204 OFFCURVE",
"417 205 CURVE",
"415 210 OFFCURVE",
"363 261 OFFCURVE",
"343 279 CURVE",
"276 337 OFFCURVE",
"151 300 OFFCURVE",
"151 427 CURVE",
"151 431 OFFCURVE",
"151 440 OFFCURVE",
"152 440 CURVE",
"155 446 OFFCURVE",
"186 476 OFFCURVE",
"196 485 CURVE",
"220 503 OFFCURVE",
"233 500 OFFCURVE",
"262 500 CURVE",
"290 500 OFFCURVE",
"318 501 OFFCURVE",
"343 485 CURVE",
"348 481 OFFCURVE",
"382 443 OFFCURVE",
"388 440 CURVE",
"388 440 OFFCURVE",
"397 439 OFFCURVE",
"401 439 CURVE",
"410 439 OFFCURVE",
"431 439 OFFCURVE",
"431 455 CURVE",
"431 572 LINE",
"431 575 OFFCURVE",
"400 595 OFFCURVE",
"388 602 CURVE",
"387 602 OFFCURVE",
"381 603 OFFCURVE",
"380 603 CURVE",
"359 603 OFFCURVE",
"357 572 OFFCURVE",
"337 572 CURVE",
"299 572 OFFCURVE",
"263 588 OFFCURVE",
"225 588 CURVE",
"167 588 OFFCURVE",
"113 541 OFFCURVE",
"79 499 CURVE",
"78 491 OFFCURVE",
"77 449 OFFCURVE",
"77 440 CURVE",
"77 275 OFFCURVE",
"189 268 OFFCURVE",
"314 205 CURVE",
"318 203 OFFCURVE",
"328 193 OFFCURVE",
"329 190 CURVE",
"329 189 OFFCURVE",
"330 167 OFFCURVE",
"330 160 CURVE",
"330 102 OFFCURVE",
"264 71 OFFCURVE",
"212 71 CURVE",
"204 71 OFFCURVE",
"183 73 OFFCURVE",
"182 73 CURVE",
"170 76 OFFCURVE",
"119 96 OFFCURVE",
"108 102 CURVE",
"83 117 OFFCURVE",
"76 148 OFFCURVE",
"41 148 CURVE",
"40 148 OFFCURVE",
"34 147 OFFCURVE",
"34 147 CURVE",
"30 142 OFFCURVE",
"20 122 OFFCURVE"
);
}
);
width = 465;
}
);
},
{
glyphname = T.alt02;
layers = (
{
layerId = "D34FCF88-AF1D-4520-8FB0-498E26D42FBC";
name = Regular;
paths = (
{
closed = 1;
nodes = (
"264 12 CURVE",
"275 -4 OFFCURVE",
"298 -18 OFFCURVE",
"317 -18 CURVE",
"318 -18 OFFCURVE",
"323 -18 OFFCURVE",
"323 -17 CURVE",
"327 -13 OFFCURVE",
"337 7 OFFCURVE",
"338 12 CURVE",
"336 66 OFFCURVE",
"336 313 OFFCURVE",
"338 365 CURVE",
"339 379 OFFCURVE",
"349 441 OFFCURVE",
"352 453 CURVE",
"373 455 OFFCURVE",
"465 465 OFFCURVE",
"485 469 CURVE",
"515 473 OFFCURVE",
"559 475 OFFCURVE",
"559 513 CURVE",
"559 555 OFFCURVE",
"522 557 OFFCURVE",
"491 557 CURVE",
"479 557 OFFCURVE",
"445 557 OFFCURVE",
"441 556 CURVE",
"426 556 OFFCURVE",
"309 542 OFFCURVE",
"293 542 CURVE",
"254 540 OFFCURVE",
"64 537 OFFCURVE",
"24 537 CURVE",
"24 489 OFFCURVE",
"36 461 OFFCURVE",
"88 453 CURVE",
"112 450 OFFCURVE",
"225 439 OFFCURVE",
"250 439 CURVE",
"248 394 OFFCURVE",
"248 189 OFFCURVE",
"250 145 CURVE",
"250 125 OFFCURVE",
"261 32 OFFCURVE"
);
}
);
width = 583;
}
);
},
{
glyphname = W.alt02;
layers = (
{
layerId = "D34FCF88-AF1D-4520-8FB0-498E26D42FBC";
name = Regular;
paths = (
{
closed = 1;
nodes = (
"19 562 CURVE",
"19 559 OFFCURVE",
"19 554 OFFCURVE",
"20 554 CURVE",
"57 471 OFFCURVE",
"105 389 OFFCURVE",
"138 304 CURVE",
"139 299 OFFCURVE",
"151 251 OFFCURVE",
"152 245 CURVE",
"157 231 OFFCURVE",
"206 113 OFFCURVE",
"211 99 CURVE",
"213 92 OFFCURVE",
"222 31 OFFCURVE",
"225 24 CURVE",
"232 11 OFFCURVE",
"246 -5 OFFCURVE",
"262 -5 CURVE",
"279 -5 OFFCURVE",
"291 11 OFFCURVE",
"299 24 CURVE",
"303 31 OFFCURVE",
"325 91 OFFCURVE",
"329 99 CURVE",
"335 112 OFFCURVE",
"365 173 OFFCURVE",
"373 186 CURVE",
"377 194 OFFCURVE",
"413 252 OFFCURVE",
"417 260 CURVE",
"446 326 OFFCURVE",
"442 419 OFFCURVE",
"505 465 CURVE",
"533 402 OFFCURVE",
"569 333 OFFCURVE",
"608 274 CURVE",
"609 273 OFFCURVE",
"621 262 OFFCURVE",
"622 260 CURVE",
"631 238 OFFCURVE",
"662 145 OFFCURVE",
"666 128 CURVE",
"676 92 OFFCURVE",
"653 82 OFFCURVE",
"681 54 CURVE",
"695 41 OFFCURVE",
"709 38 OFFCURVE",
"726 38 CURVE",
"743 38 OFFCURVE",
"743 38 OFFCURVE",
"755 54 CURVE",
"797 112 OFFCURVE",
"829 183 OFFCURVE",
"858 245 CURVE",
"862 255 OFFCURVE",
"883 306 OFFCURVE",
"887 319 CURVE",
"903 365 OFFCURVE",
"945 488 OFFCURVE",
"946 495 CURVE",
"946 498 OFFCURVE",
"948 533 OFFCURVE",
"948 546 CURVE",
"948 554 OFFCURVE",
"946 590 OFFCURVE",
"946 598 CURVE",
"940 614 OFFCURVE",
"929 614 OFFCURVE",
"916 614 CURVE",
"877 614 OFFCURVE",
"880 551 OFFCURVE",
"872 524 CURVE",
"860 481 OFFCURVE",
"819 347 OFFCURVE",
"813 333 CURVE",
"812 329 OFFCURVE",
"792 287 OFFCURVE",
"784 274 CURVE",
"778 264 OFFCURVE",
"747 212 OFFCURVE",
"740 201 CURVE",
"737 203 OFFCURVE",
"727 213 OFFCURVE",
"725 216 CURVE",
"722 222 OFFCURVE",
"699 269 OFFCURVE",
"696 274 CURVE",
"687 291 OFFCURVE",
"646 363 OFFCURVE",
"637 378 CURVE",
"634 382 OFFCURVE",
"610 417 OFFCURVE",
"608 422 CURVE",
"600 436 OFFCURVE",
"542 554 OFFCURVE",
"534 569 CURVE",
"529 579 OFFCURVE",
"499 600 OFFCURVE",
"490 598 CURVE",
"451 589 OFFCURVE",
"446 499 OFFCURVE",
"431 465 CURVE",
"387 366 OFFCURVE",
"341 266 OFFCURVE",
"284 172 CURVE",
"283 169 OFFCURVE",
"273 158 OFFCURVE",
"270 157 CURVE",
"267 158 OFFCURVE",
"257 169 OFFCURVE",
"255 172 CURVE",
"202 304 OFFCURVE",
"165 443 OFFCURVE",
"93 569 CURVE",
"88 579 OFFCURVE",
"58 601 OFFCURVE",
"49 598 CURVE",
"46 597 OFFCURVE",
"25 576 OFFCURVE",
"20 569 CURVE",
"19 568 OFFCURVE",
"19 563 OFFCURVE"
);
}
);
width = 975;
}
);
},
{
glyphname = D.alt03;
layers = (
{
layerId = "D34FCF88-AF1D-4520-8FB0-498E26D42FBC";
name = Regular;
paths = (
{
closed = 1;
nodes = (
"74 589 CURVE",
"72 527 OFFCURVE",
"72 240 OFFCURVE",
"74 179 CURVE",
"75 161 OFFCURVE",
"87 100 OFFCURVE",
"92 93 CURVE",
"96 86 OFFCURVE",
"156 26 OFFCURVE",
"177 8 CURVE",
"212 -23 OFFCURVE",
"271 -28 OFFCURVE",
"315 -28 CURVE",
"319 -28 OFFCURVE",
"330 -27 OFFCURVE",
"331 -27 CURVE",
"420 -3 OFFCURVE",
"532 26 OFFCURVE",
"588 110 CURVE",
"637 186 OFFCURVE",
"658 248 OFFCURVE",
"658 336 CURVE",
"658 475 OFFCURVE",
"589 602 OFFCURVE",
"468 675 CURVE",
"449 686 OFFCURVE",
"400 708 OFFCURVE",
"382 709 CURVE",
"378 709 OFFCURVE",
"296 711 OFFCURVE",
"264 711 CURVE",
"184 711 OFFCURVE",
"118 714 OFFCURVE",
"40 692 CURVE",
"26 688 OFFCURVE",
"22 678 OFFCURVE",
"22 666 CURVE",
"22 637 OFFCURVE",
"54 605 OFFCURVE"
);
},
{
closed = 1;
nodes = (
"269 624 CURVE",
"325 624 OFFCURVE",
"355 622 OFFCURVE",
"417 606 CURVE",
"510 583 OFFCURVE",
"555 439 OFFCURVE",
"555 358 CURVE",
"555 235 OFFCURVE",
"512 161 OFFCURVE",
"400 110 CURVE",
"378 101 OFFCURVE",
"319 77 OFFCURVE",
"314 76 CURVE",
"312 76 OFFCURVE",
"283 74 OFFCURVE",
"273 74 CURVE",
"258 74 OFFCURVE",
"177 80 OFFCURVE",
"177 110 CURVE",
"177 606 LINE",
"177 610 OFFCURVE",
"213 622 OFFCURVE",
"229 624 CURVE",
"230 624 OFFCURVE",
"258 624 OFFCURVE"
);
}
);
width = 690;
}
);
},
{
glyphname = E.alt03;
lastChange = "2016-01-11 12:35:39 +0000";
layers = (
{
background = {
paths = (
{
closed = 1;
nodes = (
"299 -28 OFFCURVE",
"364 -13 OFFCURVE",
"390 1 CURVE SMOOTH",
"407 10 OFFCURVE",
"416 22 OFFCURVE",
"416 40 CURVE SMOOTH",
"416 63 OFFCURVE",
"401 74 OFFCURVE",
"383 74 CURVE SMOOTH",
"349 74 OFFCURVE",
"308 51 OFFCURVE",
"253 51 CURVE SMOOTH",
"210 51 OFFCURVE",
"157 73 OFFCURVE",
"157 128 CURVE SMOOTH",
"157 151 OFFCURVE",
"160 185 OFFCURVE",
"165 210 CURVE SMOOTH",
"172 245 OFFCURVE",
"185 249 OFFCURVE",
"300 259 CURVE SMOOTH",
"333 262 OFFCURVE",
"349 276 OFFCURVE",
"349 299 CURVE SMOOTH",
"349 326 OFFCURVE",
"333 341 OFFCURVE",
"300 341 CURVE SMOOTH",
"265 341 OFFCURVE",
"221 334 OFFCURVE",
"177 324 CURVE",
"177 485 LINE SMOOTH",
"177 500 OFFCURVE",
"182 503 OFFCURVE",
"194 503 CURVE SMOOTH",
"359 498 LINE SMOOTH",
"385 497 OFFCURVE",
"399 517 OFFCURVE",
"399 536 CURVE SMOOTH",
"399 554 OFFCURVE",
"392 574 OFFCURVE",
"359 575 CURVE SMOOTH",
"163 580 LINE SMOOTH",
"125 580 OFFCURVE",
"88 578 OFFCURVE",
"88 529 CURVE",
"88 499 OFFCURVE",
"98 485 OFFCURVE",
"98 453 CURVE",
"98 286 LINE SMOOTH",
"98 245 OFFCURVE",
"76 197 OFFCURVE",
"76 108 CURVE SMOOTH",
"76 35 OFFCURVE",
"148 -28 OFFCURVE",
"253 -28 CURVE SMOOTH"
);
}
);
};
layerId = "D34FCF88-AF1D-4520-8FB0-498E26D42FBC";
name = Regular;
paths = (
{
closed = 1;
nodes = (
"85 117 CURVE",
"85 84 OFFCURVE",
"88 63 OFFCURVE",
"99 28 CURVE",
"106 10 OFFCURVE",
"148 2 OFFCURVE",
"155 0 CURVE",
"184 -8 OFFCURVE",
"262 -26 OFFCURVE",
"266 -27 CURVE",
"267 -27 OFFCURVE",
"306 -18 OFFCURVE",
"321 -14 CURVE",
"347 -7 OFFCURVE",
"378 -3 OFFCURVE",
"378 28 CURVE",
"378 105 OFFCURVE",
"220 51 OFFCURVE",
"168 84 CURVE",
"168 90 OFFCURVE",
"168 119 OFFCURVE",
"168 126 CURVE",
"168 136 OFFCURVE",
"168 165 OFFCURVE",
"168 167 CURVE",
"170 180 OFFCURVE",
"180 219 OFFCURVE",
"183 222 CURVE",
"183 223 OFFCURVE",
"223 233 OFFCURVE",
"238 236 CURVE",
"246 238 OFFCURVE",
"313 249 OFFCURVE",
"321 250 CURVE",
"328 252 OFFCURVE",
"348 262 OFFCURVE",
"348 265 CURVE",
"349 265 OFFCURVE",
"351 274 OFFCURVE",
"351 277 CURVE",
"351 282 OFFCURVE",
"349 291 OFFCURVE",
"348 292 CURVE",
"346 300 OFFCURVE",
"326 320 OFFCURVE",
"321 320 CURVE",
"183 320 LINE",
"183 321 OFFCURVE",
"183 332 OFFCURVE",
"183 334 CURVE",
"184 354 OFFCURVE",
"194 452 OFFCURVE",
"196 472 CURVE",
"232 511 OFFCURVE",
"379 454 OFFCURVE",
"379 528 CURVE",
"379 532 OFFCURVE",
"377 541 OFFCURVE",
"377 541 CURVE",
"374 547 OFFCURVE",
"355 567 OFFCURVE",
"348 570 CURVE",
"336 571 OFFCURVE",
"279 572 OFFCURVE",
"266 572 CURVE",
"212 572 OFFCURVE",
"177 575 OFFCURVE",
"127 557 CURVE",
"125 555 OFFCURVE",
"114 544 OFFCURVE",
"113 541 CURVE",
"108 482 OFFCURVE",
"89 200 OFFCURVE",
"85 140 CURVE",
"85 137 OFFCURVE",
"85 121 OFFCURVE"
);
}
);
width = 434;
}
);
},
{
glyphname = O.alt03;
layers = (
{
layerId = "D34FCF88-AF1D-4520-8FB0-498E26D42FBC";
name = Regular;
paths = (
{
closed = 1;
nodes = (
"19 248 CURVE",
"19 75 OFFCURVE",
"128 -24 OFFCURVE",
"292 -24 CURVE",
"310 -24 OFFCURVE",
"355 -23 OFFCURVE",
"358 -23 CURVE",
"361 -23 OFFCURVE",
"381 -12 OFFCURVE",
"388 -8 CURVE",
"393 -4 OFFCURVE",
"439 33 OFFCURVE",
"446 36 CURVE",
"450 38 OFFCURVE",
"486 49 OFFCURVE",
"490 50 CURVE",
"495 54 OFFCURVE",
"516 63 OFFCURVE",
"520 66 CURVE",
"572 100 OFFCURVE",
"594 245 OFFCURVE",
"594 301 CURVE",
"594 442 OFFCURVE",
"520 526 OFFCURVE",
"388 565 CURVE",
"373 569 OFFCURVE",
"321 580 OFFCURVE",
"314 580 CURVE",
"305 580 OFFCURVE",
"243 569 OFFCURVE",
"225 565 CURVE",
"221 564 OFFCURVE",
"201 554 OFFCURVE",
"196 550 CURVE",
"91 472 OFFCURVE",
"19 386 OFFCURVE"
);
},
{
closed = 1;
nodes = (
"106 227 CURVE",
"106 246 OFFCURVE",
"108 297 OFFCURVE",
"108 300 CURVE",
"113 368 OFFCURVE",
"229 491 OFFCURVE",
"299 491 CURVE",
"306 491 OFFCURVE",
"367 482 OFFCURVE",
"388 477 CURVE",
"479 456 OFFCURVE",
"506 416 OFFCURVE",
"506 323 CURVE",
"506 266 OFFCURVE",
"488 158 OFFCURVE",
"431 125 CURVE",
"426 121 OFFCURVE",
"378 99 OFFCURVE",
"373 95 CURVE",
"368 92 OFFCURVE",
"333 68 OFFCURVE",
"329 66 CURVE",
"321 61 OFFCURVE",
"300 50 OFFCURVE",
"299 50 CURVE",
"295 50 OFFCURVE",
"243 61 OFFCURVE",
"225 66 CURVE",
"183 76 OFFCURVE",
"173 83 OFFCURVE",
"138 109 CURVE",
"99 139 OFFCURVE",
"106 183 OFFCURVE"
);
}
);
width = 622;
}
);
},
{
glyphname = R.alt03;
layers = (
{
layerId = "D34FCF88-AF1D-4520-8FB0-498E26D42FBC";
name = Regular;
paths = (
{
closed = 1;
nodes = (
"185 256 CURVE",
"185 235 OFFCURVE",
"244 181 OFFCURVE",
"260 154 CURVE",
"261 151 OFFCURVE",
"272 127 OFFCURVE",
"274 125 CURVE",
"281 115 OFFCURVE",
"353 34 OFFCURVE",
"378 7 CURVE",
"410 -30 OFFCURVE",
"433 -42 OFFCURVE",
"484 -42 CURVE",
"484 -18 OFFCURVE",
"481 3 OFFCURVE",
"465 21 CURVE",
"404 96 OFFCURVE",
"342 141 OFFCURVE",
"303 227 CURVE",
"350 246 OFFCURVE",
"380 293 OFFCURVE",
"407 330 CURVE",
"426 358 OFFCURVE",
"423 368 OFFCURVE",
"423 404 CURVE",
"423 495 OFFCURVE",
"373 550 OFFCURVE",
"303 609 CURVE",
"268 640 OFFCURVE",
"208 640 OFFCURVE",
"164 640 CURVE",
"154 640 OFFCURVE",
"129 639 OFFCURVE",
"128 639 CURVE",
"121 638 OFFCURVE",
"79 628 OFFCURVE",
"69 624 CURVE",
"60 621 OFFCURVE",
"39 611 OFFCURVE",
"39 609 CURVE",
"39 21 LINE",
"39 20 OFFCURVE",
"60 -1 OFFCURVE",
"69 -8 CURVE",
"74 -12 OFFCURVE",
"95 -23 OFFCURVE",
"98 -23 CURVE",
"100 -23 OFFCURVE",
"111 -12 OFFCURVE",
"112 -8 CURVE",
"117 3 OFFCURVE",
"128 44 OFFCURVE",
"128 51 CURVE",
"128 536 LINE",
"142 550 LINE",
"145 552 OFFCURVE",
"176 554 OFFCURVE",
"186 554 CURVE",
"199 554 OFFCURVE",
"241 552 OFFCURVE",
"245 550 CURVE",
"256 549 OFFCURVE",
"297 528 OFFCURVE",
"303 521 CURVE",
"310 515 OFFCURVE",
"330 474 OFFCURVE",
"333 462 CURVE",
"333 461 OFFCURVE",
"335 440 OFFCURVE",
"335 433 CURVE",
"335 326 OFFCURVE",
"185 316 OFFCURVE"
);
}
);
width = 504;
}
);
},
{
glyphname = D.alt04;
layers = (
{
layerId = "D34FCF88-AF1D-4520-8FB0-498E26D42FBC";
name = Regular;
paths = (
{
closed = 1;
nodes = (
"33 548 CURVE",
"33 509 OFFCURVE",
"64 515 OFFCURVE",
"64 482 CURVE",
"64 99 LINE",
"64 95 OFFCURVE",
"74 64 OFFCURVE",
"79 55 CURVE",
"120 -28 OFFCURVE",
"202 -20 OFFCURVE",
"284 -20 CURVE",
"300 -20 OFFCURVE",
"372 -18 OFFCURVE",
"388 -18 CURVE",
"408 1 OFFCURVE",
"501 93 OFFCURVE",
"520 114 CURVE",
"552 150 OFFCURVE",
"579 261 OFFCURVE",
"579 313 CURVE",
"579 394 OFFCURVE",
"546 507 OFFCURVE",
"475 555 CURVE",
"469 559 OFFCURVE",
"407 590 OFFCURVE",
"388 599 CURVE",
"378 603 OFFCURVE",
"347 614 OFFCURVE",
"343 614 CURVE",
"339 614 OFFCURVE",
"274 615 OFFCURVE",
"251 615 CURVE",
"229 615 OFFCURVE",
"170 614 OFFCURVE",
"167 614 CURVE",
"154 612 OFFCURVE",
"72 592 OFFCURVE",
"49 585 CURVE",
"31 579 OFFCURVE",
"33 562 OFFCURVE"
);
},
{
closed = 1;
nodes = (
"152 70 LINE",
"152 511 LINE",
"152 511 OFFCURVE",
"183 522 OFFCURVE",
"196 526 CURVE",
"212 530 OFFCURVE",
"252 540 OFFCURVE",
"255 540 CURVE",
"264 540 OFFCURVE",
"336 530 OFFCURVE",
"358 526 CURVE",
"445 508 OFFCURVE",
"491 445 OFFCURVE",
"491 357 CURVE",
"491 297 OFFCURVE",
"470 206 OFFCURVE",
"431 158 CURVE",
"410 131 OFFCURVE",
"349 70 OFFCURVE",
"343 70 CURVE"
);
}
);
width = 602;
}
);
},
{
glyphname = E.alt04;
lastChange = "2016-01-11 12:35:44 +0000";
layers = (
{
background = {
paths = (
{
closed = 1;
nodes = (
"299 -28 OFFCURVE",
"364 -13 OFFCURVE",
"390 1 CURVE SMOOTH",
"407 10 OFFCURVE",
"416 22 OFFCURVE",
"416 40 CURVE SMOOTH",
"416 63 OFFCURVE",
"401 74 OFFCURVE",
"383 74 CURVE SMOOTH",
"349 74 OFFCURVE",
"308 51 OFFCURVE",
"253 51 CURVE SMOOTH",
"210 51 OFFCURVE",
"157 73 OFFCURVE",
"157 128 CURVE SMOOTH",
"157 151 OFFCURVE",
"160 185 OFFCURVE",
"165 210 CURVE SMOOTH",
"172 245 OFFCURVE",
"185 249 OFFCURVE",
"300 259 CURVE SMOOTH",
"333 262 OFFCURVE",
"349 276 OFFCURVE",
"349 299 CURVE SMOOTH",
"349 326 OFFCURVE",
"333 341 OFFCURVE",
"300 341 CURVE SMOOTH",
"265 341 OFFCURVE",
"221 334 OFFCURVE",
"177 324 CURVE",
"177 485 LINE SMOOTH",
"177 500 OFFCURVE",
"182 503 OFFCURVE",
"194 503 CURVE SMOOTH",
"359 498 LINE SMOOTH",
"385 497 OFFCURVE",
"399 517 OFFCURVE",
"399 536 CURVE SMOOTH",
"399 554 OFFCURVE",
"392 574 OFFCURVE",
"359 575 CURVE SMOOTH",
"163 580 LINE SMOOTH",
"125 580 OFFCURVE",
"88 578 OFFCURVE",
"88 529 CURVE",
"88 499 OFFCURVE",
"98 485 OFFCURVE",
"98 453 CURVE",
"98 286 LINE SMOOTH",
"98 245 OFFCURVE",
"76 197 OFFCURVE",
"76 108 CURVE SMOOTH",
"76 35 OFFCURVE",
"148 -28 OFFCURVE",
"253 -28 CURVE SMOOTH"
);
}
);
};
layerId = "D34FCF88-AF1D-4520-8FB0-498E26D42FBC";
name = Regular;
paths = (
{
closed = 1;
nodes = (
"85 101 CURVE",
"85 85 OFFCURVE",
"86 79 OFFCURVE",
"99 62 CURVE",
"147 5 OFFCURVE",
"191 -19 OFFCURVE",
"266 -19 CURVE",
"304 -19 OFFCURVE",
"328 -17 OFFCURVE",
"368 -5 CURVE",
"385 1 OFFCURVE",
"382 16 OFFCURVE",
"382 28 CURVE",
"382 40 OFFCURVE",
"385 58 OFFCURVE",
"368 62 CURVE",
"349 60 OFFCURVE",
"264 60 OFFCURVE",
"247 62 CURVE",
"221 64 OFFCURVE",
"166 64 OFFCURVE",
"166 101 CURVE",
"166 105 OFFCURVE",
"166 114 OFFCURVE",
"166 116 CURVE",
"168 132 OFFCURVE",
"178 207 OFFCURVE",
"180 224 CURVE",
"183 227 OFFCURVE",
"202 236 OFFCURVE",
"207 237 CURVE",
"222 240 OFFCURVE",
"298 249 OFFCURVE",
"314 250 CURVE",
"331 254 OFFCURVE",
"328 271 OFFCURVE",
"328 283 CURVE",
"328 289 OFFCURVE",
"328 303 OFFCURVE",
"327 304 CURVE",
"326 310 OFFCURVE",
"316 324 OFFCURVE",
"314 324 CURVE",
"180 324 LINE",
"180 465 LINE",
"193 479 LINE",
"257 484 OFFCURVE",
"330 493 OFFCURVE",
"394 505 CURVE",
"395 508 OFFCURVE",
"396 523 OFFCURVE",
"396 526 CURVE",
"396 556 OFFCURVE",
"391 573 OFFCURVE",
"359 573 CURVE",
"352 573 OFFCURVE",
"330 573 OFFCURVE",
"327 573 CURVE",
"287 570 OFFCURVE",
"175 561 OFFCURVE",
"166 559 CURVE",
"163 558 OFFCURVE",
"125 540 OFFCURVE",
"113 532 CURVE",
"110 532 OFFCURVE",
"101 522 OFFCURVE",
"99 519 CURVE",
"101 472 OFFCURVE",
"101 256 OFFCURVE",
"99 210 CURVE",
"99 200 OFFCURVE",
"86 126 OFFCURVE",
"85 116 CURVE",
"85 115 OFFCURVE",
"85 105 OFFCURVE"
);
}
);
width = 451;
}
);
},
{
glyphname = O.alt04;
layers = (
{
layerId = "D34FCF88-AF1D-4520-8FB0-498E26D42FBC";
name = Regular;
paths = (
{
closed = 1;
nodes = (
"19 317 CURVE",
"19 155 OFFCURVE",
"75 -15 OFFCURVE",
"264 -15 CURVE",
"273 -15 OFFCURVE",
"297 -15 OFFCURVE",
"299 -15 CURVE",
"319 -11 OFFCURVE",
"402 9 OFFCURVE",
"417 15 CURVE",
"482 40 OFFCURVE",
"534 98 OFFCURVE",
"579 148 CURVE",
"583 153 OFFCURVE",
"604 184 OFFCURVE",
"608 191 CURVE",
"616 207 OFFCURVE",
"637 259 OFFCURVE",
"637 264 CURVE",
"637 268 OFFCURVE",
"640 330 OFFCURVE",
"640 353 CURVE",
"640 366 OFFCURVE",
"637 428 OFFCURVE",
"637 441 CURVE",
"600 512 OFFCURVE",
"547 540 OFFCURVE",
"475 573 CURVE",
"444 588 OFFCURVE",
"383 618 OFFCURVE",
"343 618 CURVE",
"303 618 OFFCURVE",
"243 588 OFFCURVE",
"211 573 CURVE",
"104 526 OFFCURVE",
"19 445 OFFCURVE"
);
},
{
closed = 1;
nodes = (
"351 530 CURVE",
"352 530 OFFCURVE",
"358 530 OFFCURVE",
"358 530 CURVE",
"361 528 OFFCURVE",
"384 516 OFFCURVE",
"388 514 CURVE",
"462 490 OFFCURVE",
"565 482 OFFCURVE",
"565 384 CURVE",
"565 329 OFFCURVE",
"555 264 OFFCURVE",
"520 221 CURVE",
"507 206 OFFCURVE",
"446 144 OFFCURVE",
"431 132 CURVE",
"392 101 OFFCURVE",
"295 73 OFFCURVE",
"248 73 CURVE",
"189 73 OFFCURVE",
"152 98 OFFCURVE",
"123 148 CURVE",
"118 154 OFFCURVE",
"108 175 OFFCURVE",
"108 177 CURVE",
"108 353 LINE",
"108 358 OFFCURVE",
"128 398 OFFCURVE",
"138 412 CURVE",
"160 446 OFFCURVE",
"204 469 OFFCURVE",
"240 485 CURVE",
"264 496 OFFCURVE",
"336 527 OFFCURVE",
"343 530 CURVE",
"344 530 OFFCURVE",
"349 530 OFFCURVE"
);
}
);
width = 671;
}
);
},
{
glyphname = D.alt05;
layers = (
{
layerId = "D34FCF88-AF1D-4520-8FB0-498E26D42FBC";
name = Regular;
paths = (
{
closed = 1;
nodes = (
"69 539 CURVE",
"69 68 LINE",
"69 52 OFFCURVE",
"102 14 OFFCURVE",
"112 9 CURVE",
"117 8 OFFCURVE",
"168 -3 OFFCURVE",
"186 -5 CURVE",
"196 -7 OFFCURVE",
"289 -17 OFFCURVE",
"319 -20 CURVE",
"319 -20 OFFCURVE",
"325 -21 OFFCURVE",
"327 -21 CURVE",
"328 -21 OFFCURVE",
"333 -20 OFFCURVE",
"333 -20 CURVE",
"352 -15 OFFCURVE",
"413 6 OFFCURVE",
"421 9 CURVE",
"423 11 OFFCURVE",
"455 31 OFFCURVE",
"465 39 CURVE",
"482 50 OFFCURVE",
"524 82 OFFCURVE",
"524 83 CURVE",
"530 90 OFFCURVE",
"571 162 OFFCURVE",
"583 186 CURVE",
"587 194 OFFCURVE",
"597 225 OFFCURVE",
"598 230 CURVE",
"598 233 OFFCURVE",
"599 300 OFFCURVE",
"599 326 CURVE",
"599 375 OFFCURVE",
"607 451 OFFCURVE",
"569 495 CURVE",
"556 507 OFFCURVE",
"495 569 OFFCURVE",
"480 582 CURVE",
"411 644 OFFCURVE",
"308 643 OFFCURVE",
"222 643 CURVE",
"177 643 OFFCURVE",
"79 643 OFFCURVE",
"39 612 CURVE",
"34 608 OFFCURVE",
"23 587 OFFCURVE",
"24 582 CURVE",
"28 573 OFFCURVE",
"60 543 OFFCURVE"
);
},
{
closed = 1;
nodes = (
"157 495 LINE",
"171 553 LINE",
"173 554 OFFCURVE",
"216 556 OFFCURVE",
"235 556 CURVE",
"332 556 OFFCURVE",
"435 556 OFFCURVE",
"495 465 CURVE",
"517 433 OFFCURVE",
"511 381 OFFCURVE",
"511 348 CURVE",
"511 329 OFFCURVE",
"510 277 OFFCURVE",
"510 274 CURVE",
"509 269 OFFCURVE",
"499 238 OFFCURVE",
"495 230 CURVE",
"444 129 OFFCURVE",
"395 99 OFFCURVE",
"289 68 CURVE",
"289 68 OFFCURVE",
"284 68 OFFCURVE",
"282 68 CURVE",
"265 68 OFFCURVE",
"157 69 OFFCURVE",
"157 98 CURVE"
);
}
);
width = 627;
}
);
},
{
color = 0;
glyphname = A.ss01;
lastChange = "2016-01-10 21:37:40 +0000";
layers = (
{
layerId = "D34FCF88-AF1D-4520-8FB0-498E26D42FBC";
name = Regular;
paths = (
{
closed = 1;
nodes = (
"293 575 OFFCURVE",
"264 554 OFFCURVE",
"239 516 CURVE SMOOTH",
"153 384 LINE SMOOTH",
"74 264 OFFCURVE",
"18 146 OFFCURVE",
"9 25 CURVE SMOOTH",
"7 -1 OFFCURVE",
"16 -28 OFFCURVE",
"50 -28 CURVE SMOOTH",
"72 -28 OFFCURVE",
"86 -12 OFFCURVE",
"90 16 CURVE SMOOTH",
"109 159 OFFCURVE",
"178 277 OFFCURVE",
"215 339 CURVE SMOOTH",
"278 436 LINE SMOOTH",
"284 445 OFFCURVE",
"292 453 OFFCURVE",
"298 453 CURVE SMOOTH",
"304 453 OFFCURVE",
"310 450 OFFCURVE",
"313 441 CURVE SMOOTH",
"335 384 LINE SMOOTH",
"349 348 OFFCURVE",
"367 306 OFFCURVE",
"380 269 CURVE SMOOTH",
"431 125 LINE SMOOTH",
"447 79 OFFCURVE",
"452 30 OFFCURVE",
"460 6 CURVE SMOOTH",
"472 -26 OFFCURVE",
"504 -28 OFFCURVE",
"519 -28 CURVE SMOOTH",
"539 -28 OFFCURVE",
"560 -19 OFFCURVE",
"560 18 CURVE SMOOTH",
"560 34 OFFCURVE",
"542 76 OFFCURVE",
"524 127 CURVE SMOOTH",
"498 198 OFFCURVE",
"467 284 OFFCURVE",
"445 338 CURVE SMOOTH",
"371 522 LINE SMOOTH",
"362 545 OFFCURVE",
"336 575 OFFCURVE",
"310 575 CURVE SMOOTH"
);
},
{
closed = 1;
nodes = (
"369 131 OFFCURVE",
"413 139 OFFCURVE",
"446 153 CURVE",
"446 153 OFFCURVE",
"456 234 OFFCURVE",
"456 234 CURVE",
"417 216 OFFCURVE",
"367 208 OFFCURVE",
"302 208 CURVE SMOOTH",
"275 208 OFFCURVE",
"162 217 OFFCURVE",
"108 226 CURVE",
"108 226 OFFCURVE",
"97 148 OFFCURVE",
"97 148 CURVE",
"163 138 OFFCURVE",
"282 131 OFFCURVE",
"325 131 CURVE SMOOTH"
);
}
);
width = 589;
}
);
},
{
color = 0;
glyphname = M.ss01;
lastChange = "2016-01-11 14:30:53 +0000";
layers = (
{
background = {
paths = (
{
closed = 1;
nodes = (
"187 -39 OFFCURVE",
"200 -70 OFFCURVE",
"236 -68 CURVE SMOOTH",
"263 -66 OFFCURVE",
"272 -42 OFFCURVE",
"274 -23 CURVE SMOOTH",
"297 152 LINE",
"308 419 LINE",
"261 423 LINE",
"443 160 LINE SMOOTH",
"472 119 OFFCURVE",
"498 95 OFFCURVE",
"530 97 CURVE SMOOTH",
"558 98 OFFCURVE",
"584 136 OFFCURVE",
"606 178 CURVE SMOOTH",
"695 354 LINE",
"669 464 LINE",
"677 381 OFFCURVE",
"695 275 OFFCURVE",
"725 187 CURVE SMOOTH",
"758 96 OFFCURVE",
"786 36 OFFCURVE",
"809 0 CURVE SMOOTH",
"828 -30 OFFCURVE",
"846 -36 OFFCURVE",
"873 -35 CURVE SMOOTH",
"892 -34 OFFCURVE",
"916 -25 OFFCURVE",
"915 -2 CURVE SMOOTH",
"913 18 OFFCURVE",
"869 78 OFFCURVE",
"834 139 CURVE SMOOTH",
"807 190 OFFCURVE",
"786 237 OFFCURVE",
"779 271 CURVE SMOOTH",
"727 535 LINE SMOOTH",
"723 559 OFFCURVE",
"707 573 OFFCURVE",
"687 571 CURVE SMOOTH",
"663 570 OFFCURVE",
"658 556 OFFCURVE",
"653 516 CURVE SMOOTH",
"648 477 OFFCURVE",
"640 418 OFFCURVE",
"617 365 CURVE SMOOTH",
"592 293 OFFCURVE",
"555 227 OFFCURVE",
"504 164 CURVE",
"550 173 LINE",
"509 214 OFFCURVE",
"477 259 OFFCURVE",
"440 314 CURVE",
"314 486 LINE SMOOTH",
"291 519 OFFCURVE",
"273 530 OFFCURVE",
"253 529 CURVE SMOOTH",
"238 528 OFFCURVE",
"224 521 OFFCURVE",
"218 512 CURVE",
"225 219 LINE",
"192 -7 LINE"
);
}
);
};
layerId = "D34FCF88-AF1D-4520-8FB0-498E26D42FBC";
name = Regular;
paths = (
{
closed = 1;
nodes = (
"659 575 OFFCURVE",
"652 573 OFFCURVE",
"642 567 CURVE",
"584 414 OFFCURVE",
"492 202 OFFCURVE",
"410 50 CURVE",
"459 48 LINE",
"424 152 OFFCURVE",
"329 411 OFFCURVE",
"280 535 CURVE SMOOTH",
"268 566 OFFCURVE",
"250 575 OFFCURVE",
"225 575 CURVE SMOOTH",
"215 575 OFFCURVE",
"207 573 OFFCURVE",
"198 568 CURVE",
"186 416 OFFCURVE",
"148 255 OFFCURVE",
"99 125 CURVE SMOOTH",
"87 92 OFFCURVE",
"58 47 OFFCURVE",
"58 29 CURVE SMOOTH",
"58 1 OFFCURVE",
"97 -28 OFFCURVE",
"116 -28 CURVE SMOOTH",
"161 -28 OFFCURVE",
"205 228 OFFCURVE",
"259 429 CURVE",
"217 442 LINE",
"288 306 OFFCURVE",
"337 175 OFFCURVE",
"370 13 CURVE",
"380 -16 OFFCURVE",
"424 -28 OFFCURVE",
"466 -28 CURVE",
"497 28 OFFCURVE",
"509 119 OFFCURVE",
"706 477 CURVE",
"667 487 LINE",
"675 408 OFFCURVE",
"688 300 OFFCURVE",
"718 207 CURVE SMOOTH",
"773 35 OFFCURVE",
"789 -19 OFFCURVE",
"854 -19 CURVE SMOOTH",
"877 -19 OFFCURVE",
"893 -7 OFFCURVE",
"893 1 CURVE SMOOTH",
"893 20 OFFCURVE",
"852 90 OFFCURVE",
"823 153 CURVE SMOOTH",
"798 206 OFFCURVE",
"780 262 OFFCURVE",
"775 288 CURVE SMOOTH",
"744 442 OFFCURVE",
"735 575 OFFCURVE",
"675 575 CURVE"
);
}
);
width = 940;
}
);
},
{
color = 0;
glyphname = N.ss01;
lastChange = "2016-01-11 14:19:52 +0000";
layers = (
{
background = {
paths = (
{
closed = 1;
nodes = (
"533 62 OFFCURVE",
"540 89 OFFCURVE",
"527 105 CURVE SMOOTH",
"496 141 OFFCURVE",
"452 174 OFFCURVE",
"417 213 CURVE SMOOTH",
"349 291 LINE SMOOTH",
"278 371 OFFCURVE",
"226 466 OFFCURVE",
"204 490 CURVE SMOOTH",
"184 512 OFFCURVE",
"144 517 OFFCURVE",
"119 494 CURVE SMOOTH",
"99 477 OFFCURVE",
"111 461 OFFCURVE",
"136 428 CURVE SMOOTH",
"286 242 LINE",
"438 58 LINE SMOOTH",
"462 29 OFFCURVE",
"495 28 OFFCURVE",
"520 50 CURVE SMOOTH"
);
}
);
};
layerId = "D34FCF88-AF1D-4520-8FB0-498E26D42FBC";
name = Regular;
paths = (
{
closed = 1;
nodes = (
"108 579 OFFCURVE",
"87 560 OFFCURVE",
"87 540 CURVE",
"98 447 OFFCURVE",
"99 361 OFFCURVE",
"99 286 CURVE SMOOTH",
"99 178 OFFCURVE",
"76 73 OFFCURVE",
"76 40 CURVE SMOOTH",
"76 11 OFFCURVE",
"103 -19 OFFCURVE",
"138 -19 CURVE SMOOTH",
"162 -19 OFFCURVE",
"166 1 OFFCURVE",
"168 42 CURVE SMOOTH",
"178 281 LINE SMOOTH",
"181 342 OFFCURVE",
"177 392 OFFCURVE",
"168 447 CURVE",
"141 436 LINE",
"218 312 OFFCURVE",
"438 58 OFFCURVE",
"510 0 CURVE SMOOTH",
"519 -7 OFFCURVE",
"534 -15 OFFCURVE",
"556 -15 CURVE SMOOTH",
"578 -15 OFFCURVE",
"607 -2 OFFCURVE",
"606 29 CURVE SMOOTH",
"598 276 LINE",
"615 539 LINE SMOOTH",
"616 562 OFFCURVE",
"586 579 OFFCURVE",
"566 579 CURVE SMOOTH",
"534 579 OFFCURVE",
"515 564 OFFCURVE",
"515 511 CURVE SMOOTH",
"515 477 OFFCURVE",
"520 407 OFFCURVE",
"520 329 CURVE SMOOTH",
"519 241 OFFCURVE",
"515 145 OFFCURVE",
"512 74 CURVE",
"535 94 LINE",
"422 197 OFFCURVE",
"244 396 OFFCURVE",
"181 547 CURVE SMOOTH",
"173 566 OFFCURVE",
"154 579 OFFCURVE",
"131 579 CURVE"
);
}
);
width = 707;
}
);
},
{
color = 1;
glyphname = a;
lastChange = "2016-01-10 19:28:31 +0000";
layers = (
{
anchors = (
{
name = top;
position = "{225, 407}";
}
);
background = {
paths = (
{
closed = 1;
nodes = (
"117 -19 OFFCURVE",
"135 64 OFFCURVE",
"135 105 CURVE SMOOTH",
"135 266 LINE SMOOTH",
"135 318 OFFCURVE",
"165 351 OFFCURVE",
"223 351 CURVE SMOOTH",
"276 351 OFFCURVE",
"296 288 OFFCURVE",
"337 288 CURVE SMOOTH",
"360 288 OFFCURVE",
"382 305 OFFCURVE",
"382 331 CURVE SMOOTH",
"382 357 OFFCURVE",
"352 388 OFFCURVE",
"311 407 CURVE SMOOTH",
"284 419 OFFCURVE",
"249 428 OFFCURVE",
"223 428 CURVE SMOOTH",
"129 428 OFFCURVE",
"58 373 OFFCURVE",
"58 266 CURVE SMOOTH",
"58 105 LINE SMOOTH",
"58 71 OFFCURVE",
"49 58 OFFCURVE",
"33 58 CURVE SMOOTH",
"17 58 OFFCURVE",
"13 63 OFFCURVE",
"-4 63 CURVE SMOOTH",
"-20 63 OFFCURVE",
"-38 53 OFFCURVE",
"-38 26 CURVE SMOOTH",
"-38 -6 OFFCURVE",
"-2 -19 OFFCURVE",
"32 -19 CURVE SMOOTH"
);
},
{
closed = 1;
nodes = (
"303 -19 OFFCURVE",
"389 6 OFFCURVE",
"389 102 CURVE SMOOTH",
"389 171 OFFCURVE",
"326 238 OFFCURVE",
"236 238 CURVE SMOOTH",
"199 238 OFFCURVE",
"151 219 OFFCURVE",
"121 194 CURVE",
"121 194 OFFCURVE",
"121 120 OFFCURVE",
"121 120 CURVE",
"152 149 OFFCURVE",
"193 161 OFFCURVE",
"236 161 CURVE SMOOTH",
"282 161 OFFCURVE",
"310 132 OFFCURVE",
"310 102 CURVE SMOOTH",
"310 72 OFFCURVE",
"284 58 OFFCURVE",
"251 58 CURVE SMOOTH",
"207 58 OFFCURVE",
"161 70 OFFCURVE",
"122 112 CURVE",
"106 50 LINE",
"143 13 OFFCURVE",
"199 -19 OFFCURVE",
"251 -19 CURVE SMOOTH"
);
}
);
};
guideLines = (
{
angle = 90;
position = "{53, 245}";
}
);
layerId = "D34FCF88-AF1D-4520-8FB0-498E26D42FBC";
name = Regular;
paths = (
{
closed = 1;
nodes = (
"444 -19 OFFCURVE",
"480 -6 OFFCURVE",
"480 26 CURVE SMOOTH",
"480 53 OFFCURVE",
"462 63 OFFCURVE",
"446 63 CURVE SMOOTH",
"429 63 OFFCURVE",
"425 58 OFFCURVE",
"409 58 CURVE SMOOTH",
"393 58 OFFCURVE",
"384 71 OFFCURVE",
"384 105 CURVE SMOOTH",
"384 266 LINE SMOOTH",
"384 373 OFFCURVE",
"316 428 OFFCURVE",
"225 428 CURVE SMOOTH",
"194 428 OFFCURVE",
"158 419 OFFCURVE",
"131 407 CURVE SMOOTH",
"89 388 OFFCURVE",
"60 357 OFFCURVE",
"60 331 CURVE SMOOTH",
"60 305 OFFCURVE",
"82 288 OFFCURVE",
"105 288 CURVE SMOOTH",
"148 288 OFFCURVE",
"166 356 OFFCURVE",
"225 356 CURVE SMOOTH",
"279 356 OFFCURVE",
"307 321 OFFCURVE",
"307 266 CURVE SMOOTH",
"307 105 LINE SMOOTH",
"307 64 OFFCURVE",
"325 -19 OFFCURVE",
"410 -19 CURVE SMOOTH"
);
},
{
closed = 1;
nodes = (
"243 -19 OFFCURVE",
"299 13 OFFCURVE",
"336 50 CURVE",
"320 112 LINE",
"281 66 OFFCURVE",
"235 53 OFFCURVE",
"191 53 CURVE SMOOTH",
"158 53 OFFCURVE",
"132 69 OFFCURVE",
"132 102 CURVE SMOOTH",
"132 134 OFFCURVE",
"160 166 OFFCURVE",
"206 166 CURVE SMOOTH",
"249 166 OFFCURVE",
"290 153 OFFCURVE",
"321 120 CURVE",
"321 120 OFFCURVE",
"321 194 OFFCURVE",
"321 194 CURVE",
"291 219 OFFCURVE",
"243 238 OFFCURVE",
"206 238 CURVE SMOOTH",
"116 238 OFFCURVE",
"53 171 OFFCURVE",
"53 102 CURVE SMOOTH",
"53 6 OFFCURVE",
"139 -19 OFFCURVE",
"191 -19 CURVE SMOOTH"
);
}
);
width = 487;
}
);
unicode = 0061;
},
{
color = 0;
glyphname = b;
lastChange = "2015-11-26 21:39:57 +0000";
layers = (
{
background = {
paths = (
{
closed = 1;
nodes = (
"100 744 OFFCURVE",
"111 604 OFFCURVE",
"114 573 CURVE",
"144 534 OFFCURVE",
"173 553 OFFCURVE",
"200 543 CURVE",
"210 539 OFFCURVE",
"277 499 OFFCURVE",
"286 496 CURVE",
"299 490 OFFCURVE",
"361 480 OFFCURVE",
"370 482 CURVE",
"376 483 OFFCURVE",
"423 502 OFFCURVE",
"438 512 CURVE",
"510 556 OFFCURVE",
"509 664 OFFCURVE",
"509 732 CURVE",
"509 811 OFFCURVE",
"492 895 OFFCURVE",
"404 928 CURVE",
"393 932 OFFCURVE",
"357 944 OFFCURVE",
"354 944 CURVE",
"345 944 OFFCURVE",
"309 932 OFFCURVE",
"303 928 CURVE",
"288 919 OFFCURVE",
"228 877 OFFCURVE",
"217 866 CURVE",
"202 984 OFFCURVE",
"194 1072 OFFCURVE",
"192 1160 CURVE",
"192 1168 OFFCURVE",
"157 1201 OFFCURVE",
"148 1207 CURVE",
"147 1207 OFFCURVE",
"143 1207 OFFCURVE",
"140 1207 CURVE",
"129 1207 OFFCURVE",
"122 1203 OFFCURVE",
"114 1189 CURVE",
"111 1166 OFFCURVE",
"100 1076 OFFCURVE",
"99 1051 CURVE",
"97 1044 OFFCURVE",
"97 969 OFFCURVE",
"97 929 CURVE",
"97 889 OFFCURVE",
"97 781 OFFCURVE",
"99 774 CURVE"
);
},
{
closed = 1;
nodes = (
"280 573 OFFCURVE",
"233 603 OFFCURVE",
"233 650 CURVE",
"233 688 OFFCURVE",
"253 722 OFFCURVE",
"268 758 CURVE",
"284 796 OFFCURVE",
"316 827 OFFCURVE",
"354 851 CURVE",
"354 852 OFFCURVE",
"367 853 OFFCURVE",
"370 853 CURVE",
"375 853 OFFCURVE",
"386 852 OFFCURVE",
"387 851 CURVE",
"390 847 OFFCURVE",
"402 814 OFFCURVE",
"404 805 CURVE",
"405 802 OFFCURVE",
"405 753 OFFCURVE",
"405 736 CURVE",
"405 686 OFFCURVE",
"415 573 OFFCURVE",
"327 573 CURVE"
);
},
{
closed = 1;
nodes = (
"159 -238 OFFCURVE",
"172 -208 OFFCURVE",
"172 -173 CURVE SMOOTH",
"172 -147 OFFCURVE",
"172 -106 OFFCURVE",
"172 -73 CURVE SMOOTH",
"181 5 LINE",
"216 -10 OFFCURVE",
"258 -19 OFFCURVE",
"294 -19 CURVE SMOOTH",
"453 -19 OFFCURVE",
"496 107 OFFCURVE",
"496 250 CURVE SMOOTH",
"496 401 OFFCURVE",
"430 428 OFFCURVE",
"376 428 CURVE SMOOTH",
"306 428 OFFCURVE",
"233 332 OFFCURVE",
"176 219 CURVE",
"196 142 LINE",
"173 328 OFFCURVE",
"198 428 OFFCURVE",
"128 428 CURVE SMOOTH",
"107 428 OFFCURVE",
"86 409 OFFCURVE",
"86 385 CURVE SMOOTH",
"86 338 OFFCURVE",
"115 297 OFFCURVE",
"113 236 CURVE",
"106 50 LINE",
"96 -28 LINE SMOOTH",
"92 -81 OFFCURVE",
"80 -134 OFFCURVE",
"80 -175 CURVE SMOOTH",
"80 -205 OFFCURVE",
"121 -238 OFFCURVE",
"141 -238 CURVE SMOOTH"
);
},
{
closed = 1;
nodes = (
"247 58 OFFCURVE",
"213 71 OFFCURVE",
"187 88 CURVE",
"244 215 LINE SMOOTH",
"277 288 OFFCURVE",
"337 350 OFFCURVE",
"376 350 CURVE SMOOTH",
"397 350 OFFCURVE",
"417 337 OFFCURVE",
"417 253 CURVE SMOOTH",
"417 135 OFFCURVE",
"385 58 OFFCURVE",
"294 58 CURVE SMOOTH"
);
}
);
};
layerId = "D34FCF88-AF1D-4520-8FB0-498E26D42FBC";
name = Regular;
paths = (
{
closed = 1;
nodes = (
"192 -19 OFFCURVE",
"202 11 OFFCURVE",
"202 46 CURVE",
"160 14 LINE",
"207 -9 OFFCURVE",
"256 -19 OFFCURVE",
"294 -19 CURVE SMOOTH",
"453 -19 OFFCURVE",
"496 107 OFFCURVE",
"496 250 CURVE SMOOTH",
"496 401 OFFCURVE",
"430 428 OFFCURVE",
"376 428 CURVE SMOOTH",
"306 428 OFFCURVE",
"233 337 OFFCURVE",
"176 242 CURVE",
"166 71 LINE",
"202 56 LINE",
"190 295 LINE",
"190 333 OFFCURVE",
"181 439 OFFCURVE",
"181 487 CURVE SMOOTH",
"181 549 OFFCURVE",
"197 597 OFFCURVE",
"197 644 CURVE SMOOTH",
"197 668 OFFCURVE",
"176 687 OFFCURVE",
"155 687 CURVE SMOOTH",
"128 687 OFFCURVE",
"109 667 OFFCURVE",
"109 622 CURVE SMOOTH",
"109 596 OFFCURVE",
"101 496 OFFCURVE",
"101 476 CURVE",
"101 424 OFFCURVE",
"114 314 OFFCURVE",
"114 261 CURVE",
"125 44 LINE SMOOTH",
"124 15 OFFCURVE",
"160 -19 OFFCURVE",
"177 -19 CURVE SMOOTH"
);
},
{
closed = 1;
nodes = (
"247 58 OFFCURVE",
"213 71 OFFCURVE",
"187 88 CURVE",
"196 139 LINE",
"213 177 OFFCURVE",
"228 204 OFFCURVE",
"242 226 CURVE SMOOTH",
"282 289 OFFCURVE",
"337 350 OFFCURVE",
"376 350 CURVE SMOOTH",
"397 350 OFFCURVE",
"417 337 OFFCURVE",
"417 253 CURVE SMOOTH",
"417 135 OFFCURVE",
"385 58 OFFCURVE",
"294 58 CURVE SMOOTH"
);
}
);
width = 556;
}
);
unicode = 0062;
},
{
color = 0;
glyphname = c;
lastChange = "2016-01-11 13:21:05 +0000";
layers = (
{
background = {
paths = (
{
closed = 1;
nodes = (
"387 -19 OFFCURVE",
"474 98 OFFCURVE",
"474 219 CURVE SMOOTH",
"474 328 OFFCURVE",
"388 428 OFFCURVE",
"269 428 CURVE SMOOTH",
"151 428 OFFCURVE",
"45 320 OFFCURVE",
"45 199 CURVE SMOOTH",
"45 158 OFFCURVE",
"52 120 OFFCURVE",
"76 81 CURVE SMOOTH",
"108 31 OFFCURVE",
"158 -19 OFFCURVE",
"244 -19 CURVE SMOOTH"
);
},
{
closed = 1;
nodes = (
"186 58 OFFCURVE",
"124 122 OFFCURVE",
"124 199 CURVE SMOOTH",
"124 277 OFFCURVE",
"194 351 OFFCURVE",
"269 351 CURVE SMOOTH",
"349 351 OFFCURVE",
"395 270 OFFCURVE",
"395 219 CURVE SMOOTH",
"395 140 OFFCURVE",
"340 58 OFFCURVE",
"244 58 CURVE SMOOTH"
);
}
);
};
layerId = "D34FCF88-AF1D-4520-8FB0-498E26D42FBC";
name = Regular;
paths = (
{
closed = 1;
nodes = (
"372 -18 OFFCURVE",
"449 52 OFFCURVE",
"449 98 CURVE SMOOTH",
"449 119 OFFCURVE",
"437 138 OFFCURVE",
"412 138 CURVE SMOOTH",
"367 138 OFFCURVE",
"367 58 OFFCURVE",
"265 58 CURVE SMOOTH",
"191 58 OFFCURVE",
"139 122 OFFCURVE",
"139 199 CURVE SMOOTH",
"139 277 OFFCURVE",
"195 351 OFFCURVE",
"266 351 CURVE SMOOTH",
"338 351 OFFCURVE",
"338 308 OFFCURVE",
"378 308 CURVE SMOOTH",
"403 308 OFFCURVE",
"414 326 OFFCURVE",
"414 345 CURVE SMOOTH",
"414 369 OFFCURVE",
"393 389 OFFCURVE",
"365 404 CURVE SMOOTH",
"339 418 OFFCURVE",
"307 428 OFFCURVE",
"266 428 CURVE SMOOTH",
"152 428 OFFCURVE",
"60 320 OFFCURVE",
"60 199 CURVE SMOOTH",
"60 71 OFFCURVE",
"141 -20 OFFCURVE",
"265 -19 CURVE SMOOTH"
);
}
);
width = 486;
}
);
unicode = 0063;
},
{
color = 1;
glyphname = d;
lastChange = "2015-11-23 12:24:48 +0000";
layers = (
{
background = {
paths = (
{
closed = 1;
nodes = (
"392 373 LINE",
"392 373 OFFCURVE",
"437 354 OFFCURVE",
"437 354 CURVE",
"437 354 OFFCURVE",
"431 249 OFFCURVE",
"431 249 CURVE",
"441 138 LINE SMOOTH",
"449 46 OFFCURVE",
"510 71 OFFCURVE",
"510 24 CURVE SMOOTH",
"510 0 OFFCURVE",
"489 -19 OFFCURVE",
"468 -19 CURVE SMOOTH",
"421 -19 OFFCURVE",
"381 19 OFFCURVE",
"373 106 CURVE",
"369 140 LINE SMOOTH",
"360 214 OFFCURVE",
"344 257 OFFCURVE",
"344 312 CURVE SMOOTH",
"344 389 OFFCURVE",
"401 428 OFFCURVE",
"422 428 CURVE SMOOTH",
"439 428 OFFCURVE",
"465 414 OFFCURVE",
"465 392 CURVE SMOOTH",
"465 321 OFFCURVE",
"400 230 OFFCURVE",
"368 168 CURVE SMOOTH",
"329 92 OFFCURVE",
"255 -19 OFFCURVE",
"179 -19 CURVE SMOOTH",
"125 -19 OFFCURVE",
"59 13 OFFCURVE",
"59 189 CURVE SMOOTH",
"59 327 OFFCURVE",
"74 444 OFFCURVE",
"121 444 CURVE SMOOTH",
"149 444 OFFCURVE",
"162 431 OFFCURVE",
"162 409 CURVE SMOOTH",
"162 377 OFFCURVE",
"138 286 OFFCURVE",
"138 186 CURVE SMOOTH",
"138 74 OFFCURVE",
"158 58 OFFCURVE",
"179 58 CURVE SMOOTH",
"218 58 OFFCURVE",
"278 120 OFFCURVE",
"311 194 CURVE SMOOTH"
);
}
);
};
layerId = "D34FCF88-AF1D-4520-8FB0-498E26D42FBC";
name = Regular;
paths = (
{
closed = 1;
nodes = (
"250 -19 OFFCURVE",
"323 77 OFFCURVE",
"380 190 CURVE",
"360 201 LINE",
"373 106 LINE SMOOTH",
"386 8 OFFCURVE",
"426 -19 OFFCURVE",
"469 -19 CURVE SMOOTH",
"490 -19 OFFCURVE",
"511 0 OFFCURVE",
"511 24 CURVE SMOOTH",
"511 71 OFFCURVE",
"437 46 OFFCURVE",
"441 138 CURVE SMOOTH",
"450 359 LINE",
"460 497 LINE SMOOTH",
"464 550 OFFCURVE",
"476 597 OFFCURVE",
"476 644 CURVE SMOOTH",
"476 668 OFFCURVE",
"446 687 OFFCURVE",
"425 687 CURVE SMOOTH",
"398 687 OFFCURVE",
"379 667 OFFCURVE",
"379 622 CURVE SMOOTH",
"379 596 OFFCURVE",
"386 568 OFFCURVE",
"384 542 CURVE SMOOTH",
"375 404 LINE",
"340 419 OFFCURVE",
"298 428 OFFCURVE",
"262 428 CURVE SMOOTH",
"103 428 OFFCURVE",
"60 302 OFFCURVE",
"60 159 CURVE SMOOTH",
"60 8 OFFCURVE",
"126 -19 OFFCURVE",
"180 -19 CURVE SMOOTH"
);
},
{
closed = 1;
nodes = (
"159 59 OFFCURVE",
"139 72 OFFCURVE",
"139 156 CURVE SMOOTH",
"139 274 OFFCURVE",
"171 351 OFFCURVE",
"262 351 CURVE SMOOTH",
"309 351 OFFCURVE",
"343 338 OFFCURVE",
"369 321 CURVE",
"312 194 LINE SMOOTH",
"279 121 OFFCURVE",
"219 59 OFFCURVE",
"180 59 CURVE SMOOTH"
);
}
);
width = 565;
}
);
unicode = 0064;
},
{
color = 1;
glyphname = e;
lastChange = "2016-01-10 19:28:58 +0000";
layers = (
{
anchors = (
{
name = top;
position = "{261, 407}";
}
);
background = {
paths = (
{
closed = 1;
nodes = (
"366 -18 OFFCURVE",
"439 48 OFFCURVE",
"439 98 CURVE SMOOTH",
"439 119 OFFCURVE",
"427 138 OFFCURVE",
"402 138 CURVE SMOOTH",
"355 138 OFFCURVE",
"358 58 OFFCURVE",
"259 58 CURVE SMOOTH",
"193 58 OFFCURVE",
"139 122 OFFCURVE",
"139 199 CURVE SMOOTH",
"139 277 OFFCURVE",
"195 351 OFFCURVE",
"266 351 CURVE SMOOTH",
"298 351 OFFCURVE",
"318 320 OFFCURVE",
"320 279 CURVE",
"320 279 OFFCURVE",
"387 323 OFFCURVE",
"387 323 CURVE",
"387 404 OFFCURVE",
"320 428 OFFCURVE",
"266 428 CURVE SMOOTH",
"152 428 OFFCURVE",
"60 320 OFFCURVE",
"60 199 CURVE SMOOTH",
"60 71 OFFCURVE",
"143 -20 OFFCURVE",
"259 -19 CURVE SMOOTH"
);
},
{
closed = 1;
nodes = (
"252 147 OFFCURVE",
"344 194 OFFCURVE",
"425 258 CURVE SMOOTH",
"465 289 OFFCURVE",
"503 333 OFFCURVE",
"503 364 CURVE SMOOTH",
"503 388 OFFCURVE",
"489 400 OFFCURVE",
"473 400 CURVE SMOOTH",
"452 400 OFFCURVE",
"445 383 OFFCURVE",
"427 364 CURVE SMOOTH",
"340 272 OFFCURVE",
"232 215 OFFCURVE",
"97 193 CURVE",
"97 193 OFFCURVE",
"134 125 OFFCURVE",
"134 125 CURVE"
);
}
);
};
layerId = "D34FCF88-AF1D-4520-8FB0-498E26D42FBC";
name = Regular;
paths = (
{
closed = 1;
nodes = (
"322 351 OFFCURVE",
"340 328 OFFCURVE",
"340 306 CURVE SMOOTH",
"340 261 OFFCURVE",
"242 221 OFFCURVE",
"97 203 CURVE",
"134 135 LINE",
"310 160 OFFCURVE",
"432 218 OFFCURVE",
"432 306 CURVE SMOOTH",
"432 367 OFFCURVE",
"368 429 OFFCURVE",
"281 428 CURVE SMOOTH",
"200 427 OFFCURVE",
"130 385 OFFCURVE",
"130 345 CURVE SMOOTH",
"130 328 OFFCURVE",
"139 311 OFFCURVE",
"158 311 CURVE SMOOTH",
"206 311 OFFCURVE",
"211 351 OFFCURVE",
"281 351 CURVE"
);
},
{
closed = 1;
nodes = (
"60 71 OFFCURVE",
"142 -20 OFFCURVE",
"265 -19 CURVE SMOOTH",
"372 -18 OFFCURVE",
"449 52 OFFCURVE",
"449 98 CURVE SMOOTH",
"449 119 OFFCURVE",
"437 138 OFFCURVE",
"412 138 CURVE SMOOTH",
"367 138 OFFCURVE",
"367 58 OFFCURVE",
"265 58 CURVE SMOOTH",
"192 58 OFFCURVE",
"139 115 OFFCURVE",
"139 199 CURVE SMOOTH",
"139 247 OFFCURVE",
"158 268 OFFCURVE",
"158 288 CURVE SMOOTH",
"158 313 OFFCURVE",
"139 325 OFFCURVE",
"119 325 CURVE SMOOTH",
"84 325 OFFCURVE",
"61 263 OFFCURVE",
"60 199 CURVE"
);
}
);
width = 499;
}
);
unicode = 0065;
},
{
color = 0;
glyphname = f;
lastChange = "2016-01-11 17:50:59 +0000";
layers = (
{
background = {
paths = (
{
closed = 1;
nodes = (
"192 240 OFFCURVE",
"210 323 OFFCURVE",
"210 364 CURVE SMOOTH",
"210 525 LINE SMOOTH",
"210 580 OFFCURVE",
"238 615 OFFCURVE",
"292 615 CURVE SMOOTH",
"351 615 OFFCURVE",
"369 547 OFFCURVE",
"412 547 CURVE SMOOTH",
"435 547 OFFCURVE",
"457 564 OFFCURVE",
"457 590 CURVE SMOOTH",
"457 616 OFFCURVE",
"428 647 OFFCURVE",
"386 666 CURVE SMOOTH",
"359 678 OFFCURVE",
"323 687 OFFCURVE",
"292 687 CURVE SMOOTH",
"201 687 OFFCURVE",
"133 632 OFFCURVE",
"133 525 CURVE SMOOTH",
"133 364 LINE SMOOTH",
"133 330 OFFCURVE",
"124 317 OFFCURVE",
"108 317 CURVE SMOOTH",
"92 317 OFFCURVE",
"88 322 OFFCURVE",
"71 322 CURVE SMOOTH",
"55 322 OFFCURVE",
"37 312 OFFCURVE",
"37 285 CURVE SMOOTH",
"37 253 OFFCURVE",
"73 240 OFFCURVE",
"107 240 CURVE SMOOTH"
);
}
);
};
layerId = "D34FCF88-AF1D-4520-8FB0-498E26D42FBC";
name = Regular;
paths = (
{
closed = 1;
nodes = (
"200 324 OFFCURVE",
"256 329 OFFCURVE",
"320 340 CURVE SMOOTH",
"330 342 OFFCURVE",
"337 349 OFFCURVE",
"337 363 CURVE SMOOTH",
"337 386 OFFCURVE",
"326 407 OFFCURVE",
"311 407 CURVE SMOOTH",
"22 407 LINE SMOOTH",
"13 407 OFFCURVE",
"9 399 OFFCURVE",
"9 388 CURVE SMOOTH",
"9 373 OFFCURVE",
"16 350 OFFCURVE",
"29 345 CURVE SMOOTH",
"72 329 OFFCURVE",
"120 324 OFFCURVE",
"151 324 CURVE"
);
},
{
closed = 1;
nodes = (
"164 -238 OFFCURVE",
"179 -212 OFFCURVE",
"179 -189 CURVE SMOOTH",
"179 -100 OFFCURVE",
"192 6 OFFCURVE",
"192 95 CURVE SMOOTH",
"193 376 LINE SMOOTH",
"194 557 OFFCURVE",
"223 610 OFFCURVE",
"296 610 CURVE SMOOTH",
"332 610 OFFCURVE",
"342 596 OFFCURVE",
"364 596 CURVE SMOOTH",
"386 596 OFFCURVE",
"397 612 OFFCURVE",
"397 631 CURVE SMOOTH",
"397 654 OFFCURVE",
"382 666 OFFCURVE",
"362 674 CURVE SMOOTH",
"344 681 OFFCURVE",
"321 687 OFFCURVE",
"296 687 CURVE",
"241 687 OFFCURVE",
"206 671 OFFCURVE",
"180 648 CURVE SMOOTH",
"118 593 OFFCURVE",
"103 474 OFFCURVE",
"106 376 CURVE SMOOTH",
"115 95 LINE SMOOTH",
"117 23 OFFCURVE",
"88 -113 OFFCURVE",
"88 -175 CURVE SMOOTH",
"88 -205 OFFCURVE",
"129 -238 OFFCURVE",
"149 -238 CURVE SMOOTH"
);
}
);
width = 336;
}
);
unicode = 0066;
},
{
color = 0;
glyphname = g;
lastChange = "2016-01-11 16:50:57 +0000";
layers = (
{
background = {
paths = (
{
closed = 1;
nodes = (
"319 -212 OFFCURVE",
"413 -145 OFFCURVE",
"413 -59 CURVE SMOOTH",
"413 -1 OFFCURVE",
"375 40 OFFCURVE",
"305 40 CURVE SMOOTH",
"163 40 LINE SMOOTH",
"123 40 OFFCURVE",
"102 48 OFFCURVE",
"102 75 CURVE SMOOTH",
"102 105 OFFCURVE",
"125 121 OFFCURVE",
"177 167 CURVE",
"147 186 LINE",
"87 133 OFFCURVE",
"62 107 OFFCURVE",
"62 69 CURVE SMOOTH",
"62 39 OFFCURVE",
"73 0 OFFCURVE",
"163 0 CURVE SMOOTH",
"304 0 LINE SMOOTH",
"347 0 OFFCURVE",
"374 -18 OFFCURVE",
"374 -63 CURVE SMOOTH",
"374 -117 OFFCURVE",
"298 -177 OFFCURVE",
"191 -177 CURVE SMOOTH",
"127 -177 OFFCURVE",
"83 -159 OFFCURVE",
"83 -105 CURVE SMOOTH",
"83 -55 OFFCURVE",
"121 -25 OFFCURVE",
"171 12 CURVE",
"142 30 LINE",
"74 -21 OFFCURVE",
"42 -48 OFFCURVE",
"42 -107 CURVE SMOOTH",
"42 -161 OFFCURVE",
"76 -212 OFFCURVE",
"191 -212 CURVE SMOOTH"
);
},
{
closed = 1;
nodes = (
"307 140 OFFCURVE",
"352 205 OFFCURVE",
"352 277 CURVE",
"352 347 OFFCURVE",
"306 411 OFFCURVE",
"210 411 CURVE",
"113 411 OFFCURVE",
"68 347 OFFCURVE",
"68 275 CURVE",
"68 205 OFFCURVE",
"113 140 OFFCURVE",
"210 140 CURVE"
);
},
{
closed = 1;
nodes = (
"148 176 OFFCURVE",
"113 220 OFFCURVE",
"113 276 CURVE",
"113 332 OFFCURVE",
"148 375 OFFCURVE",
"210 375 CURVE",
"274 375 OFFCURVE",
"308 332 OFFCURVE",
"308 276 CURVE",
"308 220 OFFCURVE",
"273 176 OFFCURVE",
"210 176 CURVE"
);
},
{
closed = 1;
nodes = (
"420 395 LINE",
"267 395 LINE",
"267 371 LINE",
"420 360 LINE"
);
}
);
};
layerId = "D34FCF88-AF1D-4520-8FB0-498E26D42FBC";
name = Regular;
paths = (
{
closed = 1;
nodes = (
"296 136 OFFCURVE",
"365 191 OFFCURVE",
"365 282 CURVE SMOOTH",
"365 373 OFFCURVE",
"306 428 OFFCURVE",
"205 428 CURVE SMOOTH",
"167 428 OFFCURVE",
"150 424 OFFCURVE",
"128 418 CURVE SMOOTH",
"83 392 OFFCURVE",
"55 345 OFFCURVE",
"55 282 CURVE SMOOTH",
"55 191 OFFCURVE",
"120 136 OFFCURVE",
"205 136 CURVE SMOOTH"
);
},
{
closed = 1;
nodes = (
"160 213 OFFCURVE",
"134 244 OFFCURVE",
"134 282 CURVE SMOOTH",
"134 306 OFFCURVE",
"142 328 OFFCURVE",
"158 343 CURVE SMOOTH",
"171 348 OFFCURVE",
"191 351 OFFCURVE",
"215 351 CURVE SMOOTH",
"239 351 OFFCURVE",
"259 344 OFFCURVE",
"273 332 CURVE SMOOTH",
"281 320 OFFCURVE",
"286 302 OFFCURVE",
"286 282 CURVE SMOOTH",
"286 244 OFFCURVE",
"256 213 OFFCURVE",
"205 213 CURVE SMOOTH"
);
},
{
closed = 1;
nodes = (
"45 0 OFFCURVE",
"106 -23 OFFCURVE",
"192 -23 CURVE SMOOTH",
"265 -23 LINE SMOOTH",
"308 -23 OFFCURVE",
"343 -26 OFFCURVE",
"343 -70 CURVE SMOOTH",
"343 -126 OFFCURVE",
"265 -167 OFFCURVE",
"193 -167 CURVE SMOOTH",
"151 -167 OFFCURVE",
"131 -155 OFFCURVE",
"120 -139 CURVE SMOOTH",
"100 -108 OFFCURVE",
"108 -64 OFFCURVE",
"74 -64 CURVE SMOOTH",
"55 -64 OFFCURVE",
"27 -89 OFFCURVE",
"27 -132 CURVE SMOOTH",
"27 -155 OFFCURVE",
"39 -180 OFFCURVE",
"63 -199 CURVE SMOOTH",
"91 -226 OFFCURVE",
"143 -238 OFFCURVE",
"193 -238 CURVE SMOOTH",
"316 -238 OFFCURVE",
"422 -173 OFFCURVE",
"422 -70 CURVE SMOOTH",
"422 38 OFFCURVE",
"353 56 OFFCURVE",
"265 56 CURVE SMOOTH",
"192 56 LINE SMOOTH",
"142 56 OFFCURVE",
"124 63 OFFCURVE",
"124 80 CURVE SMOOTH",
"124 102 OFFCURVE",
"155 133 OFFCURVE",
"196 156 CURVE",
"140 194 LINE",
"74 148 OFFCURVE",
"45 107 OFFCURVE",
"45 65 CURVE SMOOTH"
);
},
{
closed = 1;
nodes = (
"354 344 OFFCURVE",
"438 358 OFFCURVE",
"438 400 CURVE SMOOTH",
"438 430 OFFCURVE",
"417 440 OFFCURVE",
"399 440 CURVE SMOOTH",
"377 440 OFFCURVE",
"354 418 OFFCURVE",
"313 418 CURVE SMOOTH",
"298 418 OFFCURVE",
"274 419 OFFCURVE",
"251 423 CURVE",
"293 344 LINE"
);
}
);
width = 444;
}
);
unicode = 0067;
},
{
color = 1;
glyphname = h;
lastChange = "2015-11-23 12:30:56 +0000";
layers = (
{
layerId = "D34FCF88-AF1D-4520-8FB0-498E26D42FBC";
name = Regular;
paths = (
{
closed = 1;
nodes = (
"224 -19 OFFCURVE",
"277 351 OFFCURVE",
"364 351 CURVE SMOOTH",
"385 351 OFFCURVE",
"397 319 OFFCURVE",
"397 281 CURVE SMOOTH",
"397 85 LINE SMOOTH",
"397 14 OFFCURVE",
"429 -19 OFFCURVE",
"485 -19 CURVE SMOOTH",
"514 -19 OFFCURVE",
"545 -4 OFFCURVE",
"545 26 CURVE SMOOTH",
"545 50 OFFCURVE",
"531 62 OFFCURVE",
"515 62 CURVE SMOOTH",
"504 62 OFFCURVE",
"501 58 OFFCURVE",
"489 58 CURVE SMOOTH",
"479 58 OFFCURVE",
"474 65 OFFCURVE",
"474 85 CURVE SMOOTH",
"474 281 LINE SMOOTH",
"474 390 OFFCURVE",
"417 428 OFFCURVE",
"364 428 CURVE SMOOTH",
"247 428 OFFCURVE",
"177 132 OFFCURVE",
"177 132 CURVE",
"177 132 OFFCURVE",
"187 135 OFFCURVE",
"187 135 CURVE",
"189 295 LINE SMOOTH",
"189 333 OFFCURVE",
"180 439 OFFCURVE",
"180 487 CURVE SMOOTH",
"180 549 OFFCURVE",
"196 597 OFFCURVE",
"196 644 CURVE SMOOTH",
"196 668 OFFCURVE",
"175 687 OFFCURVE",
"154 687 CURVE SMOOTH",
"127 687 OFFCURVE",
"108 667 OFFCURVE",
"108 622 CURVE SMOOTH",
"108 596 OFFCURVE",
"100 496 OFFCURVE",
"100 476 CURVE",
"100 424 OFFCURVE",
"113 314 OFFCURVE",
"113 261 CURVE SMOOTH",
"113 104 LINE",
"113 55 OFFCURVE",
"109 53 OFFCURVE",
"109 27 CURVE SMOOTH",
"109 -3 OFFCURVE",
"127 -19 OFFCURVE",
"148 -19 CURVE SMOOTH"
);
}
);
width = 580;
}
);
unicode = 0068;
},
{
color = 1;
glyphname = i;
lastChange = "2016-01-10 19:26:30 +0000";
layers = (
{
background = {
paths = (
{
closed = 1;
nodes = (
"-101 -19 OFFCURVE",
"-48 351 OFFCURVE",
"39 351 CURVE SMOOTH",
"60 351 OFFCURVE",
"72 319 OFFCURVE",
"72 281 CURVE SMOOTH",
"72 85 LINE SMOOTH",
"72 14 OFFCURVE",
"104 -19 OFFCURVE",
"160 -19 CURVE SMOOTH",
"189 -19 OFFCURVE",
"220 -4 OFFCURVE",
"220 26 CURVE SMOOTH",
"220 50 OFFCURVE",
"206 62 OFFCURVE",
"190 62 CURVE SMOOTH",
"179 62 OFFCURVE",
"176 58 OFFCURVE",
"164 58 CURVE SMOOTH",
"154 58 OFFCURVE",
"149 65 OFFCURVE",
"149 85 CURVE SMOOTH",
"149 281 LINE SMOOTH",
"149 390 OFFCURVE",
"92 428 OFFCURVE",
"39 428 CURVE SMOOTH",
"-78 428 OFFCURVE",
"-148 132 OFFCURVE",
"-148 132 CURVE",
"-148 132 OFFCURVE",
"-138 135 OFFCURVE",
"-138 135 CURVE",
"-136 295 LINE SMOOTH",
"-136 333 OFFCURVE",
"-145 439 OFFCURVE",
"-145 487 CURVE SMOOTH",
"-145 549 OFFCURVE",
"-129 597 OFFCURVE",
"-129 644 CURVE SMOOTH",
"-129 668 OFFCURVE",
"-150 687 OFFCURVE",
"-171 687 CURVE SMOOTH",
"-198 687 OFFCURVE",
"-217 667 OFFCURVE",
"-217 622 CURVE SMOOTH",
"-217 596 OFFCURVE",
"-225 496 OFFCURVE",
"-225 476 CURVE",
"-225 424 OFFCURVE",
"-212 314 OFFCURVE",
"-212 261 CURVE SMOOTH",
"-212 104 LINE",
"-212 55 OFFCURVE",
"-216 53 OFFCURVE",
"-216 27 CURVE SMOOTH",
"-216 -3 OFFCURVE",
"-198 -19 OFFCURVE",
"-177 -19 CURVE SMOOTH"
);
}
);
};
layerId = "D34FCF88-AF1D-4520-8FB0-498E26D42FBC";
name = Regular;
paths = (
{
closed = 1;
nodes = (
"209 -19 OFFCURVE",
"250 6 OFFCURVE",
"250 36 CURVE SMOOTH",
"250 60 OFFCURVE",
"236 72 OFFCURVE",
"220 72 CURVE SMOOTH",
"199 72 OFFCURVE",
"192 58 OFFCURVE",
"174 58 CURVE SMOOTH",
"158 58 OFFCURVE",
"149 74 OFFCURVE",
"149 100 CURVE SMOOTH",
"149 238 LINE SMOOTH",
"149 300 OFFCURVE",
"165 338 OFFCURVE",
"165 385 CURVE SMOOTH",
"165 409 OFFCURVE",
"134 428 OFFCURVE",
"113 428 CURVE SMOOTH",
"86 428 OFFCURVE",
"67 408 OFFCURVE",
"67 363 CURVE SMOOTH",
"67 337 OFFCURVE",
"72 303 OFFCURVE",
"72 283 CURVE SMOOTH",
"72 100 LINE SMOOTH",
"72 9 OFFCURVE",
"118 -19 OFFCURVE",
"170 -19 CURVE SMOOTH"
);
},
{
closed = 1;
nodes = (
"156 542 OFFCURVE",
"183 581 OFFCURVE",
"183 602 CURVE SMOOTH",
"183 643 OFFCURVE",
"137 676 OFFCURVE",
"109 676 CURVE SMOOTH",
"86 676 OFFCURVE",
"59 637 OFFCURVE",
"59 616 CURVE SMOOTH",
"59 575 OFFCURVE",
"105 542 OFFCURVE",
"133 542 CURVE"
);
}
);
width = 272;
}
);
unicode = 0069;
},
{
glyphname = idotless;
lastChange = "2016-01-10 19:29:28 +0000";
layers = (
{
anchors = (
{
name = top;
position = "{113, 407}";
}
);
background = {
paths = (
{
closed = 1;
nodes = (
"149 100 LINE SMOOTH",
"149 74 OFFCURVE",
"158 58 OFFCURVE",
"174 58 CURVE SMOOTH",
"192 58 OFFCURVE",
"199 72 OFFCURVE",
"220 72 CURVE SMOOTH",
"236 72 OFFCURVE",
"250 60 OFFCURVE",
"250 36 CURVE SMOOTH",
"250 6 OFFCURVE",
"209 -19 OFFCURVE",
"170 -19 CURVE SMOOTH",
"118 -19 OFFCURVE",
"72 9 OFFCURVE",
"72 100 CURVE SMOOTH",
"72 283 LINE SMOOTH",
"72 303 OFFCURVE",
"67 337 OFFCURVE",
"67 363 CURVE SMOOTH",
"67 408 OFFCURVE",
"86 428 OFFCURVE",
"113 428 CURVE SMOOTH",
"134 428 OFFCURVE",
"165 409 OFFCURVE",
"165 385 CURVE SMOOTH",
"165 338 OFFCURVE",
"149 300 OFFCURVE",
"149 238 CURVE SMOOTH"
);
},
{
closed = 1;
nodes = (
"59 616 CURVE SMOOTH",
"59 575 OFFCURVE",
"105 542 OFFCURVE",
"133 542 CURVE",
"156 542 OFFCURVE",
"183 581 OFFCURVE",
"183 602 CURVE SMOOTH",
"183 643 OFFCURVE",
"137 676 OFFCURVE",
"109 676 CURVE SMOOTH",
"86 676 OFFCURVE",
"59 637 OFFCURVE"
);
}
);
};
layerId = "D34FCF88-AF1D-4520-8FB0-498E26D42FBC";
name = Regular;
paths = (
{
closed = 1;
nodes = (
"149 100 LINE SMOOTH",
"149 74 OFFCURVE",
"158 58 OFFCURVE",
"174 58 CURVE SMOOTH",
"192 58 OFFCURVE",
"199 72 OFFCURVE",
"220 72 CURVE SMOOTH",
"236 72 OFFCURVE",
"250 60 OFFCURVE",
"250 36 CURVE SMOOTH",
"250 6 OFFCURVE",
"209 -19 OFFCURVE",
"170 -19 CURVE SMOOTH",
"118 -19 OFFCURVE",
"72 9 OFFCURVE",
"72 100 CURVE SMOOTH",
"72 283 LINE SMOOTH",
"72 303 OFFCURVE",
"67 337 OFFCURVE",
"67 363 CURVE SMOOTH",
"67 408 OFFCURVE",
"86 428 OFFCURVE",
"113 428 CURVE SMOOTH",
"134 428 OFFCURVE",
"165 409 OFFCURVE",
"165 385 CURVE SMOOTH",
"165 338 OFFCURVE",
"149 300 OFFCURVE",
"149 238 CURVE SMOOTH"
);
}
);
width = 272;
}
);
unicode = 0131;
},
{
color = 0;
glyphname = j;
lastChange = "2016-01-10 10:22:27 +0000";
layers = (
{
background = {
paths = (
{
closed = 1;
nodes = (
"-51 -198 OFFCURVE",
"-8 -228 OFFCURVE",
"21 -219 CURVE SMOOTH",
"60 -207 OFFCURVE",
"107 -180 OFFCURVE",
"157 -161 CURVE SMOOTH",
"228 -129 LINE",
"404 -68 LINE",
"462 -48 OFFCURVE",
"510 -64 OFFCURVE",
"555 -50 CURVE SMOOTH",
"578 -43 OFFCURVE",
"590 -18 OFFCURVE",
"584 2 CURVE SMOOTH",
"563 69 OFFCURVE",
"475 16 OFFCURVE",
"290 -16 CURVE",
"370 -12 LINE",
"461 75 OFFCURVE",
"532 173 OFFCURVE",
"511 240 CURVE SMOOTH",
"496 291 OFFCURVE",
"451 347 OFFCURVE",
"306 303 CURVE SMOOTH",
"169 261 OFFCURVE",
"61 183 OFFCURVE",
"108 31 CURVE SMOOTH",
"118 -3 OFFCURVE",
"139 -41 OFFCURVE",
"164 -70 CURVE",
"92 -101 LINE SMOOTH",
"60 -111 OFFCURVE",
"21 -123 OFFCURVE",
"-4 -130 CURVE SMOOTH",
"-38 -141 OFFCURVE",
"-62 -162 OFFCURVE",
"-57 -179 CURVE SMOOTH"
);
},
{
closed = 1;
nodes = (
"155 141 OFFCURVE",
"219 194 OFFCURVE",
"332 228 CURVE SMOOTH",
"412 252 OFFCURVE",
"431 237 OFFCURVE",
"437 217 CURVE SMOOTH",
"448 180 OFFCURVE",
"406 104 OFFCURVE",
"346 51 CURVE SMOOTH",
"241 -40 LINE",
"217 -20 OFFCURVE",
"195 9 OFFCURVE",
"181 54 CURVE SMOOTH"
);
}
);
};
layerId = "D34FCF88-AF1D-4520-8FB0-498E26D42FBC";
name = Regular;
paths = (
{
closed = 1;
nodes = (
"19 -221 OFFCURVE",
"43 -205 OFFCURVE",
"64 -186 CURVE SMOOTH",
"107 -147 OFFCURVE",
"140 -101 OFFCURVE",
"143 -15 CURVE SMOOTH",
"152 238 LINE SMOOTH",
"154 300 OFFCURVE",
"168 338 OFFCURVE",
"168 385 CURVE SMOOTH",
"168 409 OFFCURVE",
"137 428 OFFCURVE",
"116 428 CURVE SMOOTH",
"89 428 OFFCURVE",
"70 408 OFFCURVE",
"70 363 CURVE SMOOTH",
"70 337 OFFCURVE",
"76 303 OFFCURVE",
"75 283 CURVE SMOOTH",
"66 -15 LINE SMOOTH",
"64 -79 OFFCURVE",
"43 -105 OFFCURVE",
"-11 -132 CURVE SMOOTH",
"-34 -143 OFFCURVE",
"-58 -150 OFFCURVE",
"-58 -177 CURVE SMOOTH",
"-58 -196 OFFCURVE",
"-34 -221 OFFCURVE",
"-5 -221 CURVE SMOOTH"
);
},
{
closed = 1;
nodes = (
"86 676 OFFCURVE",
"59 637 OFFCURVE",
"59 616 CURVE SMOOTH",
"59 575 OFFCURVE",
"105 542 OFFCURVE",
"133 542 CURVE",
"156 542 OFFCURVE",
"183 581 OFFCURVE",
"183 602 CURVE SMOOTH",
"183 643 OFFCURVE",
"137 676 OFFCURVE",
"109 676 CURVE SMOOTH"
);
}
);
width = 228;
}
);
unicode = 006A;
},
{
color = 0;
glyphname = k;
lastChange = "2016-01-11 17:15:46 +0000";
layers = (
{
background = {
paths = (
{
closed = 1;
nodes = (
"171 -19 OFFCURVE",
"190 1 OFFCURVE",
"190 46 CURVE SMOOTH",
"190 72 OFFCURVE",
"185 106 OFFCURVE",
"185 126 CURVE SMOOTH",
"184 497 LINE SMOOTH",
"184 559 OFFCURVE",
"200 597 OFFCURVE",
"200 644 CURVE SMOOTH",
"200 668 OFFCURVE",
"169 687 OFFCURVE",
"148 687 CURVE SMOOTH",
"121 687 OFFCURVE",
"102 667 OFFCURVE",
"102 622 CURVE SMOOTH",
"102 596 OFFCURVE",
"107 562 OFFCURVE",
"107 542 CURVE SMOOTH",
"108 171 LINE SMOOTH",
"108 109 OFFCURVE",
"92 71 OFFCURVE",
"92 24 CURVE SMOOTH",
"92 0 OFFCURVE",
"123 -19 OFFCURVE",
"144 -19 CURVE SMOOTH"
);
},
{
closed = 1;
nodes = (
"481 -19 OFFCURVE",
"502 -4 OFFCURVE",
"502 12 CURVE SMOOTH",
"502 32 OFFCURVE",
"466 58 OFFCURVE",
"424 92 CURVE SMOOTH",
"381 127 LINE SMOOTH",
"359 145 OFFCURVE",
"322 170 OFFCURVE",
"290 184 CURVE",
"314 164 LINE",
"356 208 LINE SMOOTH",
"418 273 OFFCURVE",
"451 322 OFFCURVE",
"451 380 CURVE SMOOTH",
"451 410 OFFCURVE",
"435 428 OFFCURVE",
"409 428 CURVE SMOOTH",
"354 428 OFFCURVE",
"392 357 OFFCURVE",
"303 265 CURVE SMOOTH",
"248 208 LINE SMOOTH",
"236 196 OFFCURVE",
"228 184 OFFCURVE",
"228 170 CURVE SMOOTH",
"228 155 OFFCURVE",
"236 144 OFFCURVE",
"250 133 CURVE SMOOTH",
"335 65 LINE SMOOTH",
"383 23 OFFCURVE",
"400 -19 OFFCURVE",
"451 -19 CURVE SMOOTH"
);
}
);
};
layerId = "D34FCF88-AF1D-4520-8FB0-498E26D42FBC";
name = Regular;
paths = (
{
closed = 1;
nodes = (
"481 -19 OFFCURVE",
"502 -4 OFFCURVE",
"502 12 CURVE SMOOTH",
"502 32 OFFCURVE",
"466 58 OFFCURVE",
"424 92 CURVE SMOOTH",
"381 127 LINE SMOOTH",
"352 151 OFFCURVE",
"307 186 OFFCURVE",
"265 204 CURVE",
"289 188 LINE",
"356 258 LINE SMOOTH",
"392 296 OFFCURVE",
"440 339 OFFCURVE",
"440 380 CURVE SMOOTH",
"440 410 OFFCURVE",
"424 428 OFFCURVE",
"398 428 CURVE SMOOTH",
"348 428 OFFCURVE",
"363 378 OFFCURVE",
"303 315 CURVE SMOOTH",
"248 258 LINE SMOOTH",
"224 233 OFFCURVE",
"201 218 OFFCURVE",
"201 193 CURVE SMOOTH",
"201 170 OFFCURVE",
"221 157 OFFCURVE",
"250 133 CURVE SMOOTH",
"335 65 LINE SMOOTH",
"391 20 OFFCURVE",
"400 -19 OFFCURVE",
"451 -19 CURVE SMOOTH"
);
},
{
closed = 1;
nodes = (
"171 -19 OFFCURVE",
"190 1 OFFCURVE",
"190 46 CURVE SMOOTH",
"190 72 OFFCURVE",
"185 106 OFFCURVE",
"185 126 CURVE SMOOTH",
"184 497 LINE SMOOTH",
"184 559 OFFCURVE",
"200 597 OFFCURVE",
"200 644 CURVE SMOOTH",
"200 668 OFFCURVE",
"169 687 OFFCURVE",
"148 687 CURVE SMOOTH",
"121 687 OFFCURVE",
"102 667 OFFCURVE",
"102 622 CURVE SMOOTH",
"102 596 OFFCURVE",
"107 562 OFFCURVE",
"107 542 CURVE SMOOTH",
"108 171 LINE SMOOTH",
"108 109 OFFCURVE",
"92 71 OFFCURVE",
"92 24 CURVE SMOOTH",
"92 0 OFFCURVE",
"123 -19 OFFCURVE",
"144 -19 CURVE SMOOTH"
);
}
);
width = 510;
}
);
unicode = 006B;
},
{
color = 1;
glyphname = l;
lastChange = "2016-01-11 17:50:09 +0000";
layers = (
{
background = {
paths = (
{
closed = 1;
nodes = (
"179 100 LINE SMOOTH",
"179 74 OFFCURVE",
"188 58 OFFCURVE",
"204 58 CURVE SMOOTH",
"222 58 OFFCURVE",
"229 72 OFFCURVE",
"250 72 CURVE SMOOTH",
"266 72 OFFCURVE",
"280 60 OFFCURVE",
"280 36 CURVE SMOOTH",
"280 6 OFFCURVE",
"239 -19 OFFCURVE",
"200 -19 CURVE SMOOTH",
"148 -19 OFFCURVE",
"102 9 OFFCURVE",
"102 100 CURVE SMOOTH",
"102 283 LINE SMOOTH",
"102 303 OFFCURVE",
"97 337 OFFCURVE",
"97 363 CURVE SMOOTH",
"97 408 OFFCURVE",
"116 428 OFFCURVE",
"143 428 CURVE SMOOTH",
"164 428 OFFCURVE",
"195 409 OFFCURVE",
"195 385 CURVE SMOOTH",
"195 338 OFFCURVE",
"179 300 OFFCURVE",
"179 238 CURVE SMOOTH"
);
},
{
closed = 1;
nodes = (
"85 616 CURVE SMOOTH",
"85 575 OFFCURVE",
"131 542 OFFCURVE",
"159 542 CURVE",
"182 542 OFFCURVE",
"209 581 OFFCURVE",
"209 602 CURVE SMOOTH",
"209 643 OFFCURVE",
"163 676 OFFCURVE",
"135 676 CURVE SMOOTH",
"112 676 OFFCURVE",
"85 637 OFFCURVE"
);
},
{
closed = 1;
nodes = (
"90 188 CURVE SMOOTH",
"90 279 OFFCURVE",
"117 466 OFFCURVE",
"117 542 CURVE SMOOTH",
"117 562 OFFCURVE",
"112 596 OFFCURVE",
"112 622 CURVE SMOOTH",
"112 667 OFFCURVE",
"131 687 OFFCURVE",
"158 687 CURVE SMOOTH",
"179 687 OFFCURVE",
"210 668 OFFCURVE",
"210 644 CURVE SMOOTH",
"210 597 OFFCURVE",
"194 559 OFFCURVE",
"194 497 CURVE",
"184 359 LINE",
"175 148 LINE SMOOTH",
"171 56 OFFCURVE",
"274 91 OFFCURVE",
"274 24 CURVE SMOOTH",
"274 0 OFFCURVE",
"254 -19 OFFCURVE",
"228 -19 CURVE SMOOTH",
"197 -19 OFFCURVE",
"146 4 OFFCURVE",
"117 46 CURVE SMOOTH",
"95 78 OFFCURVE",
"90 106 OFFCURVE"
);
}
);
};
layerId = "D34FCF88-AF1D-4520-8FB0-498E26D42FBC";
name = Regular;
paths = (
{
closed = 1;
nodes = (
"98 59 OFFCURVE",
"90 82 OFFCURVE",
"90 158 CURVE SMOOTH",
"90 257 OFFCURVE",
"117 460 OFFCURVE",
"117 542 CURVE SMOOTH",
"117 562 OFFCURVE",
"112 596 OFFCURVE",
"112 622 CURVE SMOOTH",
"112 667 OFFCURVE",
"131 687 OFFCURVE",
"158 687 CURVE SMOOTH",
"179 687 OFFCURVE",
"210 668 OFFCURVE",
"210 644 CURVE SMOOTH",
"210 597 OFFCURVE",
"194 559 OFFCURVE",
"194 497 CURVE",
"184 359 LINE",
"175 118 LINE SMOOTH",
"172 16 OFFCURVE",
"244 95 OFFCURVE",
"244 24 CURVE SMOOTH",
"244 0 OFFCURVE",
"223 -19 OFFCURVE",
"196 -19 CURVE SMOOTH",
"174 -19 OFFCURVE",
"139 -12 OFFCURVE",
"117 26 CURVE SMOOTH"
);
}
);
width = 299;
}
);
unicode = 006C;
},
{
color = 1;
glyphname = m;
lastChange = "2015-11-23 12:32:06 +0000";
layers = (
{
background = {
paths = (
{
closed = 1;
nodes = (
"554 -19 OFFCURVE",
"607 351 OFFCURVE",
"694 351 CURVE SMOOTH",
"715 351 OFFCURVE",
"727 319 OFFCURVE",
"727 281 CURVE SMOOTH",
"727 85 LINE SMOOTH",
"727 14 OFFCURVE",
"759 -19 OFFCURVE",
"815 -19 CURVE SMOOTH",
"844 -19 OFFCURVE",
"875 -4 OFFCURVE",
"875 26 CURVE SMOOTH",
"875 50 OFFCURVE",
"861 62 OFFCURVE",
"845 62 CURVE SMOOTH",
"834 62 OFFCURVE",
"831 58 OFFCURVE",
"819 58 CURVE SMOOTH",
"809 58 OFFCURVE",
"804 65 OFFCURVE",
"804 85 CURVE SMOOTH",
"804 281 LINE SMOOTH",
"804 390 OFFCURVE",
"747 428 OFFCURVE",
"694 428 CURVE SMOOTH",
"577 428 OFFCURVE",
"507 132 OFFCURVE",
"507 132 CURVE",
"507 132 OFFCURVE",
"517 135 OFFCURVE",
"517 135 CURVE",
"519 295 LINE SMOOTH",
"519 333 OFFCURVE",
"510 439 OFFCURVE",
"510 487 CURVE SMOOTH",
"510 549 OFFCURVE",
"526 597 OFFCURVE",
"526 644 CURVE SMOOTH",
"526 668 OFFCURVE",
"505 687 OFFCURVE",
"484 687 CURVE SMOOTH",
"457 687 OFFCURVE",
"438 667 OFFCURVE",
"438 622 CURVE SMOOTH",
"438 596 OFFCURVE",
"430 496 OFFCURVE",
"430 476 CURVE",
"430 424 OFFCURVE",
"443 314 OFFCURVE",
"443 261 CURVE SMOOTH",
"443 104 LINE",
"443 55 OFFCURVE",
"439 53 OFFCURVE",
"439 27 CURVE SMOOTH",
"439 -3 OFFCURVE",
"457 -19 OFFCURVE",
"478 -19 CURVE SMOOTH"
);
}
);
};
layerId = "D34FCF88-AF1D-4520-8FB0-498E26D42FBC";
name = Regular;
paths = (
{
closed = 1;
nodes = (
"405 281 LINE SMOOTH",
"410 337 OFFCURVE",
"407 351 OFFCURVE",
"396 351 CURVE SMOOTH",
"296 351 OFFCURVE",
"195 -19 OFFCURVE",
"121 -19 CURVE SMOOTH",
"100 -19 OFFCURVE",
"87 -3 OFFCURVE",
"87 27 CURVE SMOOTH",
"87 53 OFFCURVE",
"99 72 OFFCURVE",
"100 110 CURVE SMOOTH",
"104 236 LINE SMOOTH",
"106 297 OFFCURVE",
"77 338 OFFCURVE",
"77 385 CURVE SMOOTH",
"77 409 OFFCURVE",
"98 428 OFFCURVE",
"119 428 CURVE SMOOTH",
"189 428 OFFCURVE",
"164 328 OFFCURVE",
"187 142 CURVE",
"187 142 OFFCURVE",
"169 142 OFFCURVE",
"169 142 CURVE",
"169 142 OFFCURVE",
"279 428 OFFCURVE",
"396 428 CURVE SMOOTH",
"460 428 OFFCURVE",
"494 400 OFFCURVE",
"482 281 CURVE SMOOTH",
"460 94 LINE",
"460 94 OFFCURVE",
"455 144 OFFCURVE",
"455 144 CURVE",
"468 144 LINE",
"471 149 OFFCURVE",
"477 159 OFFCURVE",
"481 166 CURVE SMOOTH",
"532 256 OFFCURVE",
"650 428 OFFCURVE",
"713 428 CURVE SMOOTH",
"757 428 OFFCURVE",
"798 394 OFFCURVE",
"798 312 CURVE SMOOTH",
"798 105 LINE SMOOTH",
"798 76 OFFCURVE",
"805 58 OFFCURVE",
"821 58 CURVE SMOOTH",
"833 58 OFFCURVE",
"842 62 OFFCURVE",
"854 62 CURVE SMOOTH",
"870 62 OFFCURVE",
"884 50 OFFCURVE",
"884 26 CURVE SMOOTH",
"884 -6 OFFCURVE",
"848 -19 OFFCURVE",
"814 -19 CURVE SMOOTH",
"755 -19 OFFCURVE",
"721 24 OFFCURVE",
"721 105 CURVE SMOOTH",
"721 313 LINE SMOOTH",
"721 344 OFFCURVE",
"720 351 OFFCURVE",
"713 351 CURVE SMOOTH",
"677 351 OFFCURVE",
"597 224 OFFCURVE",
"562 170 CURVE",
"507 81 OFFCURVE",
"475 -19 OFFCURVE",
"428 -19 CURVE SMOOTH",
"396 -19 OFFCURVE",
"379 10 OFFCURVE",
"381 27 CURVE SMOOTH"
);
}
);
width = 904;
}
);
unicode = 006D;
},
{
color = 1;
glyphname = n;
lastChange = "2016-01-05 16:43:47 +0000";
layers = (
{
layerId = "D34FCF88-AF1D-4520-8FB0-498E26D42FBC";
name = Regular;
paths = (
{
closed = 1;
nodes = (
"224 -19 OFFCURVE",
"277 351 OFFCURVE",
"364 351 CURVE SMOOTH",
"385 351 OFFCURVE",
"397 320 OFFCURVE",
"397 281 CURVE SMOOTH",
"397 105 LINE SMOOTH",
"397 20 OFFCURVE",
"433 -19 OFFCURVE",
"495 -19 CURVE SMOOTH",
"529 -19 OFFCURVE",
"565 -6 OFFCURVE",
"565 26 CURVE",
"565 50 OFFCURVE",
"551 62 OFFCURVE",
"535 62 CURVE",
"520 62 OFFCURVE",
"515 58 OFFCURVE",
"499 58 CURVE SMOOTH",
"483 58 OFFCURVE",
"474 71 OFFCURVE",
"474 105 CURVE SMOOTH",
"474 281 LINE SMOOTH",
"474 390 OFFCURVE",
"417 428 OFFCURVE",
"364 428 CURVE SMOOTH",
"247 428 OFFCURVE",
"177 132 OFFCURVE",
"177 132 CURVE",
"177 132 OFFCURVE",
"187 135 OFFCURVE",
"187 135 CURVE",
"182 322 OFFCURVE",
"138 428 OFFCURVE",
"83 428 CURVE SMOOTH",
"62 428 OFFCURVE",
"41 409 OFFCURVE",
"41 385 CURVE SMOOTH",
"41 338 OFFCURVE",
"113 276 OFFCURVE",
"113 206 CURVE SMOOTH",
"113 104 LINE SMOOTH",
"113 55 OFFCURVE",
"109 53 OFFCURVE",
"109 27 CURVE SMOOTH",
"109 -3 OFFCURVE",
"127 -19 OFFCURVE",
"148 -19 CURVE SMOOTH"
);
}
);
width = 580;
}
);
unicode = 006E;
},
{
color = 1;
glyphname = o;
lastChange = "2016-01-10 19:29:32 +0000";
layers = (
{
anchors = (
{
name = top;
position = "{284, 407}";
}
);
background = {
paths = (
{
closed = 1;
nodes = (
"147 428 OFFCURVE",
"60 311 OFFCURVE",
"60 190 CURVE SMOOTH",
"60 79 OFFCURVE",
"146 -19 OFFCURVE",
"265 -19 CURVE SMOOTH",
"383 -19 OFFCURVE",
"489 89 OFFCURVE",
"489 210 CURVE SMOOTH",
"489 251 OFFCURVE",
"482 289 OFFCURVE",
"458 328 CURVE SMOOTH",
"426 378 OFFCURVE",
"376 428 OFFCURVE",
"290 428 CURVE SMOOTH"
);
},
{
closed = 1;
nodes = (
"348 352 OFFCURVE",
"410 288 OFFCURVE",
"410 210 CURVE SMOOTH",
"410 131 OFFCURVE",
"330 57 OFFCURVE",
"265 57 CURVE SMOOTH",
"221 57 OFFCURVE",
"200 69 OFFCURVE",
"181 83 CURVE SMOOTH",
"150 106 OFFCURVE",
"140 140 OFFCURVE",
"140 190 CURVE SMOOTH",
"140 269 OFFCURVE",
"205 352 OFFCURVE",
"290 352 CURVE SMOOTH"
);
}
);
};
layerId = "D34FCF88-AF1D-4520-8FB0-498E26D42FBC";
name = Regular;
paths = (
{
closed = 1;
nodes = (
"402 -19 OFFCURVE",
"489 98 OFFCURVE",
"489 219 CURVE SMOOTH",
"489 328 OFFCURVE",
"403 428 OFFCURVE",
"284 428 CURVE SMOOTH",
"166 428 OFFCURVE",
"60 320 OFFCURVE",
"60 199 CURVE SMOOTH",
"60 158 OFFCURVE",
"67 120 OFFCURVE",
"91 81 CURVE SMOOTH",
"123 31 OFFCURVE",
"173 -19 OFFCURVE",
"259 -19 CURVE SMOOTH"
);
},
{
closed = 1;
nodes = (
"201 58 OFFCURVE",
"139 122 OFFCURVE",
"139 199 CURVE SMOOTH",
"139 277 OFFCURVE",
"209 351 OFFCURVE",
"284 351 CURVE SMOOTH",
"364 351 OFFCURVE",
"410 270 OFFCURVE",
"410 219 CURVE SMOOTH",
"410 140 OFFCURVE",
"355 58 OFFCURVE",
"259 58 CURVE SMOOTH"
);
}
);
width = 549;
}
);
unicode = 006F;
},
{
color = 0;
glyphname = p;
lastChange = "2015-11-26 21:39:57 +0000";
layers = (
{
background = {
paths = (
{
closed = 1;
nodes = (
"74 -198 CURVE",
"79 -228 OFFCURVE",
"110 -247 OFFCURVE",
"133 -257 CURVE",
"136 -256 OFFCURVE",
"147 -245 OFFCURVE",
"148 -242 CURVE",
"150 -232 OFFCURVE",
"161 -160 OFFCURVE",
"162 -139 CURVE",
"163 -133 OFFCURVE",
"162 -86 OFFCURVE",
"162 -80 CURVE",
"164 -73 OFFCURVE",
"174 -21 OFFCURVE",
"178 -7 CURVE",
"181 8 OFFCURVE",
"187 42 OFFCURVE",
"207 52 CURVE",
"240 31 OFFCURVE",
"291 8 OFFCURVE",
"332 8 CURVE",
"346 8 OFFCURVE",
"356 11 OFFCURVE",
"369 22 CURVE",
"428 73 OFFCURVE",
"473 148 OFFCURVE",
"473 227 CURVE",
"473 277 OFFCURVE",
"469 340 OFFCURVE",
"428 375 CURVE",
"405 394 OFFCURVE",
"381 406 OFFCURVE",
"353 406 CURVE",
"350 406 OFFCURVE",
"340 405 OFFCURVE",
"339 404 CURVE",
"329 400 OFFCURVE",
"298 380 OFFCURVE",
"295 375 CURVE",
"162 170 LINE",
"162 404 LINE",
"119 449 LINE",
"89 420 LINE",
"86 416 OFFCURVE",
"75 313 OFFCURVE",
"74 272 CURVE",
"74 264 OFFCURVE",
"73 99 OFFCURVE",
"73 37 CURVE",
"73 2 OFFCURVE",
"74 -163 OFFCURVE"
);
},
{
closed = 1;
nodes = (
"235 141 CURVE",
"235 144 OFFCURVE",
"236 154 OFFCURVE",
"236 154 CURVE",
"257 208 OFFCURVE",
"327 280 OFFCURVE",
"369 316 CURVE",
"392 313 OFFCURVE",
"385 264 OFFCURVE",
"385 259 CURVE",
"385 199 OFFCURVE",
"366 130 OFFCURVE",
"310 96 CURVE",
"309 96 OFFCURVE",
"300 95 OFFCURVE",
"296 95 CURVE",
"269 95 OFFCURVE",
"235 111 OFFCURVE"
);
}
);
};
layerId = "D34FCF88-AF1D-4520-8FB0-498E26D42FBC";
name = Regular;
paths = (
{
closed = 1;
nodes = (
"147 -238 OFFCURVE",
"160 -208 OFFCURVE",
"160 -173 CURVE SMOOTH",
"160 -147 OFFCURVE",
"160 -106 OFFCURVE",
"160 -73 CURVE SMOOTH",
"169 5 LINE",
"204 -10 OFFCURVE",
"246 -19 OFFCURVE",
"282 -19 CURVE SMOOTH",
"441 -19 OFFCURVE",
"484 107 OFFCURVE",
"484 250 CURVE SMOOTH",
"484 401 OFFCURVE",
"418 428 OFFCURVE",
"364 428 CURVE SMOOTH",
"294 428 OFFCURVE",
"221 332 OFFCURVE",
"164 219 CURVE",
"184 142 LINE",
"161 328 OFFCURVE",
"186 428 OFFCURVE",
"116 428 CURVE SMOOTH",
"95 428 OFFCURVE",
"74 409 OFFCURVE",
"74 385 CURVE SMOOTH",
"74 338 OFFCURVE",
"103 297 OFFCURVE",
"101 236 CURVE",
"94 50 LINE",
"84 -28 LINE SMOOTH",
"80 -81 OFFCURVE",
"68 -134 OFFCURVE",
"68 -175 CURVE SMOOTH",
"68 -205 OFFCURVE",
"109 -238 OFFCURVE",
"129 -238 CURVE SMOOTH"
);
},
{
closed = 1;
nodes = (
"235 58 OFFCURVE",
"201 71 OFFCURVE",
"175 88 CURVE",
"232 215 LINE SMOOTH",
"265 288 OFFCURVE",
"325 350 OFFCURVE",
"364 350 CURVE SMOOTH",
"385 350 OFFCURVE",
"405 337 OFFCURVE",
"405 253 CURVE SMOOTH",
"405 135 OFFCURVE",
"373 58 OFFCURVE",
"282 58 CURVE SMOOTH"
);
}
);
width = 544;
}
);
unicode = 0070;
},
{
color = 0;
glyphname = q;
lastChange = "2015-11-26 21:39:57 +0000";
layers = (
{
background = {
paths = (
{
closed = 1;
nodes = (
"256 -19 OFFCURVE",
"330 92 OFFCURVE",
"369 168 CURVE SMOOTH",
"401 230 OFFCURVE",
"466 321 OFFCURVE",
"466 392 CURVE SMOOTH",
"466 414 OFFCURVE",
"440 428 OFFCURVE",
"423 428 CURVE SMOOTH",
"402 428 OFFCURVE",
"345 389 OFFCURVE",
"345 312 CURVE SMOOTH",
"345 257 OFFCURVE",
"361 214 OFFCURVE",
"370 140 CURVE SMOOTH",
"374 106 LINE SMOOTH",
"384 19 OFFCURVE",
"422 -19 OFFCURVE",
"469 -19 CURVE SMOOTH",
"490 -19 OFFCURVE",
"511 0 OFFCURVE",
"511 24 CURVE SMOOTH",
"511 71 OFFCURVE",
"450 46 OFFCURVE",
"442 138 CURVE SMOOTH",
"432 249 LINE",
"432 249 OFFCURVE",
"438 354 OFFCURVE",
"438 354 CURVE",
"438 354 OFFCURVE",
"393 373 OFFCURVE",
"393 373 CURVE",
"312 194 LINE SMOOTH",
"279 120 OFFCURVE",
"219 58 OFFCURVE",
"180 58 CURVE SMOOTH",
"159 58 OFFCURVE",
"139 74 OFFCURVE",
"139 186 CURVE SMOOTH",
"139 286 OFFCURVE",
"163 377 OFFCURVE",
"163 409 CURVE SMOOTH",
"163 431 OFFCURVE",
"150 444 OFFCURVE",
"122 444 CURVE SMOOTH",
"75 444 OFFCURVE",
"60 327 OFFCURVE",
"60 189 CURVE SMOOTH",
"60 13 OFFCURVE",
"126 -19 OFFCURVE",
"180 -19 CURVE SMOOTH"
);
}
);
};
layerId = "D34FCF88-AF1D-4520-8FB0-498E26D42FBC";
name = Regular;
paths = (
{
closed = 1;
nodes = (
"431 -238 OFFCURVE",
"443 -223 OFFCURVE",
"443 -190 CURVE SMOOTH",
"443 -167 OFFCURVE",
"437 -75 OFFCURVE",
"437 -57 CURVE",
"437 -5 OFFCURVE",
"442 79 OFFCURVE",
"442 148 CURVE SMOOTH",
"442 216 OFFCURVE",
"461 293 OFFCURVE",
"461 351 CURVE SMOOTH",
"461 392 OFFCURVE",
"427 418 OFFCURVE",
"406 418 CURVE SMOOTH",
"397 418 OFFCURVE",
"387 400 OFFCURVE",
"378 351 CURVE",
"312 204 LINE SMOOTH",
"279 129 OFFCURVE",
"223 59 OFFCURVE",
"185 59 CURVE SMOOTH",
"161 59 OFFCURVE",
"139 72 OFFCURVE",
"139 156 CURVE SMOOTH",
"139 264 OFFCURVE",
"191 351 OFFCURVE",
"262 351 CURVE SMOOTH",
"277 351 OFFCURVE",
"292 349 OFFCURVE",
"304 347 CURVE SMOOTH",
"333 342 OFFCURVE",
"352 357 OFFCURVE",
"352 381 CURVE SMOOTH",
"352 408 OFFCURVE",
"339 417 OFFCURVE",
"318 422 CURVE SMOOTH",
"299 426 OFFCURVE",
"280 428 OFFCURVE",
"262 428 CURVE SMOOTH",
"133 428 OFFCURVE",
"60 292 OFFCURVE",
"60 159 CURVE SMOOTH",
"60 18 OFFCURVE",
"129 -19 OFFCURVE",
"185 -19 CURVE SMOOTH",
"251 -19 OFFCURVE",
"328 67 OFFCURVE",
"372 170 CURVE",
"370 267 LINE",
"365 114 LINE",
"365 76 OFFCURVE",
"360 -20 OFFCURVE",
"360 -68 CURVE SMOOTH",
"360 -116 OFFCURVE",
"355 -154 OFFCURVE",
"355 -190 CURVE SMOOTH",
"355 -211 OFFCURVE",
"385 -238 OFFCURVE",
"409 -238 CURVE SMOOTH"
);
}
);
width = 541;
}
);
unicode = 0071;
},
{
color = 0;
glyphname = r;
lastChange = "2016-01-11 17:48:08 +0000";
layers = (
{
background = {
paths = (
{
closed = 0;
nodes = (
"269 383 LINE SMOOTH",
"368 383 OFFCURVE",
"365 303 OFFCURVE",
"412 303 CURVE SMOOTH",
"437 303 OFFCURVE",
"449 322 OFFCURVE",
"449 343 CURVE SMOOTH",
"449 393 OFFCURVE",
"376 459 OFFCURVE",
"269 460 CURVE SMOOTH"
);
}
);
};
layerId = "D34FCF88-AF1D-4520-8FB0-498E26D42FBC";
name = Regular;
paths = (
{
closed = 1;
nodes = (
"110 288 OFFCURVE",
"41 338 OFFCURVE",
"41 385 CURVE SMOOTH",
"41 409 OFFCURVE",
"62 428 OFFCURVE",
"83 428 CURVE SMOOTH",
"138 428 OFFCURVE",
"182 322 OFFCURVE",
"187 135 CURVE",
"187 135 OFFCURVE",
"177 114 OFFCURVE",
"177 114 CURVE",
"177 114 OFFCURVE",
"221 428 OFFCURVE",
"354 428 CURVE SMOOTH",
"407 428 OFFCURVE",
"449 390 OFFCURVE",
"449 346 CURVE SMOOTH",
"449 321 OFFCURVE",
"437 303 OFFCURVE",
"412 303 CURVE SMOOTH",
"377 303 OFFCURVE",
"381 341 OFFCURVE",
"354 341 CURVE SMOOTH",
"286 341 OFFCURVE",
"240 129 OFFCURVE",
"216 27 CURVE SMOOTH",
"208 0 OFFCURVE",
"195 -19 OFFCURVE",
"168 -19 CURVE SMOOTH",
"141 -19 OFFCURVE",
"121 -1 OFFCURVE",
"120 27 CURVE SMOOTH",
"113 210 LINE SMOOTH"
);
}
);
width = 468;
}
);
unicode = 0072;
},
{
color = 1;
glyphname = s;
lastChange = "2015-11-25 18:41:58 +0000";
layers = (
{
background = {
paths = (
{
closed = 1;
nodes = (
"129 -9 OFFCURVE",
"172 -19 OFFCURVE",
"216 -19 CURVE SMOOTH",
"279 -19 OFFCURVE",
"357 18 OFFCURVE",
"357 98 CURVE SMOOTH",
"357 245 OFFCURVE",
"149 219 OFFCURVE",
"149 303 CURVE SMOOTH",
"149 346 OFFCURVE",
"193 354 OFFCURVE",
"222 354 CURVE SMOOTH",
"336 354 OFFCURVE",
"287 258 OFFCURVE",
"341 258 CURVE SMOOTH",
"356 258 OFFCURVE",
"378 281 OFFCURVE",
"378 320 CURVE SMOOTH",
"378 345 OFFCURVE",
"366 372 OFFCURVE",
"342 392 CURVE SMOOTH",
"316 415 OFFCURVE",
"261 425 OFFCURVE",
"222 425 CURVE SMOOTH",
"134 425 OFFCURVE",
"70 374 OFFCURVE",
"70 303 CURVE SMOOTH",
"70 156 OFFCURVE",
"278 183 OFFCURVE",
"278 98 CURVE SMOOTH",
"278 66 OFFCURVE",
"245 52 OFFCURVE",
"216 52 CURVE SMOOTH",
"173 52 OFFCURVE",
"137 62 OFFCURVE",
"118 83 CURVE",
"118 83 OFFCURVE",
"156 10 OFFCURVE",
"156 10 CURVE",
"137 116 LINE SMOOTH",
"135 130 OFFCURVE",
"127 138 OFFCURVE",
"113 138 CURVE SMOOTH",
"101 138 OFFCURVE",
"92 130 OFFCURVE",
"91 116 CURVE SMOOTH",
"81 9 LINE SMOOTH",
"73 -39 OFFCURVE",
"95 -48 OFFCURVE",
"117 -48 CURVE SMOOTH",
"138 -48 OFFCURVE",
"148 -35 OFFCURVE",
"153 1 CURVE",
"153 1 OFFCURVE",
"101 7 OFFCURVE",
"101 7 CURVE"
);
}
);
};
guideLines = (
{
angle = 90;
position = "{83, 109}";
},
{
angle = 90;
position = "{334, 249}";
}
);
layerId = "D34FCF88-AF1D-4520-8FB0-498E26D42FBC";
name = Regular;
paths = (
{
closed = 1;
nodes = (
"298 415 OFFCURVE",
"255 425 OFFCURVE",
"211 425 CURVE SMOOTH",
"148 425 OFFCURVE",
"70 388 OFFCURVE",
"70 308 CURVE SMOOTH",
"70 161 OFFCURVE",
"278 187 OFFCURVE",
"278 103 CURVE SMOOTH",
"278 60 OFFCURVE",
"234 52 OFFCURVE",
"205 52 CURVE SMOOTH",
"91 52 OFFCURVE",
"140 148 OFFCURVE",
"86 148 CURVE SMOOTH",
"71 148 OFFCURVE",
"49 125 OFFCURVE",
"49 86 CURVE SMOOTH",
"49 61 OFFCURVE",
"61 34 OFFCURVE",
"85 14 CURVE SMOOTH",
"111 -9 OFFCURVE",
"166 -19 OFFCURVE",
"205 -19 CURVE SMOOTH",
"293 -19 OFFCURVE",
"357 32 OFFCURVE",
"357 103 CURVE SMOOTH",
"357 250 OFFCURVE",
"149 223 OFFCURVE",
"149 308 CURVE SMOOTH",
"149 340 OFFCURVE",
"182 354 OFFCURVE",
"211 354 CURVE SMOOTH",
"254 354 OFFCURVE",
"290 344 OFFCURVE",
"309 323 CURVE",
"309 323 OFFCURVE",
"271 396 OFFCURVE",
"271 396 CURVE",
"290 290 LINE SMOOTH",
"292 276 OFFCURVE",
"300 268 OFFCURVE",
"314 268 CURVE SMOOTH",
"326 268 OFFCURVE",
"335 276 OFFCURVE",
"336 290 CURVE SMOOTH",
"346 397 LINE SMOOTH",
"354 445 OFFCURVE",
"332 454 OFFCURVE",
"310 454 CURVE SMOOTH",
"289 454 OFFCURVE",
"279 441 OFFCURVE",
"274 405 CURVE",
"274 405 OFFCURVE",
"326 399 OFFCURVE",
"326 399 CURVE"
);
}
);
width = 418;
}
);
unicode = 0073;
},
{
glyphname = germandbls;
layers = (
{
layerId = "D34FCF88-AF1D-4520-8FB0-498E26D42FBC";
name = Regular;
paths = (
{
closed = 1;
nodes = (
"193 -74 CURVE",
"193 -109 OFFCURVE",
"232 -126 OFFCURVE",
"263 -126 CURVE",
"267 -126 OFFCURVE",
"279 -126 OFFCURVE",
"280 -125 CURVE",
"367 -96 OFFCURVE",
"436 -22 OFFCURVE",
"436 72 CURVE",
"436 83 OFFCURVE",
"434 112 OFFCURVE",
"433 114 CURVE",
"433 118 OFFCURVE",
"408 154 OFFCURVE",
"400 166 CURVE",
"395 171 OFFCURVE",
"349 210 OFFCURVE",
"348 217 CURVE",
"347 224 OFFCURVE",
"381 278 OFFCURVE",
"382 285 CURVE",
"383 287 OFFCURVE",
"384 310 OFFCURVE",
"384 318 CURVE",
"384 387 OFFCURVE",
"328 457 OFFCURVE",
"254 457 CURVE",
"217 457 OFFCURVE",
"154 421 OFFCURVE",
"125 405 CURVE",
"125 410 OFFCURVE",
"125 434 OFFCURVE",
"125 439 CURVE",
"125 507 OFFCURVE",
"139 571 OFFCURVE",
"177 627 CURVE",
"183 636 OFFCURVE",
"206 660 OFFCURVE",
"211 662 CURVE",
"243 673 OFFCURVE",
"349 648 OFFCURVE",
"349 713 CURVE",
"349 756 OFFCURVE",
"298 766 OFFCURVE",
"264 766 CURVE",
"129 766 OFFCURVE",
"57 669 OFFCURVE",
"40 542 CURVE",
"37 473 OFFCURVE",
"25 150 OFFCURVE",
"23 80 CURVE",
"23 79 OFFCURVE",
"23 72 OFFCURVE",
"23 70 CURVE",
"23 37 OFFCURVE",
"37 -7 OFFCURVE",
"74 -7 CURVE",
"100 -7 OFFCURVE",
"123 20 OFFCURVE",
"125 46 CURVE",
"127 61 OFFCURVE",
"123 185 OFFCURVE",
"125 199 CURVE",
"126 206 OFFCURVE",
"150 254 OFFCURVE",
"160 268 CURVE",
"183 304 OFFCURVE",
"202 343 OFFCURVE",
"245 354 CURVE",
"251 355 OFFCURVE",
"274 350 OFFCURVE",
"280 350 CURVE",
"280 319 LINE",
"194 234 LINE",
"193 233 OFFCURVE",
"193 223 OFFCURVE",
"193 219 CURVE",
"193 116 OFFCURVE",
"332 166 OFFCURVE",
"332 81 CURVE",
"332 -23 OFFCURVE",
"193 -10 OFFCURVE"
);
}
);
width = 462;
}
);
unicode = 00DF;
},
{
color = 0;
glyphname = t;
lastChange = "2016-01-11 18:29:52 +0000";
layers = (
{
background = {
paths = (
{
closed = 1;
nodes = (
"249 324 OFFCURVE",
"305 329 OFFCURVE",
"369 340 CURVE SMOOTH",
"379 342 OFFCURVE",
"386 349 OFFCURVE",
"386 363 CURVE SMOOTH",
"386 386 OFFCURVE",
"375 407 OFFCURVE",
"360 407 CURVE SMOOTH",
"71 407 LINE SMOOTH",
"62 407 OFFCURVE",
"58 399 OFFCURVE",
"58 388 CURVE SMOOTH",
"58 373 OFFCURVE",
"65 350 OFFCURVE",
"78 345 CURVE SMOOTH",
"121 329 OFFCURVE",
"169 324 OFFCURVE",
"200 324 CURVE"
);
},
{
closed = 1;
nodes = (
"213 -238 OFFCURVE",
"228 -212 OFFCURVE",
"228 -189 CURVE SMOOTH",
"228 -100 OFFCURVE",
"241 6 OFFCURVE",
"241 95 CURVE SMOOTH",
"242 376 LINE SMOOTH",
"243 557 OFFCURVE",
"272 610 OFFCURVE",
"345 610 CURVE SMOOTH",
"381 610 OFFCURVE",
"391 596 OFFCURVE",
"413 596 CURVE SMOOTH",
"435 596 OFFCURVE",
"446 612 OFFCURVE",
"446 631 CURVE SMOOTH",
"446 654 OFFCURVE",
"431 666 OFFCURVE",
"411 674 CURVE SMOOTH",
"393 681 OFFCURVE",
"370 687 OFFCURVE",
"345 687 CURVE",
"290 687 OFFCURVE",
"255 671 OFFCURVE",
"229 648 CURVE SMOOTH",
"167 593 OFFCURVE",
"152 474 OFFCURVE",
"155 376 CURVE SMOOTH",
"164 95 LINE SMOOTH",
"166 23 OFFCURVE",
"137 -113 OFFCURVE",
"137 -175 CURVE SMOOTH",
"137 -205 OFFCURVE",
"178 -238 OFFCURVE",
"198 -238 CURVE SMOOTH"
);
}
);
};
layerId = "D34FCF88-AF1D-4520-8FB0-498E26D42FBC";
name = Regular;
paths = (
{
closed = 1;
nodes = (
"212 324 OFFCURVE",
"292 325 OFFCURVE",
"369 342 CURVE SMOOTH",
"378 344 OFFCURVE",
"386 351 OFFCURVE",
"386 365 CURVE SMOOTH",
"386 386 OFFCURVE",
"375 407 OFFCURVE",
"360 407 CURVE SMOOTH",
"27 407 LINE SMOOTH",
"18 407 OFFCURVE",
"14 399 OFFCURVE",
"14 388 CURVE SMOOTH",
"14 373 OFFCURVE",
"21 350 OFFCURVE",
"34 345 CURVE SMOOTH",
"74 329 OFFCURVE",
"119 324 OFFCURVE",
"148 324 CURVE"
);
},
{
closed = 1;
nodes = (
"201 387 OFFCURVE",
"214 448 OFFCURVE",
"214 486 CURVE SMOOTH",
"214 542 OFFCURVE",
"183 566 OFFCURVE",
"137 556 CURVE",
"114 342 LINE",
"114 146 LINE SMOOTH",
"114 39 OFFCURVE",
"164 -19 OFFCURVE",
"261 -19 CURVE SMOOTH",
"338 -19 OFFCURVE",
"401 31 OFFCURVE",
"401 77 CURVE SMOOTH",
"401 106 OFFCURVE",
"377 130 OFFCURVE",
"370 130 CURVE SMOOTH",
"362 130 OFFCURVE",
"326 58 OFFCURVE",
"261 58 CURVE SMOOTH",
"210 58 OFFCURVE",
"191 85 OFFCURVE",
"191 166 CURVE SMOOTH",
"191 342 LINE"
);
}
);
width = 428;
}
);
unicode = 0074;
},
{
color = 1;
glyphname = u;
lastChange = "2016-01-10 19:28:13 +0000";
layers = (
{
anchors = (
{
name = top;
position = "{292, 407}";
}
);
layerId = "D34FCF88-AF1D-4520-8FB0-498E26D42FBC";
name = Regular;
paths = (
{
closed = 1;
nodes = (
"268 -19 OFFCURVE",
"342 92 OFFCURVE",
"381 168 CURVE SMOOTH",
"413 230 OFFCURVE",
"478 321 OFFCURVE",
"478 392 CURVE SMOOTH",
"478 414 OFFCURVE",
"452 428 OFFCURVE",
"435 428 CURVE SMOOTH",
"414 428 OFFCURVE",
"357 389 OFFCURVE",
"357 312 CURVE SMOOTH",
"357 257 OFFCURVE",
"373 214 OFFCURVE",
"382 140 CURVE SMOOTH",
"386 106 LINE SMOOTH",
"396 19 OFFCURVE",
"434 -19 OFFCURVE",
"481 -19 CURVE SMOOTH",
"502 -19 OFFCURVE",
"523 0 OFFCURVE",
"523 24 CURVE SMOOTH",
"523 71 OFFCURVE",
"462 46 OFFCURVE",
"454 138 CURVE SMOOTH",
"444 249 LINE",
"444 249 OFFCURVE",
"450 354 OFFCURVE",
"450 354 CURVE",
"450 354 OFFCURVE",
"405 373 OFFCURVE",
"405 373 CURVE",
"324 194 LINE SMOOTH",
"291 120 OFFCURVE",
"231 58 OFFCURVE",
"192 58 CURVE SMOOTH",
"171 58 OFFCURVE",
"151 74 OFFCURVE",
"151 186 CURVE SMOOTH",
"151 286 OFFCURVE",
"175 377 OFFCURVE",
"175 409 CURVE SMOOTH",
"175 431 OFFCURVE",
"162 444 OFFCURVE",
"134 444 CURVE SMOOTH",
"87 444 OFFCURVE",
"72 327 OFFCURVE",
"72 189 CURVE SMOOTH",
"72 13 OFFCURVE",
"138 -19 OFFCURVE",
"192 -19 CURVE SMOOTH"
);
}
);
width = 556;
}
);
unicode = 0075;
},
{
color = 0;
glyphname = v;
lastChange = "2015-12-01 20:41:44 +0000";
layers = (
{
background = {
paths = (
{
closed = 1;
nodes = (
"23 972 OFFCURVE",
"11 948 OFFCURVE",
"12 942 CURVE",
"13 935 OFFCURVE",
"43 880 OFFCURVE",
"46 873 CURVE",
"55 850 OFFCURVE",
"123 657 OFFCURVE",
"132 634 CURVE",
"145 600 OFFCURVE",
"155 581 OFFCURVE",
"191 581 CURVE",
"216 581 OFFCURVE",
"220 578 OFFCURVE",
"234 600 CURVE",
"262 641 OFFCURVE",
"370 808 OFFCURVE",
"389 839 CURVE",
"396 853 OFFCURVE",
"420 901 OFFCURVE",
"422 908 CURVE",
"423 909 OFFCURVE",
"425 928 OFFCURVE",
"425 935 CURVE",
"425 941 OFFCURVE",
"423 957 OFFCURVE",
"422 959 CURVE",
"415 977 OFFCURVE",
"399 994 OFFCURVE",
"379 994 CURVE",
"348 994 OFFCURVE",
"344 941 OFFCURVE",
"337 925 CURVE",
"331 911 OFFCURVE",
"308 863 OFFCURVE",
"303 857 CURVE",
"291 837 OFFCURVE",
"231 753 OFFCURVE",
"217 737 CURVE",
"143 785 OFFCURVE",
"161 977 OFFCURVE",
"45 977 CURVE",
"40 977 OFFCURVE",
"29 977 OFFCURVE",
"29 976 CURVE"
);
},
{
closed = 1;
nodes = (
"331 302 OFFCURVE",
"337 342 OFFCURVE",
"361 383 CURVE SMOOTH",
"373 404 OFFCURVE",
"409 403 OFFCURVE",
"427 394 CURVE SMOOTH",
"450 380 OFFCURVE",
"456 353 OFFCURVE",
"434 314 CURVE SMOOTH",
"420 292 OFFCURVE",
"398 265 OFFCURVE",
"389 248 CURVE SMOOTH",
"295 91 LINE SMOOTH",
"248 12 OFFCURVE",
"195 12 OFFCURVE",
"149 38 CURVE SMOOTH",
"117 59 OFFCURVE",
"94 100 OFFCURVE",
"109 127 CURVE SMOOTH",
"121 147 OFFCURVE",
"139 150 OFFCURVE",
"153 141 CURVE SMOOTH",
"172 131 OFFCURVE",
"170 116 OFFCURVE",
"185 106 CURVE SMOOTH",
"199 98 OFFCURVE",
"216 108 OFFCURVE",
"228 131 CURVE SMOOTH",
"300 248 LINE SMOOTH"
);
}
);
};
layerId = "D34FCF88-AF1D-4520-8FB0-498E26D42FBC";
name = Regular;
paths = (
{
closed = 1;
nodes = (
"218 -19 OFFCURVE",
"234 -2 OFFCURVE",
"252 26 CURVE SMOOTH",
"331 151 LINE SMOOTH",
"398 257 OFFCURVE",
"425 324 OFFCURVE",
"425 365 CURVE SMOOTH",
"425 402 OFFCURVE",
"408 428 OFFCURVE",
"383 428 CURVE SMOOTH",
"335 428 OFFCURVE",
"353 332 OFFCURVE",
"303 249 CURVE SMOOTH",
"195 72 LINE",
"216 77 LINE",
"161 209 LINE SMOOTH",
"129 285 OFFCURVE",
"124 324 OFFCURVE",
"112 363 CURVE SMOOTH",
"96 412 OFFCURVE",
"61 428 OFFCURVE",
"32 428 CURVE SMOOTH",
"20 428 OFFCURVE",
"9 411 OFFCURVE",
"9 392 CURVE SMOOTH",
"9 363 OFFCURVE",
"25 345 OFFCURVE",
"40 306 CURVE SMOOTH",
"150 30 LINE SMOOTH",
"164 -6 OFFCURVE",
"177 -19 OFFCURVE",
"191 -19 CURVE"
);
}
);
width = 439;
}
);
unicode = 0076;
},
{
color = 0;
glyphname = w;
lastChange = "2016-01-11 17:37:26 +0000";
layers = (
{
background = {
paths = (
{
closed = 1;
nodes = (
"491 -31 OFFCURVE",
"509 -18 OFFCURVE",
"532 7 CURVE SMOOTH",
"633 115 LINE SMOOTH",
"717 208 OFFCURVE",
"756 269 OFFCURVE",
"763 309 CURVE SMOOTH",
"771 346 OFFCURVE",
"758 374 OFFCURVE",
"734 379 CURVE SMOOTH",
"687 387 OFFCURVE",
"686 289 OFFCURVE",
"623 216 CURVE SMOOTH",
"485 62 LINE",
"507 63 LINE",
"476 203 LINE SMOOTH",
"458 283 OFFCURVE",
"460 323 OFFCURVE",
"456 363 CURVE SMOOTH",
"448 414 OFFCURVE",
"417 436 OFFCURVE",
"388 441 CURVE SMOOTH",
"376 443 OFFCURVE",
"363 429 OFFCURVE",
"359 410 CURVE SMOOTH",
"354 381 OFFCURVE",
"367 361 OFFCURVE",
"374 320 CURVE SMOOTH",
"432 29 LINE SMOOTH",
"440 -9 OFFCURVE",
"450 -24 OFFCURVE",
"464 -27 CURVE"
);
}
);
};
guideLines = (
{
position = "{344, 90}";
}
);
layerId = "D34FCF88-AF1D-4520-8FB0-498E26D42FBC";
name = Regular;
paths = (
{
closed = 1;
nodes = (
"438 379 OFFCURVE",
"413 425 OFFCURVE",
"373 425 CURVE SMOOTH",
"341 425 OFFCURVE",
"363 364 OFFCURVE",
"293 249 CURVE SMOOTH",
"185 72 LINE",
"202 81 LINE",
"189 209 LINE SMOOTH",
"177 332 OFFCURVE",
"137 428 OFFCURVE",
"81 428 CURVE SMOOTH",
"60 428 OFFCURVE",
"39 409 OFFCURVE",
"39 385 CURVE SMOOTH",
"39 339 OFFCURVE",
"105 278 OFFCURVE",
"112 216 CURVE SMOOTH",
"131 46 LINE SMOOTH",
"135 11 OFFCURVE",
"168 -19 OFFCURVE",
"184 -19 CURVE SMOOTH",
"204 -19 OFFCURVE",
"223 -4 OFFCURVE",
"242 26 CURVE SMOOTH",
"321 151 LINE SMOOTH",
"364 220 OFFCURVE",
"390 270 OFFCURVE",
"404 310 CURVE",
"380 290 LINE",
"430 43 LINE SMOOTH",
"436 11 OFFCURVE",
"479 -19 OFFCURVE",
"500 -19 CURVE SMOOTH",
"517 -19 OFFCURVE",
"534 -1 OFFCURVE",
"551 26 CURVE SMOOTH",
"628 151 LINE SMOOTH",
"690 252 OFFCURVE",
"732 324 OFFCURVE",
"732 365 CURVE SMOOTH",
"732 402 OFFCURVE",
"715 428 OFFCURVE",
"690 428 CURVE SMOOTH",
"636 428 OFFCURVE",
"645 324 OFFCURVE",
"600 249 CURVE SMOOTH",
"486 58 LINE",
"511 40 LINE",
"453 310 LINE SMOOTH"
);
}
);
width = 746;
}
);
unicode = 0077;
},
{
glyphname = x;
layers = (
{
layerId = "D34FCF88-AF1D-4520-8FB0-498E26D42FBC";
name = Regular;
paths = (
{
closed = 1;
nodes = (
"240 138 CURVE",
"242 138 OFFCURVE",
"251 127 OFFCURVE",
"255 123 CURVE",
"262 114 OFFCURVE",
"293 73 OFFCURVE",
"299 64 CURVE",
"305 55 OFFCURVE",
"351 -17 OFFCURVE",
"358 -24 CURVE",
"362 -29 OFFCURVE",
"382 -39 OFFCURVE",
"388 -39 CURVE",
"406 -39 OFFCURVE",
"404 -9 OFFCURVE",
"404 -2 CURVE",
"404 4 OFFCURVE",
"403 19 OFFCURVE",
"402 20 CURVE",
"398 31 OFFCURVE",
"367 93 OFFCURVE",
"358 108 CURVE",
"353 116 OFFCURVE",
"304 173 OFFCURVE",
"299 181 CURVE",
"299 182 OFFCURVE",
"298 187 OFFCURVE",
"298 189 CURVE",
"298 191 OFFCURVE",
"299 196 OFFCURVE",
"299 196 CURVE",
"388 314 LINE",
"388 397 LINE",
"303 397 OFFCURVE",
"294 298 OFFCURVE",
"225 270 CURVE",
"190 300 OFFCURVE",
"150 333 OFFCURVE",
"108 358 CURVE",
"101 362 OFFCURVE",
"80 372 OFFCURVE",
"79 372 CURVE",
"63 372 OFFCURVE",
"63 352 OFFCURVE",
"63 344 CURVE",
"63 326 OFFCURVE",
"66 314 OFFCURVE",
"79 299 CURVE",
"91 285 OFFCURVE",
"153 223 OFFCURVE",
"167 211 CURVE",
"146 190 OFFCURVE",
"54 87 OFFCURVE",
"34 64 CURVE",
"30 59 OFFCURVE",
"20 38 OFFCURVE",
"20 34 CURVE",
"20 12 OFFCURVE",
"44 -11 OFFCURVE",
"64 -11 CURVE",
"66 -11 OFFCURVE",
"76 -10 OFFCURVE",
"79 -10 CURVE",
"98 11 OFFCURVE",
"190 104 OFFCURVE",
"211 123 CURVE",
"216 127 OFFCURVE",
"236 138 OFFCURVE"
);
}
);
width = 436;
}
);
unicode = 0078;
},
{
color = 0;
glyphname = y;
lastChange = "2016-01-10 19:29:40 +0000";
layers = (
{
anchors = (
{
name = top;
position = "{292, 407}";
}
);
background = {
paths = (
{
closed = 0;
nodes = (
"192 -119 LINE SMOOTH",
"129 -119 OFFCURVE",
"106 -79 OFFCURVE",
"75 -79 CURVE SMOOTH",
"50 -79 OFFCURVE",
"36 -96 OFFCURVE",
"36 -118 CURVE SMOOTH",
"36 -134 OFFCURVE",
"45 -149 OFFCURVE",
"68 -163 CURVE SMOOTH",
"96 -180 OFFCURVE",
"137 -196 OFFCURVE",
"192 -196 CURVE SMOOTH"
);
}
);
};
layerId = "D34FCF88-AF1D-4520-8FB0-498E26D42FBC";
name = Regular;
paths = (
{
closed = 1;
nodes = (
"406 -41 OFFCURVE",
"386 -161 OFFCURVE",
"250 -161 CURVE SMOOTH",
"155 -161 OFFCURVE",
"132 -79 OFFCURVE",
"75 -79 CURVE SMOOTH",
"49 -79 OFFCURVE",
"36 -97 OFFCURVE",
"36 -118 CURVE SMOOTH",
"36 -141 OFFCURVE",
"57 -166 OFFCURVE",
"98 -192 CURVE SMOOTH",
"136 -216 OFFCURVE",
"192 -238 OFFCURVE",
"250 -238 CURVE SMOOTH",
"390 -238 OFFCURVE",
"483 -145 OFFCURVE",
"460 89 CURVE SMOOTH",
"444 249 LINE",
"444 249 OFFCURVE",
"450 354 OFFCURVE",
"450 354 CURVE",
"450 354 OFFCURVE",
"405 373 OFFCURVE",
"405 373 CURVE",
"334 234 LINE SMOOTH",
"295 157 OFFCURVE",
"234 88 OFFCURVE",
"192 88 CURVE SMOOTH",
"171 88 OFFCURVE",
"151 103 OFFCURVE",
"151 206 CURVE SMOOTH",
"151 297 OFFCURVE",
"175 380 OFFCURVE",
"175 409 CURVE SMOOTH",
"175 431 OFFCURVE",
"162 444 OFFCURVE",
"134 444 CURVE SMOOTH",
"87 444 OFFCURVE",
"72 336 OFFCURVE",
"72 209 CURVE SMOOTH",
"72 41 OFFCURVE",
"138 11 OFFCURVE",
"192 11 CURVE SMOOTH",
"272 11 OFFCURVE",
"350 126 OFFCURVE",
"391 208 CURVE",
"417 231 LINE",
"443 280 OFFCURVE",
"478 338 OFFCURVE",
"478 392 CURVE SMOOTH",
"478 414 OFFCURVE",
"452 428 OFFCURVE",
"435 428 CURVE SMOOTH",
"414 428 OFFCURVE",
"357 389 OFFCURVE",
"357 312 CURVE SMOOTH",
"357 257 OFFCURVE",
"373 214 OFFCURVE",
"382 140 CURVE"
);
}
);
width = 556;
}
);
unicode = 0079;
},
{
color = 1;
glyphname = z;
lastChange = "2015-11-23 12:37:49 +0000";
layers = (
{
layerId = "D34FCF88-AF1D-4520-8FB0-498E26D42FBC";
name = Regular;
paths = (
{
closed = 1;
nodes = (
"137 -19 OFFCURVE",
"180 14 OFFCURVE",
"252 14 CURVE SMOOTH",
"296 14 OFFCURVE",
"342 -14 OFFCURVE",
"376 -14 CURVE SMOOTH",
"425 -14 OFFCURVE",
"465 38 OFFCURVE",
"465 67 CURVE SMOOTH",
"465 90 OFFCURVE",
"452 120 OFFCURVE",
"426 120 CURVE SMOOTH",
"409 120 OFFCURVE",
"394 63 OFFCURVE",
"368 63 CURVE SMOOTH",
"338 63 OFFCURVE",
"292 91 OFFCURVE",
"252 91 CURVE SMOOTH",
"215 91 OFFCURVE",
"183 79 OFFCURVE",
"138 52 CURVE",
"138 52 OFFCURVE",
"139 52 OFFCURVE",
"139 41 CURVE",
"391 395 LINE",
"355 380 LINE",
"165 407 LINE SMOOTH",
"136 411 OFFCURVE",
"106 428 OFFCURVE",
"86 428 CURVE SMOOTH",
"69 428 OFFCURVE",
"44 419 OFFCURVE",
"44 388 CURVE SMOOTH",
"44 366 OFFCURVE",
"60 346 OFFCURVE",
"93 341 CURVE SMOOTH",
"296 308 LINE SMOOTH",
"373 295 OFFCURVE",
"431 359 OFFCURVE",
"431 385 CURVE SMOOTH",
"431 402 OFFCURVE",
"417 428 OFFCURVE",
"395 428 CURVE SMOOTH",
"339 428 OFFCURVE",
"296 368 OFFCURVE",
"267 331 CURVE SMOOTH",
"92 102 LINE SMOOTH",
"72 75 OFFCURVE",
"55 54 OFFCURVE",
"55 29 CURVE SMOOTH",
"55 -8 OFFCURVE",
"82 -19 OFFCURVE",
"103 -19 CURVE SMOOTH"
);
}
);
width = 482;
}
);
unicode = 007A;
},
{
glyphname = w.alt01.001;
layers = (
{
layerId = "D34FCF88-AF1D-4520-8FB0-498E26D42FBC";
name = Regular;
paths = (
{
closed = 1;
nodes = (
"19 293 CURVE",
"19 290 OFFCURVE",
"20 284 OFFCURVE",
"20 284 CURVE",
"24 271 OFFCURVE",
"60 165 OFFCURVE",
"64 152 CURVE",
"67 141 OFFCURVE",
"89 45 OFFCURVE",
"93 34 CURVE",
"98 24 OFFCURVE",
"128 -7 OFFCURVE",
"138 -10 CURVE",
"139 -11 OFFCURVE",
"160 -1 OFFCURVE",
"167 5 CURVE",
"170 8 OFFCURVE",
"191 28 OFFCURVE",
"196 34 CURVE",
"203 43 OFFCURVE",
"235 84 OFFCURVE",
"240 93 CURVE",
"245 100 OFFCURVE",
"280 160 OFFCURVE",
"284 167 CURVE",
"287 169 OFFCURVE",
"297 179 OFFCURVE",
"299 181 CURVE",
"305 165 OFFCURVE",
"336 93 OFFCURVE",
"343 78 CURVE",
"359 47 OFFCURVE",
"385 3 OFFCURVE",
"424 3 CURVE",
"427 3 OFFCURVE",
"443 5 OFFCURVE",
"446 5 CURVE",
"512 66 OFFCURVE",
"564 154 OFFCURVE",
"564 248 CURVE",
"564 273 OFFCURVE",
"543 300 OFFCURVE",
"519 300 CURVE",
"479 300 OFFCURVE",
"470 138 OFFCURVE",
"417 108 CURVE",
"414 112 OFFCURVE",
"404 133 OFFCURVE",
"402 137 CURVE",
"396 152 OFFCURVE",
"350 270 OFFCURVE",
"343 284 CURVE",
"340 290 OFFCURVE",
"319 312 OFFCURVE",
"314 313 CURVE",
"313 314 OFFCURVE",
"296 316 OFFCURVE",
"290 316 CURVE",
"284 316 OFFCURVE",
"271 314 OFFCURVE",
"270 313 CURVE",
"265 309 OFFCURVE",
"257 260 OFFCURVE",
"255 255 CURVE",
"235 199 OFFCURVE",
"214 175 OFFCURVE",
"167 137 CURVE",
"167 137 OFFCURVE",
"161 135 OFFCURVE",
"160 135 CURVE",
"158 135 OFFCURVE",
"153 137 OFFCURVE",
"152 137 CURVE",
"141 177 OFFCURVE",
"118 246 OFFCURVE",
"93 284 CURVE",
"82 302 OFFCURVE",
"75 314 OFFCURVE",
"57 314 CURVE",
"42 314 OFFCURVE",
"19 310 OFFCURVE"
);
}
);
width = 588;
}
);
},
{
glyphname = h.alt10.001;
layers = (
{
layerId = "D34FCF88-AF1D-4520-8FB0-498E26D42FBC";
name = Regular;
paths = (
{
closed = 1;
nodes = (
"274 340 CURVE",
"274 49 LINE",
"274 44 OFFCURVE",
"305 14 OFFCURVE",
"319 5 CURVE",
"321 3 OFFCURVE",
"352 -8 OFFCURVE",
"362 -10 CURVE",
"363 -10 OFFCURVE",
"368 -11 OFFCURVE",
"370 -11 CURVE",
"409 -11 OFFCURVE",
"423 24 OFFCURVE",
"423 57 CURVE",
"423 73 OFFCURVE",
"421 93 OFFCURVE",
"400 93 CURVE",
"385 93 OFFCURVE",
"376 87 OFFCURVE",
"362 78 CURVE",
"358 89 OFFCURVE",
"349 141 OFFCURVE",
"348 152 CURVE",
"346 183 OFFCURVE",
"346 326 OFFCURVE",
"348 358 CURVE",
"334 404 OFFCURVE",
"293 431 OFFCURVE",
"245 431 CURVE",
"241 431 OFFCURVE",
"220 420 OFFCURVE",
"216 417 CURVE",
"199 401 OFFCURVE",
"128 329 OFFCURVE",
"112 313 CURVE",
"112 318 OFFCURVE",
"112 339 OFFCURVE",
"112 343 CURVE",
"112 446 OFFCURVE",
"143 545 OFFCURVE",
"143 647 CURVE",
"143 653 OFFCURVE",
"142 666 OFFCURVE",
"142 666 CURVE",
"137 680 OFFCURVE",
"122 696 OFFCURVE",
"105 696 CURVE",
"103 696 OFFCURVE",
"99 696 OFFCURVE",
"98 696 CURVE",
"60 670 OFFCURVE",
"59 635 OFFCURVE",
"54 592 CURVE",
"51 569 OFFCURVE",
"26 381 OFFCURVE",
"24 358 CURVE",
"24 351 OFFCURVE",
"22 258 OFFCURVE",
"22 225 CURVE",
"22 205 OFFCURVE",
"24 112 OFFCURVE",
"24 93 CURVE",
"32 71 OFFCURVE",
"43 48 OFFCURVE",
"69 48 CURVE",
"119 48 OFFCURVE",
"102 123 OFFCURVE",
"112 152 CURVE",
"122 175 OFFCURVE",
"173 277 OFFCURVE",
"186 299 CURVE",
"215 319 OFFCURVE",
"240 340 OFFCURVE"
);
}
);
width = 441;
}
);
},
{
glyphname = r.alt12.001;
layers = (
{
layerId = "D34FCF88-AF1D-4520-8FB0-498E26D42FBC";
name = Regular;
paths = (
{
closed = 1;
nodes = (
"24 39 LINE",
"24 21 OFFCURVE",
"59 -21 OFFCURVE",
"76 -21 CURVE",
"86 -21 OFFCURVE",
"92 -17 OFFCURVE",
"98 -5 CURVE",
"102 2 OFFCURVE",
"124 61 OFFCURVE",
"128 68 CURVE",
"145 106 OFFCURVE",
"196 209 OFFCURVE",
"201 216 CURVE",
"204 219 OFFCURVE",
"255 261 OFFCURVE",
"274 274 CURVE",
"290 285 OFFCURVE",
"349 297 OFFCURVE",
"349 310 CURVE",
"349 342 OFFCURVE",
"326 363 OFFCURVE",
"297 363 CURVE",
"262 363 OFFCURVE",
"226 341 OFFCURVE",
"201 318 CURVE",
"186 306 OFFCURVE",
"125 245 OFFCURVE",
"112 230 CURVE",
"116 243 OFFCURVE",
"116 305 OFFCURVE",
"112 318 CURVE",
"112 322 OFFCURVE",
"91 342 OFFCURVE",
"83 348 CURVE",
"83 348 OFFCURVE",
"78 349 OFFCURVE",
"76 349 CURVE",
"74 349 OFFCURVE",
"69 348 OFFCURVE",
"69 348 CURVE",
"60 342 OFFCURVE",
"39 321 OFFCURVE",
"39 318 CURVE"
);
}
);
width = 362;
}
);
},
{
glyphname = n.alt16.001;
layers = (
{
layerId = "D34FCF88-AF1D-4520-8FB0-498E26D42FBC";
name = Regular;
paths = (
{
closed = 1;
nodes = (
"297 265 CURVE",
"297 44 LINE",
"297 43 OFFCURVE",
"312 22 OFFCURVE",
"319 15 CURVE",
"334 -3 OFFCURVE",
"358 -30 OFFCURVE",
"385 -30 CURVE",
"402 -30 OFFCURVE",
"407 -15 OFFCURVE",
"407 0 CURVE",
"407 4 OFFCURVE",
"407 14 OFFCURVE",
"407 15 CURVE",
"406 18 OFFCURVE",
"393 41 OFFCURVE",
"392 44 CURVE",
"388 57 OFFCURVE",
"378 109 OFFCURVE",
"378 118 CURVE",
"376 131 OFFCURVE",
"378 237 OFFCURVE",
"378 250 CURVE",
"377 258 OFFCURVE",
"366 288 OFFCURVE",
"362 294 CURVE",
"355 306 OFFCURVE",
"324 337 OFFCURVE",
"319 339 CURVE",
"316 339 OFFCURVE",
"279 342 OFFCURVE",
"265 342 CURVE",
"253 342 OFFCURVE",
"218 339 OFFCURVE",
"216 339 CURVE",
"199 332 OFFCURVE",
"137 280 OFFCURVE",
"128 265 CURVE",
"126 307 OFFCURVE",
"107 355 OFFCURVE",
"60 355 CURVE",
"54 355 OFFCURVE",
"40 354 OFFCURVE",
"39 353 CURVE",
"37 352 OFFCURVE",
"28 321 OFFCURVE",
"24 309 CURVE",
"24 309 OFFCURVE",
"24 305 OFFCURVE",
"24 303 CURVE",
"24 301 OFFCURVE",
"24 295 OFFCURVE",
"24 294 CURVE",
"27 257 OFFCURVE",
"37 82 OFFCURVE",
"39 44 CURVE",
"56 31 OFFCURVE",
"66 29 OFFCURVE",
"84 29 CURVE",
"118 29 OFFCURVE",
"117 63 OFFCURVE",
"128 89 CURVE",
"159 167 OFFCURVE",
"210 243 OFFCURVE"
);
}
);
width = 436;
}
);
},
{
glyphname = a.alt01;
layers = (
{
layerId = "D34FCF88-AF1D-4520-8FB0-498E26D42FBC";
name = Regular;
paths = (
{
closed = 1;
nodes = (
"21 135 CURVE",
"21 105 OFFCURVE",
"20 87 OFFCURVE",
"40 63 CURVE",
"49 51 OFFCURVE",
"97 3 OFFCURVE",
"109 -6 CURVE",
"122 -18 OFFCURVE",
"135 -24 OFFCURVE",
"151 -24 CURVE",
"186 -24 OFFCURVE",
"247 28 OFFCURVE",
"247 61 CURVE",
"247 92 OFFCURVE",
"231 98 OFFCURVE",
"203 98 CURVE",
"175 98 OFFCURVE",
"157 83 OFFCURVE",
"132 83 CURVE",
"132 90 OFFCURVE",
"124 123 OFFCURVE",
"125 131 CURVE",
"132 157 OFFCURVE",
"192 184 OFFCURVE",
"219 184 CURVE",
"225 184 OFFCURVE",
"245 183 OFFCURVE",
"245 183 CURVE",
"261 178 OFFCURVE",
"310 154 OFFCURVE",
"314 148 CURVE",
"317 144 OFFCURVE",
"312 102 OFFCURVE",
"314 97 CURVE",
"332 44 OFFCURVE",
"397 -8 OFFCURVE",
"451 -8 CURVE",
"475 -8 OFFCURVE",
"524 42 OFFCURVE",
"519 63 CURVE",
"517 70 OFFCURVE",
"494 93 OFFCURVE",
"485 97 CURVE",
"471 102 OFFCURVE",
"424 82 OFFCURVE",
"417 114 CURVE",
"427 251 OFFCURVE",
"425 441 OFFCURVE",
"242 441 CURVE",
"205 441 OFFCURVE",
"159 444 OFFCURVE",
"125 422 CURVE",
"115 415 OFFCURVE",
"79 379 OFFCURVE",
"74 371 CURVE",
"73 370 OFFCURVE",
"73 358 OFFCURVE",
"73 355 CURVE",
"73 319 OFFCURVE",
"96 318 OFFCURVE",
"126 318 CURVE",
"175 318 OFFCURVE",
"206 355 OFFCURVE",
"253 355 CURVE",
"307 355 OFFCURVE",
"315 304 OFFCURVE",
"315 259 CURVE",
"315 253 OFFCURVE",
"314 223 OFFCURVE",
"314 216 CURVE",
"274 251 OFFCURVE",
"229 269 OFFCURVE",
"177 269 CURVE",
"148 269 OFFCURVE",
"132 271 OFFCURVE",
"109 251 CURVE",
"87 232 OFFCURVE",
"27 172 OFFCURVE",
"23 165 CURVE",
"22 165 OFFCURVE",
"21 144 OFFCURVE"
);
}
);
width = 536;
}
);
},
{
glyphname = b.alt01;
layers = (
{
layerId = "D34FCF88-AF1D-4520-8FB0-498E26D42FBC";
name = Regular;
paths = (
{
closed = 1;
nodes = (
"143 59 CURVE",
"154 47 OFFCURVE",
"214 -1 OFFCURVE",
"229 -9 CURVE",
"263 -31 OFFCURVE",
"300 -28 OFFCURVE",
"339 -28 CURVE",
"349 -28 OFFCURVE",
"391 -27 OFFCURVE",
"400 -27 CURVE",
"464 16 OFFCURVE",
"469 86 OFFCURVE",
"469 156 CURVE",
"469 247 OFFCURVE",
"447 421 OFFCURVE",
"325 421 CURVE",
"245 421 OFFCURVE",
"181 369 OFFCURVE",
"125 316 CURVE",
"135 416 OFFCURVE",
"144 527 OFFCURVE",
"144 632 CURVE",
"144 676 OFFCURVE",
"135 712 OFFCURVE",
"83 712 CURVE",
"79 712 OFFCURVE",
"61 710 OFFCURVE",
"57 709 CURVE",
"54 683 OFFCURVE",
"42 564 OFFCURVE",
"40 538 CURVE",
"40 528 OFFCURVE",
"41 446 OFFCURVE",
"40 436 CURVE",
"39 413 OFFCURVE",
"24 235 OFFCURVE",
"23 213 CURVE",
"23 212 OFFCURVE",
"22 193 OFFCURVE",
"22 186 CURVE",
"22 180 OFFCURVE",
"23 163 OFFCURVE",
"23 162 CURVE",
"24 141 OFFCURVE",
"37 45 OFFCURVE",
"40 25 CURVE",
"52 7 OFFCURVE",
"78 -10 OFFCURVE",
"100 -10 CURVE",
"130 -10 OFFCURVE",
"140 44 OFFCURVE"
);
},
{
closed = 1;
nodes = (
"157 101 CURVE",
"157 168 OFFCURVE",
"225 284 OFFCURVE",
"280 316 CURVE",
"290 322 OFFCURVE",
"326 334 OFFCURVE",
"331 333 CURVE",
"341 331 OFFCURVE",
"365 306 OFFCURVE",
"365 299 CURVE",
"365 93 LINE",
"365 87 OFFCURVE",
"341 63 OFFCURVE",
"331 59 CURVE",
"329 59 OFFCURVE",
"313 57 OFFCURVE",
"306 57 CURVE",
"251 57 OFFCURVE",
"215 101 OFFCURVE"
);
}
);
width = 496;
}
);
},
{
glyphname = c.alt01;
layers = (
{
layerId = "D34FCF88-AF1D-4520-8FB0-498E26D42FBC";
name = Regular;
paths = (
{
closed = 1;
nodes = (
"22 177 CURVE",
"22 79 OFFCURVE",
"90 -12 OFFCURVE",
"194 -12 CURVE",
"268 -12 OFFCURVE",
"321 38 OFFCURVE",
"365 92 CURVE",
"385 116 OFFCURVE",
"384 132 OFFCURVE",
"384 161 CURVE",
"384 190 OFFCURVE",
"383 213 OFFCURVE",
"348 213 CURVE",
"345 213 OFFCURVE",
"333 212 OFFCURVE",
"331 212 CURVE",
"317 195 OFFCURVE",
"245 123 OFFCURVE",
"229 109 CURVE",
"211 96 OFFCURVE",
"181 91 OFFCURVE",
"159 91 CURVE",
"144 91 OFFCURVE",
"132 90 OFFCURVE",
"125 109 CURVE",
"125 121 OFFCURVE",
"124 175 OFFCURVE",
"124 186 CURVE",
"124 253 OFFCURVE",
"122 290 OFFCURVE",
"177 332 CURVE",
"183 336 OFFCURVE",
"208 349 OFFCURVE",
"211 349 CURVE",
"218 349 OFFCURVE",
"273 332 OFFCURVE",
"280 332 CURVE",
"280 332 OFFCURVE",
"293 330 OFFCURVE",
"298 330 CURVE",
"308 330 OFFCURVE",
"331 330 OFFCURVE",
"331 349 CURVE",
"331 368 OFFCURVE",
"292 410 OFFCURVE",
"280 417 CURVE",
"264 426 OFFCURVE",
"204 450 OFFCURVE",
"194 451 CURVE",
"183 452 OFFCURVE",
"136 440 OFFCURVE",
"125 434 CURVE",
"36 378 OFFCURVE",
"22 274 OFFCURVE"
);
}
);
width = 410;
}
);
},
{
glyphname = d.alt01;
layers = (
{
layerId = "D34FCF88-AF1D-4520-8FB0-498E26D42FBC";
name = Regular;
paths = (
{
closed = 1;
nodes = (
"11 129 CURVE",
"11 54 OFFCURVE",
"82 -40 OFFCURVE",
"165 -40 CURVE",
"244 -40 OFFCURVE",
"358 87 OFFCURVE",
"388 148 CURVE",
"396 78 OFFCURVE",
"414 3 OFFCURVE",
"491 -23 CURVE",
"491 -23 OFFCURVE",
"509 -24 OFFCURVE",
"516 -24 CURVE",
"543 -24 OFFCURVE",
"561 -18 OFFCURVE",
"561 13 CURVE",
"561 17 OFFCURVE",
"559 28 OFFCURVE",
"559 29 CURVE",
"556 35 OFFCURVE",
"511 73 OFFCURVE",
"507 80 CURVE",
"503 91 OFFCURVE",
"491 175 OFFCURVE",
"491 199 CURVE",
"488 271 OFFCURVE",
"488 607 OFFCURVE",
"491 679 CURVE",
"485 701 OFFCURVE",
"461 698 OFFCURVE",
"446 698 CURVE",
"393 698 OFFCURVE",
"394 611 OFFCURVE",
"388 576 CURVE",
"385 559 OFFCURVE",
"373 475 OFFCURVE",
"371 456 CURVE",
"370 456 OFFCURVE",
"363 456 OFFCURVE",
"362 456 CURVE",
"334 456 OFFCURVE",
"322 475 OFFCURVE",
"286 475 CURVE",
"258 475 OFFCURVE",
"224 475 OFFCURVE",
"199 456 CURVE",
"187 447 OFFCURVE",
"127 387 OFFCURVE",
"114 371 CURVE",
"65 310 OFFCURVE",
"11 211 OFFCURVE"
);
},
{
closed = 1;
nodes = (
"312 372 CURVE",
"345 372 OFFCURVE",
"355 362 OFFCURVE",
"355 328 CURVE",
"355 321 OFFCURVE",
"355 303 OFFCURVE",
"354 303 CURVE",
"321 205 OFFCURVE",
"226 59 OFFCURVE",
"108 59 CURVE",
"108 74 OFFCURVE",
"112 151 OFFCURVE",
"114 166 CURVE",
"114 167 OFFCURVE",
"126 191 OFFCURVE",
"131 199 CURVE",
"169 266 OFFCURVE",
"222 372 OFFCURVE"
);
}
);
width = 593;
}
);
},
{
glyphname = f.alt01;
layers = (
{
layerId = "D34FCF88-AF1D-4520-8FB0-498E26D42FBC";
name = Regular;
paths = (
{
closed = 1;
nodes = (
"17 326 CURVE",
"17 323 OFFCURVE",
"29 300 OFFCURVE",
"34 292 CURVE",
"56 258 OFFCURVE",
"137 270 OFFCURVE",
"137 241 CURVE",
"137 2 LINE",
"137 -20 OFFCURVE",
"170 -18 OFFCURVE",
"180 -18 CURVE",
"232 -18 OFFCURVE",
"219 7 OFFCURVE",
"222 53 CURVE",
"226 117 OFFCURVE",
"238 267 OFFCURVE",
"239 267 CURVE",
"394 267 LINE",
"410 267 OFFCURVE",
"411 300 OFFCURVE",
"411 310 CURVE",
"411 314 OFFCURVE",
"411 326 OFFCURVE",
"410 326 CURVE",
"405 337 OFFCURVE",
"381 361 OFFCURVE",
"376 361 CURVE",
"251 361 LINE",
"251 381 OFFCURVE",
"236 477 OFFCURVE",
"239 498 CURVE",
"241 505 OFFCURVE",
"264 553 OFFCURVE",
"274 566 CURVE",
"281 577 OFFCURVE",
"317 613 OFFCURVE",
"325 618 CURVE",
"326 618 OFFCURVE",
"336 618 OFFCURVE",
"339 618 CURVE",
"381 618 OFFCURVE",
"427 607 OFFCURVE",
"462 583 CURVE",
"486 566 OFFCURVE",
"502 546 OFFCURVE",
"535 546 CURVE",
"535 679 OFFCURVE",
"426 704 OFFCURVE",
"313 704 CURVE",
"222 704 OFFCURVE",
"167 614 OFFCURVE",
"154 532 CURVE",
"150 506 OFFCURVE",
"138 387 OFFCURVE",
"137 361 CURVE",
"121 360 OFFCURVE",
"49 349 OFFCURVE",
"34 344 CURVE",
"29 342 OFFCURVE",
"17 330 OFFCURVE"
);
}
);
width = 553;
}
);
},
{
glyphname = g.alt01;
layers = (
{
layerId = "D34FCF88-AF1D-4520-8FB0-498E26D42FBC";
name = Regular;
paths = (
{
closed = 1;
nodes = (
"73 -215 CURVE",
"73 -313 OFFCURVE",
"132 -352 OFFCURVE",
"229 -352 CURVE",
"323 -352 OFFCURVE",
"417 -292 OFFCURVE",
"417 -189 CURVE",
"417 -186 OFFCURVE",
"417 -181 OFFCURVE",
"417 -180 CURVE",
"413 -162 OFFCURVE",
"401 -115 OFFCURVE",
"400 -112 CURVE",
"395 -105 OFFCURVE",
"347 -57 OFFCURVE",
"331 -44 CURVE",
"327 -41 OFFCURVE",
"303 -28 OFFCURVE",
"297 -27 CURVE",
"284 -22 OFFCURVE",
"173 4 OFFCURVE",
"160 8 CURVE",
"151 11 OFFCURVE",
"128 23 OFFCURVE",
"125 25 CURVE",
"125 25 OFFCURVE",
"124 36 OFFCURVE",
"124 41 CURVE",
"124 72 OFFCURVE",
"150 83 OFFCURVE",
"177 93 CURVE",
"192 99 OFFCURVE",
"317 137 OFFCURVE",
"331 144 CURVE",
"339 148 OFFCURVE",
"398 209 OFFCURVE",
"417 230 CURVE",
"440 258 OFFCURVE",
"431 317 OFFCURVE",
"468 333 CURVE",
"482 339 OFFCURVE",
"555 363 OFFCURVE",
"570 367 CURVE",
"571 372 OFFCURVE",
"572 396 OFFCURVE",
"572 401 CURVE",
"572 430 OFFCURVE",
"572 453 OFFCURVE",
"537 453 CURVE",
"488 453 OFFCURVE",
"443 434 OFFCURVE",
"391 434 CURVE",
"328 434 OFFCURVE",
"269 454 OFFCURVE",
"206 454 CURVE",
"198 454 OFFCURVE",
"177 453 OFFCURVE",
"177 452 CURVE",
"171 450 OFFCURVE",
"123 402 OFFCURVE",
"109 384 CURVE",
"87 359 OFFCURVE",
"73 313 OFFCURVE",
"73 281 CURVE",
"73 254 OFFCURVE",
"78 248 OFFCURVE",
"92 213 CURVE",
"92 209 OFFCURVE",
"110 183 OFFCURVE",
"109 179 CURVE",
"105 173 OFFCURVE",
"62 148 OFFCURVE",
"57 144 CURVE",
"32 126 OFFCURVE",
"31 110 OFFCURVE",
"23 76 CURVE",
"23 76 OFFCURVE",
"22 70 OFFCURVE",
"22 68 CURVE",
"22 46 OFFCURVE",
"31 30 OFFCURVE",
"40 8 CURVE",
"94 -126 OFFCURVE",
"314 -80 OFFCURVE",
"314 -172 CURVE",
"314 -205 OFFCURVE",
"278 -244 OFFCURVE",
"245 -249 CURVE",
"235 -251 OFFCURVE",
"181 -243 OFFCURVE",
"170 -243 CURVE",
"170 -209 OFFCURVE",
"193 -111 OFFCURVE",
"125 -111 CURVE",
"74 -111 OFFCURVE",
"73 -179 OFFCURVE"
);
},
{
closed = 1;
nodes = (
"159 255 CURVE",
"159 323 OFFCURVE",
"215 367 OFFCURVE",
"280 367 CURVE",
"282 367 OFFCURVE",
"295 352 OFFCURVE",
"297 350 CURVE",
"302 346 OFFCURVE",
"345 322 OFFCURVE",
"348 316 CURVE",
"349 313 OFFCURVE",
"337 290 OFFCURVE",
"331 281 CURVE",
"300 240 OFFCURVE",
"269 229 OFFCURVE",
"219 229 CURVE",
"199 229 OFFCURVE",
"159 222 OFFCURVE"
);
}
);
width = 599;
}
);
},
{
glyphname = h.alt01;
layers = (
{
layerId = "D34FCF88-AF1D-4520-8FB0-498E26D42FBC";
name = Regular;
paths = (
{
closed = 1;
nodes = (
"364 89 CURVE",
"364 46 OFFCURVE",
"355 17 OFFCURVE",
"382 -17 CURVE",
"391 -28 OFFCURVE",
"426 -64 OFFCURVE",
"433 -69 CURVE",
"443 -75 OFFCURVE",
"479 -86 OFFCURVE",
"485 -86 CURVE",
"493 -84 OFFCURVE",
"517 -60 OFFCURVE",
"519 -51 CURVE",
"520 -49 OFFCURVE",
"507 -25 OFFCURVE",
"502 -17 CURVE",
"498 -11 OFFCURVE",
"474 12 OFFCURVE",
"468 17 CURVE",
"468 359 LINE",
"468 367 OFFCURVE",
"432 426 OFFCURVE",
"417 445 CURVE",
"410 452 OFFCURVE",
"375 476 OFFCURVE",
"365 479 CURVE",
"364 480 OFFCURVE",
"348 481 OFFCURVE",
"341 481 CURVE",
"274 481 OFFCURVE",
"181 411 OFFCURVE",
"143 359 CURVE",
"140 406 OFFCURVE",
"128 621 OFFCURVE",
"125 667 CURVE",
"125 674 OFFCURVE",
"127 729 OFFCURVE",
"125 736 CURVE",
"125 741 OFFCURVE",
"113 764 OFFCURVE",
"109 770 CURVE",
"96 788 OFFCURVE",
"86 806 OFFCURVE",
"66 806 CURVE",
"54 806 OFFCURVE",
"47 801 OFFCURVE",
"40 787 CURVE",
"42 731 OFFCURVE",
"42 467 OFFCURVE",
"40 410 CURVE",
"40 392 OFFCURVE",
"24 242 OFFCURVE",
"23 222 CURVE",
"23 222 OFFCURVE",
"23 216 OFFCURVE",
"23 214 CURVE",
"23 212 OFFCURVE",
"23 206 OFFCURVE",
"23 206 CURVE",
"25 167 OFFCURVE",
"37 -13 OFFCURVE",
"40 -51 CURVE",
"45 -73 OFFCURVE",
"68 -70 OFFCURVE",
"83 -70 CURVE",
"87 -70 OFFCURVE",
"105 -69 OFFCURVE",
"109 -69 CURVE",
"109 -35 OFFCURVE",
"122 121 OFFCURVE",
"125 154 CURVE",
"138 248 OFFCURVE",
"257 349 OFFCURVE",
"331 394 CURVE",
"332 394 OFFCURVE",
"337 394 OFFCURVE",
"339 394 CURVE",
"362 394 OFFCURVE",
"377 358 OFFCURVE",
"382 342 CURVE",
"378 316 OFFCURVE",
"366 196 OFFCURVE",
"365 171 CURVE",
"365 167 OFFCURVE",
"364 109 OFFCURVE"
);
}
);
width = 536;
}
);
},
{
glyphname = i.alt01;
layers = (
{
layerId = "D34FCF88-AF1D-4520-8FB0-498E26D42FBC";
name = Regular;
paths = (
{
closed = 1;
nodes = (
"22 86 CURVE",
"22 83 OFFCURVE",
"23 72 OFFCURVE",
"23 72 CURVE",
"28 59 OFFCURVE",
"51 11 OFFCURVE",
"57 4 CURVE",
"60 1 OFFCURVE",
"83 -11 OFFCURVE",
"92 -14 CURVE",
"114 -20 OFFCURVE",
"173 -31 OFFCURVE",
"177 -31 CURVE",
"181 -29 OFFCURVE",
"229 19 OFFCURVE",
"245 38 CURVE",
"264 60 OFFCURVE",
"264 73 OFFCURVE",
"264 99 CURVE",
"264 117 OFFCURVE",
"262 141 OFFCURVE",
"237 141 CURVE",
"235 141 OFFCURVE",
"229 141 OFFCURVE",
"229 141 CURVE",
"215 131 OFFCURVE",
"154 83 OFFCURVE",
"143 72 CURVE",
"125 89 LINE",
"125 431 LINE",
"125 435 OFFCURVE",
"102 459 OFFCURVE",
"92 465 CURVE",
"91 466 OFFCURVE",
"85 467 OFFCURVE",
"83 467 CURVE",
"60 467 OFFCURVE",
"46 430 OFFCURVE",
"40 414 CURVE",
"37 368 OFFCURVE",
"25 153 OFFCURVE",
"23 106 CURVE",
"23 105 OFFCURVE",
"22 90 OFFCURVE"
);
},
{
closed = 1;
nodes = (
"57 663 CURVE",
"57 631 OFFCURVE",
"92 584 OFFCURVE",
"125 584 CURVE",
"154 584 OFFCURVE",
"194 624 OFFCURVE",
"194 654 CURVE",
"194 666 OFFCURVE",
"173 697 OFFCURVE",
"160 705 CURVE",
"150 711 OFFCURVE",
"102 734 OFFCURVE",
"92 739 CURVE",
"85 730 OFFCURVE",
"62 682 OFFCURVE",
"57 671 CURVE",
"57 670 OFFCURVE",
"57 665 OFFCURVE"
);
}
);
width = 285;
}
);
},
